<?xml version="1.0" encoding="UTF-8"?>
<svg width="19" height="19" version="1.1" viewBox="0 0 19 19" xmlns="http://www.w3.org/2000/svg">
  <path id="circle_white" d="m19 9.5a9.5 9.5 0 0 1-9.5 9.5 9.5 9.5 0 0 1-9.5-9.5 9.5 9.5 0 0 1 9.5-9.5 9.5 9.5 0 0 1 9.5 9.5z" fill="#fff"/>
  <path id="circle_grey" d="m18.5 9.5a9 9 0 0 1-9 9 9 9 0 0 1-9-9 9 9 0 0 1 9-9 9 9 0 0 1 9 9z" fill="#808080"/>
  <path id="cross_white" d="m12.681 4.7947-3.1806 3.1806-3.1806-3.1806-1.5247 1.5247 3.1806 3.1806-3.1806 3.1806 1.5247 1.5247 3.1806-3.1806 3.1806 3.1806 1.5247-1.5247-3.1806-3.1806 3.1806-3.1806z" fill="#fff"/>
</svg>
