<?xml version="1.0" encoding="UTF-8" standalone="no"?>
<svg
   xmlns:dc="http://purl.org/dc/elements/1.1/"
   xmlns:cc="http://creativecommons.org/ns#"
   xmlns:rdf="http://www.w3.org/1999/02/22-rdf-syntax-ns#"
   xmlns:svg="http://www.w3.org/2000/svg"
   xmlns="http://www.w3.org/2000/svg"
   xmlns:sodipodi="http://sodipodi.sourceforge.net/DTD/sodipodi-0.dtd"
   xmlns:inkscape="http://www.inkscape.org/namespaces/inkscape"
   width="300mm"
   height="300mm"
   viewBox="0 0 300 300.00002"
   version="1.1"
   id="svg8"
   inkscape:version="1.0.1 (3bc2e813f5, 2020-09-07)"
   sodipodi:docname="cr10.svg">
  <defs
     id="defs2" />
  <sodipodi:namedview
     id="base"
     pagecolor="#ffffff"
     bordercolor="#666666"
     borderopacity="1.0"
     inkscape:pageopacity="0.0"
     inkscape:pageshadow="2"
     inkscape:zoom="0.76464583"
     inkscape:cx="566.92913"
     inkscape:cy="566.92913"
     inkscape:document-units="mm"
     inkscape:current-layer="layer1"
     inkscape:document-rotation="0"
     showgrid="true"
     units="mm"
     showguides="true"
     inkscape:window-width="1920"
     inkscape:window-height="1057"
     inkscape:window-x="1912"
     inkscape:window-y="-8"
     inkscape:window-maximized="1">
    <inkscape:grid
       type="xygrid"
       id="grid10"
       enabled="true"
       spacingx="10"
       spacingy="10"
       units="mm" />
  </sodipodi:namedview>
  <metadata
     id="metadata5">
    <rdf:RDF>
      <cc:Work
         rdf:about="">
        <dc:format>image/svg+xml</dc:format>
        <dc:type
           rdf:resource="http://purl.org/dc/dcmitype/StillImage" />
        <dc:title></dc:title>
      </cc:Work>
    </rdf:RDF>
  </metadata>
  <g
     inkscape:label="Livello 1"
     inkscape:groupmode="layer"
     id="layer1">
    <path
       style="fill:#ffffff;stroke:#ffffff;stroke-width:0.5;stroke-linecap:butt;stroke-linejoin:miter;stroke-opacity:1"
       d="M 0,50 H 300"
       id="path14" />
    <path
       style="fill:#ffffff;stroke:#ffffff;stroke-width:0.5;stroke-linecap:butt;stroke-linejoin:miter;stroke-opacity:1"
       d="M 0,100 H 300"
       id="path16" />
    <path
       style="fill:#ffffff;stroke:#ffffff;stroke-width:0.5;stroke-linecap:butt;stroke-linejoin:miter;stroke-opacity:1"
       d="M 0,150 H 300"
       id="path18" />
    <path
       style="fill:#ffffff;stroke:#ffffff;stroke-width:0.5;stroke-linecap:butt;stroke-linejoin:miter;stroke-opacity:1"
       d="M 2.0000003e-5,200 H 300"
       id="path20" />
    <path
       style="fill:#ffffff;stroke:#ffffff;stroke-width:0.5;stroke-linecap:butt;stroke-linejoin:miter;stroke-opacity:1"
       d="M 0,250 H 300"
       id="path22" />
    <path
       style="fill:#ffffff;stroke:#ffffff;stroke-width:0.5;stroke-linecap:butt;stroke-linejoin:miter;stroke-opacity:1"
       d="M 50,0 V 300"
       id="path30" />
    <path
       style="fill:#ffffff;stroke:#ffffff;stroke-width:0.5;stroke-linecap:butt;stroke-linejoin:miter;stroke-opacity:1"
       d="M 100,0 V 300"
       id="path32" />
    <path
       style="fill:#ffffff;stroke:#ffffff;stroke-width:0.5;stroke-linecap:butt;stroke-linejoin:miter;stroke-opacity:1"
       d="M 150,0 V 300"
       id="path34" />
    <path
       style="fill:#ffffff;stroke:#ffffff;stroke-width:0.5;stroke-linecap:butt;stroke-linejoin:miter;stroke-opacity:1"
       d="M 200,0 V 300"
       id="path36" />
    <path
       style="fill:#ffffff;stroke:#ffffff;stroke-width:0.5;stroke-linecap:butt;stroke-linejoin:miter;stroke-opacity:1"
       d="M 250,0 V 280"
       id="path38" />
    <path
       style="fill:#ffffff;stroke:#ffffff;stroke-width:0.260281px;stroke-linecap:butt;stroke-linejoin:miter;stroke-opacity:1"
       d="M 10,0 V 300"
       id="path865" />
    <path
       style="fill:#ffffff;stroke:#ffffff;stroke-width:0.260281px;stroke-linecap:butt;stroke-linejoin:miter;stroke-opacity:1"
       d="M 20,0 V 300"
       id="path867" />
    <path
       style="fill:#ffffff;stroke:#ffffff;stroke-width:0.260281px;stroke-linecap:butt;stroke-linejoin:miter;stroke-opacity:1"
       d="M 30,0 V 300"
       id="path869" />
    <path
       style="fill:#ffffff;stroke:#ffffff;stroke-width:0.260281px;stroke-linecap:butt;stroke-linejoin:miter;stroke-opacity:1"
       d="M 39.999999,0 V 300"
       id="path871" />
    <path
       style="fill:#ffffff;stroke:#ffffff;stroke-width:0.260281px;stroke-linecap:butt;stroke-linejoin:miter;stroke-opacity:1"
       d="M 60,0 V 300"
       id="path865-7" />
    <path
       style="fill:#ffffff;stroke:#ffffff;stroke-width:0.260281px;stroke-linecap:butt;stroke-linejoin:miter;stroke-opacity:1"
       d="M 70,0 V 300"
       id="path867-3" />
    <path
       style="fill:#ffffff;stroke:#ffffff;stroke-width:0.260281px;stroke-linecap:butt;stroke-linejoin:miter;stroke-opacity:1"
       d="M 80,0 V 300"
       id="path869-8" />
    <path
       style="fill:#ffffff;stroke:#ffffff;stroke-width:0.260281px;stroke-linecap:butt;stroke-linejoin:miter;stroke-opacity:1"
       d="M 89.999998,0 V 300"
       id="path871-6" />
    <path
       style="fill:#ffffff;stroke:#ffffff;stroke-width:0.260281px;stroke-linecap:butt;stroke-linejoin:miter;stroke-opacity:1"
       d="M 110,0 V 300"
       id="path865-2" />
    <path
       style="fill:#ffffff;stroke:#ffffff;stroke-width:0.260281px;stroke-linecap:butt;stroke-linejoin:miter;stroke-opacity:1"
       d="M 120,0 V 300"
       id="path867-36" />
    <path
       style="fill:#ffffff;stroke:#ffffff;stroke-width:0.260281px;stroke-linecap:butt;stroke-linejoin:miter;stroke-opacity:1"
       d="M 130,0 V 300"
       id="path869-0" />
    <path
       style="fill:#ffffff;stroke:#ffffff;stroke-width:0.260281px;stroke-linecap:butt;stroke-linejoin:miter;stroke-opacity:1"
       d="M 140,0 V 300"
       id="path871-3" />
    <path
       style="fill:#ffffff;stroke:#ffffff;stroke-width:0.260281px;stroke-linecap:butt;stroke-linejoin:miter;stroke-opacity:1"
       d="M 160,0 V 300"
       id="path865-7-3" />
    <path
       style="fill:#ffffff;stroke:#ffffff;stroke-width:0.260281px;stroke-linecap:butt;stroke-linejoin:miter;stroke-opacity:1"
       d="M 170,0 V 300"
       id="path867-3-2" />
    <path
       style="fill:#ffffff;stroke:#ffffff;stroke-width:0.260281px;stroke-linecap:butt;stroke-linejoin:miter;stroke-opacity:1"
       d="M 180,0 V 300"
       id="path869-8-9" />
    <path
       style="fill:#ffffff;stroke:#ffffff;stroke-width:0.260281px;stroke-linecap:butt;stroke-linejoin:miter;stroke-opacity:1"
       d="M 190,0 V 300"
       id="path871-6-1" />
    <path
       style="fill:#ffffff;stroke:#ffffff;stroke-width:0.260281px;stroke-linecap:butt;stroke-linejoin:miter;stroke-opacity:1"
       d="M 210,0 V 300"
       id="path865-1" />
    <path
       style="fill:#ffffff;stroke:#ffffff;stroke-width:0.260281px;stroke-linecap:butt;stroke-linejoin:miter;stroke-opacity:1"
       d="M 220,0 V 300"
       id="path867-5" />
    <path
       style="fill:#ffffff;stroke:#ffffff;stroke-width:0.260281px;stroke-linecap:butt;stroke-linejoin:miter;stroke-opacity:1"
       d="M 230,0 V 300"
       id="path869-1" />
    <path
       style="fill:#ffffff;stroke:#ffffff;stroke-width:0.251455px;stroke-linecap:butt;stroke-linejoin:miter;stroke-opacity:1"
       d="M 240,0 V 280"
       id="path871-8" />
    <path
       style="fill:#ffffff;stroke:#ffffff;stroke-width:0.251455px;stroke-linecap:butt;stroke-linejoin:miter;stroke-opacity:1"
       d="M 260,0 V 280"
       id="path865-7-0" />
    <path
       style="fill:#ffffff;stroke:#ffffff;stroke-width:0.251455px;stroke-linecap:butt;stroke-linejoin:miter;stroke-opacity:1"
       d="M 270,0 V 280"
       id="path867-3-0" />
    <path
       style="fill:#ffffff;stroke:#ffffff;stroke-width:0.251455px;stroke-linecap:butt;stroke-linejoin:miter;stroke-opacity:1"
       d="M 280,0 V 280"
       id="path869-8-7" />
    <path
       style="fill:#ffffff;stroke:#ffffff;stroke-width:0.251455px;stroke-linecap:butt;stroke-linejoin:miter;stroke-opacity:1"
       d="M 290,0 V 280"
       id="path871-6-8" />
    <path
       style="fill:#ffffff;stroke:#ffffff;stroke-width:0.260281px;stroke-linecap:butt;stroke-linejoin:miter;stroke-opacity:1"
       d="M 0,10 H 300"
       id="path1009" />
    <path
       style="fill:#ffffff;stroke:#ffffff;stroke-width:0.260281px;stroke-linecap:butt;stroke-linejoin:miter;stroke-opacity:1"
       d="M 0,20 H 300"
       id="path1011" />
    <path
       style="fill:#ffffff;stroke:#ffffff;stroke-width:0.260281px;stroke-linecap:butt;stroke-linejoin:miter;stroke-opacity:1"
       d="M 0,30 H 300"
       id="path1013" />
    <path
       style="fill:#ffffff;stroke:#ffffff;stroke-width:0.260281px;stroke-linecap:butt;stroke-linejoin:miter;stroke-opacity:1"
       d="M 0,39.999999 H 300"
       id="path1015" />
    <path
       style="fill:#ffffff;stroke:#ffffff;stroke-width:0.260281px;stroke-linecap:butt;stroke-linejoin:miter;stroke-opacity:1"
       d="M 0,110 H 300"
       id="path1009-1" />
    <path
       style="fill:#ffffff;stroke:#ffffff;stroke-width:0.260281px;stroke-linecap:butt;stroke-linejoin:miter;stroke-opacity:1"
       d="M 0,120 H 300"
       id="path1011-0" />
    <path
       style="fill:#ffffff;stroke:#ffffff;stroke-width:0.260281px;stroke-linecap:butt;stroke-linejoin:miter;stroke-opacity:1"
       d="M 0,130 H 300"
       id="path1013-7" />
    <path
       style="fill:#ffffff;stroke:#ffffff;stroke-width:0.260281px;stroke-linecap:butt;stroke-linejoin:miter;stroke-opacity:1"
       d="M 0,140 H 300"
       id="path1015-1" />
    <path
       style="fill:#ffffff;stroke:#ffffff;stroke-width:0.260281px;stroke-linecap:butt;stroke-linejoin:miter;stroke-opacity:1"
       d="M 0,160 H 300"
       id="path1009-5" />
    <path
       style="fill:#ffffff;stroke:#ffffff;stroke-width:0.260281px;stroke-linecap:butt;stroke-linejoin:miter;stroke-opacity:1"
       d="M 0,170 H 300"
       id="path1011-6" />
    <path
       style="fill:#ffffff;stroke:#ffffff;stroke-width:0.260281px;stroke-linecap:butt;stroke-linejoin:miter;stroke-opacity:1"
       d="M 0,180 H 300"
       id="path1013-1" />
    <path
       style="fill:#ffffff;stroke:#ffffff;stroke-width:0.260281px;stroke-linecap:butt;stroke-linejoin:miter;stroke-opacity:1"
       d="M 0,190 H 300"
       id="path1015-6" />
    <path
       style="fill:#ffffff;stroke:#ffffff;stroke-width:0.260281px;stroke-linecap:butt;stroke-linejoin:miter;stroke-opacity:1"
       d="M 1.0000003e-5,210 H 300"
       id="path1009-4" />
    <path
       style="fill:#ffffff;stroke:#ffffff;stroke-width:0.260281px;stroke-linecap:butt;stroke-linejoin:miter;stroke-opacity:1"
       d="M 0,220 H 300"
       id="path1011-8" />
    <path
       style="fill:#ffffff;stroke:#ffffff;stroke-width:0.260281px;stroke-linecap:butt;stroke-linejoin:miter;stroke-opacity:1"
       d="M 0,230 H 300"
       id="path1013-0" />
    <path
       style="fill:#ffffff;stroke:#ffffff;stroke-width:0.260281px;stroke-linecap:butt;stroke-linejoin:miter;stroke-opacity:1"
       d="M 0,240 H 300"
       id="path1015-0" />
    <path
       style="fill:#ffffff;stroke:#ffffff;stroke-width:0.260281px;stroke-linecap:butt;stroke-linejoin:miter;stroke-opacity:1"
       d="M 0,260 H 300"
       id="path1009-3" />
    <path
       style="fill:#ffffff;stroke:#ffffff;stroke-width:0.260281px;stroke-linecap:butt;stroke-linejoin:miter;stroke-opacity:1"
       d="M 0,270 H 300"
       id="path1011-1" />
    <path
       style="fill:#ffffff;stroke:#ffffff;stroke-width:0.260281px;stroke-linecap:butt;stroke-linejoin:miter;stroke-opacity:1"
       d="M 0,280 H 300"
       id="path1013-8" />
    <path
       style="fill:#ffffff;stroke:#ffffff;stroke-width:0.2279px;stroke-linecap:butt;stroke-linejoin:miter;stroke-opacity:1"
       d="M 0,290 H 230"
       id="path1015-2" />
    <path
       style="fill:#ffffff;stroke:#ffffff;stroke-width:0.260281px;stroke-linecap:butt;stroke-linejoin:miter;stroke-opacity:1"
       d="M 0,60 H 300"
       id="path1009-7" />
    <path
       style="fill:#ffffff;stroke:#ffffff;stroke-width:0.260281px;stroke-linecap:butt;stroke-linejoin:miter;stroke-opacity:1"
       d="M 0,70.000001 H 300"
       id="path1011-68" />
    <path
       style="fill:#ffffff;stroke:#ffffff;stroke-width:0.260281px;stroke-linecap:butt;stroke-linejoin:miter;stroke-opacity:1"
       d="M 0,80.000001 H 300"
       id="path1013-5" />
    <path
       style="fill:#ffffff;stroke:#ffffff;stroke-width:0.260281px;stroke-linecap:butt;stroke-linejoin:miter;stroke-opacity:1"
       d="M 0,89.999999 H 300"
       id="path1015-7" />
    <g
       transform="matrix(0.00561759,0,0,-0.00573385,227.57485,298.76894)"
       fill="#000000"
       stroke="none"
       id="g1231"
       style="fill:#ffffff;stroke:#ffffff">
      <path
         d="m 1438,2250 c -291,-35 -539,-248 -618,-531 -41,-151 -36,-295 17,-442 38,-107 89,-185 177,-272 90,-89 186,-146 316,-187 74,-23 79,-23 560,-23 h 485 v 140 140 l -475,5 c -403,4 -481,7 -517,21 -226,87 -346,310 -287,534 37,145 153,264 307,318 21,7 197,13 502,16 l 470,6 v 140 140 l -435,1 c -239,1 -465,-2 -502,-6 z"
         id="path1217"
         style="fill:#ffffff;stroke:#ffffff" />
      <path
         d="m 2555,2248 c -3,-7 -4,-337 -3,-733 l 3,-720 h 140 140 l 3,588 2,588 424,-3 c 411,-3 425,-4 452,-24 50,-37 68,-70 68,-124 0,-56 -20,-91 -74,-127 -33,-23 -35,-23 -426,-23 -278,0 -395,-3 -400,-11 -4,-7 169,-187 422,-440 l 429,-429 h 192 c 147,0 193,3 193,12 0,7 -127,140 -282,295 l -283,283 h 57 c 186,0 345,97 421,257 30,64 32,74 32,183 0,111 -1,118 -34,185 -60,122 -163,205 -298,240 -78,20 -1171,23 -1178,3 z"
         id="path1219"
         style="fill:#ffffff;stroke:#ffffff" />
      <path
         d="m 4823,2249 c -28,-5 -87,-22 -131,-38 -388,-141 -582,-581 -426,-965 70,-172 228,-330 400,-400 129,-53 181,-57 664,-54 l 445,3 v 140 140 l -470,5 -470,5 -76,36 c -91,44 -161,110 -207,197 l -33,62 628,2 628,3 v 140 140 l -628,3 -627,2 24,48 c 52,102 138,181 244,224 56,23 65,23 522,28 l 465,5 v 140 140 l -450,1 c -247,1 -473,-2 -502,-7 z"
         id="path1221"
         style="fill:#ffffff;stroke:#ffffff" />
      <path
         d="m 6327,1536 c -229,-399 -417,-730 -417,-736 0,-7 51,-10 161,-8 l 161,3 257,444 c 141,245 261,446 266,448 8,2 339,-558 353,-598 2,-5 -93,-9 -230,-9 h -234 l -77,-135 c -42,-74 -77,-139 -77,-145 0,-7 184,-10 556,-10 537,0 556,1 551,19 -9,36 -829,1451 -841,1451 -6,0 -199,-326 -429,-724 z"
         id="path1223"
         style="fill:#ffffff;stroke:#ffffff" />
      <path
         d="M 7740,1582 V 903 l 23,-33 c 12,-18 35,-43 50,-54 28,-21 38,-21 588,-24 l 560,-2 -3,142 -3,143 -467,3 -468,2 -2,588 -3,587 -137,3 -138,3 z"
         id="path1225"
         style="fill:#ffffff;stroke:#ffffff" />
      <path
         d="m 9125,2248 c -3,-7 -4,-337 -3,-733 l 3,-720 h 140 140 v 730 730 l -138,3 c -104,2 -139,-1 -142,-10 z"
         id="path1227"
         style="fill:#ffffff;stroke:#ffffff" />
      <path
         d="m 9547,2253 c -4,-3 -7,-69 -7,-145 v -138 h 295 295 V 1380 789 l 143,3 142,3 3,588 2,587 h 290 289 l 248,-296 248,-296 5,-291 5,-292 h 140 140 l 3,290 2,290 360,430 c 198,237 360,436 360,443 0,9 -42,12 -177,12 h -178 l -250,-300 c -137,-165 -255,-300 -261,-300 -6,0 -98,105 -205,233 -107,127 -220,262 -252,300 l -58,67 h -788 c -433,0 -791,-3 -794,-7 z"
         id="path1229"
         style="fill:#ffffff;stroke:#ffffff" />
    </g>
  </g>
</svg>
