solid OpenSCAD_Model
  facet normal 0 0 -1
    outer loop
      vertex 222.105 -224.998 -3
      vertex 222.002 -224.998 -3
      vertex 222.314 -224.984 -3
    endloop
  endfacet
  facet normal -0 0 -1
    outer loop
      vertex 222.314 -224.984 -3
      vertex 222.002 -224.998 -3
      vertex 222.521 -224.954 -3
    endloop
  endfacet
  facet normal -0 0 -1
    outer loop
      vertex 225 -222 -3
      vertex 222.002 -224.998 -3
      vertex 222.002 224.998 -3
    endloop
  endfacet
  facet normal -0 0 -1
    outer loop
      vertex 222.521 -224.954 -3
      vertex 222.002 -224.998 -3
      vertex 222.726 -224.911 -3
    endloop
  endfacet
  facet normal -0 0 -1
    outer loop
      vertex 222.726 -224.911 -3
      vertex 222.002 -224.998 -3
      vertex 222.927 -224.853 -3
    endloop
  endfacet
  facet normal -0 0 -1
    outer loop
      vertex 222.927 -224.853 -3
      vertex 222.002 -224.998 -3
      vertex 223.124 -224.782 -3
    endloop
  endfacet
  facet normal -0 0 -1
    outer loop
      vertex 223.124 -224.782 -3
      vertex 222.002 -224.998 -3
      vertex 223.315 -224.696 -3
    endloop
  endfacet
  facet normal -0 0 -1
    outer loop
      vertex 223.315 -224.696 -3
      vertex 222.002 -224.998 -3
      vertex 223.5 -224.598 -3
    endloop
  endfacet
  facet normal -0 0 -1
    outer loop
      vertex 223.5 -224.598 -3
      vertex 222.002 -224.998 -3
      vertex 223.678 -224.487 -3
    endloop
  endfacet
  facet normal -0 0 -1
    outer loop
      vertex 223.678 -224.487 -3
      vertex 222.002 -224.998 -3
      vertex 223.847 -224.364 -3
    endloop
  endfacet
  facet normal -0 0 -1
    outer loop
      vertex 223.847 -224.364 -3
      vertex 222.002 -224.998 -3
      vertex 224.007 -224.229 -3
    endloop
  endfacet
  facet normal -0 0 -1
    outer loop
      vertex 224.007 -224.229 -3
      vertex 222.002 -224.998 -3
      vertex 224.158 -224.084 -3
    endloop
  endfacet
  facet normal -0 0 -1
    outer loop
      vertex 224.158 -224.084 -3
      vertex 222.002 -224.998 -3
      vertex 224.298 -223.928 -3
    endloop
  endfacet
  facet normal -0 0 -1
    outer loop
      vertex 224.298 -223.928 -3
      vertex 222.002 -224.998 -3
      vertex 224.427 -223.763 -3
    endloop
  endfacet
  facet normal -0 0 -1
    outer loop
      vertex 224.427 -223.763 -3
      vertex 222.002 -224.998 -3
      vertex 224.544 -223.59 -3
    endloop
  endfacet
  facet normal -0 0 -1
    outer loop
      vertex 224.544 -223.59 -3
      vertex 222.002 -224.998 -3
      vertex 224.649 -223.408 -3
    endloop
  endfacet
  facet normal -0 0 -1
    outer loop
      vertex 224.649 -223.408 -3
      vertex 222.002 -224.998 -3
      vertex 224.741 -223.22 -3
    endloop
  endfacet
  facet normal -0 0 -1
    outer loop
      vertex 224.741 -223.22 -3
      vertex 222.002 -224.998 -3
      vertex 224.819 -223.026 -3
    endloop
  endfacet
  facet normal -0 0 -1
    outer loop
      vertex 224.819 -223.026 -3
      vertex 222.002 -224.998 -3
      vertex 224.884 -222.827 -3
    endloop
  endfacet
  facet normal -0 0 -1
    outer loop
      vertex 224.884 -222.827 -3
      vertex 222.002 -224.998 -3
      vertex 224.934 -222.624 -3
    endloop
  endfacet
  facet normal -0 0 -1
    outer loop
      vertex 224.934 -222.624 -3
      vertex 222.002 -224.998 -3
      vertex 224.971 -222.418 -3
    endloop
  endfacet
  facet normal -0 0 -1
    outer loop
      vertex 224.971 -222.418 -3
      vertex 222.002 -224.998 -3
      vertex 224.993 -222.209 -3
    endloop
  endfacet
  facet normal -0 0 -1
    outer loop
      vertex 224.993 -222.209 -3
      vertex 222.002 -224.998 -3
      vertex 225 -222 -3
    endloop
  endfacet
  facet normal 0 0 -1
    outer loop
      vertex 225 -222 -3
      vertex 222.002 224.998 -3
      vertex 225 222 -3
    endloop
  endfacet
  facet normal 0 0 -1
    outer loop
      vertex 222.002 224.998 -3
      vertex 224.971 222.418 -3
      vertex 224.993 222.209 -3
    endloop
  endfacet
  facet normal -0 -0 -1
    outer loop
      vertex 224.884 222.827 -3
      vertex 224.934 222.624 -3
      vertex 222.002 224.998 -3
    endloop
  endfacet
  facet normal 0 0 -1
    outer loop
      vertex 224.741 223.22 -3
      vertex 222.002 224.998 -3
      vertex 224.649 223.408 -3
    endloop
  endfacet
  facet normal -0 -0 -1
    outer loop
      vertex 224.741 223.22 -3
      vertex 224.819 223.026 -3
      vertex 222.002 224.998 -3
    endloop
  endfacet
  facet normal 0 0 -1
    outer loop
      vertex 222.002 224.998 -3
      vertex 224.007 224.229 -3
      vertex 224.158 224.084 -3
    endloop
  endfacet
  facet normal 0 0 -1
    outer loop
      vertex 224.427 223.763 -3
      vertex 222.002 224.998 -3
      vertex 224.298 223.928 -3
    endloop
  endfacet
  facet normal -0 -0 -1
    outer loop
      vertex 224.427 223.763 -3
      vertex 224.544 223.59 -3
      vertex 222.002 224.998 -3
    endloop
  endfacet
  facet normal 0 0 -1
    outer loop
      vertex 224.298 223.928 -3
      vertex 222.002 224.998 -3
      vertex 224.158 224.084 -3
    endloop
  endfacet
  facet normal 0 0 -1
    outer loop
      vertex 222.002 224.998 -3
      vertex 222.927 224.853 -3
      vertex 223.124 224.782 -3
    endloop
  endfacet
  facet normal 0 0 -1
    outer loop
      vertex 223.847 224.364 -3
      vertex 222.002 224.998 -3
      vertex 223.678 224.487 -3
    endloop
  endfacet
  facet normal -0 -0 -1
    outer loop
      vertex 223.847 224.364 -3
      vertex 224.007 224.229 -3
      vertex 222.002 224.998 -3
    endloop
  endfacet
  facet normal 0 0 -1
    outer loop
      vertex 223.678 224.487 -3
      vertex 222.002 224.998 -3
      vertex 223.5 224.598 -3
    endloop
  endfacet
  facet normal 0 0 -1
    outer loop
      vertex 223.5 224.598 -3
      vertex 222.002 224.998 -3
      vertex 223.315 224.696 -3
    endloop
  endfacet
  facet normal 0 0 -1
    outer loop
      vertex 223.315 224.696 -3
      vertex 222.002 224.998 -3
      vertex 223.124 224.782 -3
    endloop
  endfacet
  facet normal 0 0 -1
    outer loop
      vertex 224.649 223.408 -3
      vertex 222.002 224.998 -3
      vertex 224.544 223.59 -3
    endloop
  endfacet
  facet normal 0 0 -1
    outer loop
      vertex 222.726 224.911 -3
      vertex 222.002 224.998 -3
      vertex 222.521 224.954 -3
    endloop
  endfacet
  facet normal -0 -0 -1
    outer loop
      vertex 222.726 224.911 -3
      vertex 222.927 224.853 -3
      vertex 222.002 224.998 -3
    endloop
  endfacet
  facet normal -0 -0 -1
    outer loop
      vertex 224.819 223.026 -3
      vertex 224.884 222.827 -3
      vertex 222.002 224.998 -3
    endloop
  endfacet
  facet normal -0 -0 -1
    outer loop
      vertex 222.314 224.984 -3
      vertex 222.521 224.954 -3
      vertex 222.002 224.998 -3
    endloop
  endfacet
  facet normal 0 0 -1
    outer loop
      vertex 222.002 224.998 -3
      vertex 224.934 222.624 -3
      vertex 224.971 222.418 -3
    endloop
  endfacet
  facet normal 0 0 -1
    outer loop
      vertex 222.002 224.998 -3
      vertex 222.105 224.998 -3
      vertex 222.314 224.984 -3
    endloop
  endfacet
  facet normal 0 0 -1
    outer loop
      vertex 225 222 -3
      vertex 222.002 224.998 -3
      vertex 224.993 222.209 -3
    endloop
  endfacet
  facet normal 0 -0 -1
    outer loop
      vertex -222 225 -3
      vertex 222 225 -3
      vertex -222.002 224.998 -3
    endloop
  endfacet
  facet normal 0 0 -1
    outer loop
      vertex -222.002 224.998 -3
      vertex 222 225 -3
      vertex 222.002 224.998 -3
    endloop
  endfacet
  facet normal 0 0 -1
    outer loop
      vertex 222.002 -224.998 -3
      vertex -222.002 224.998 -3
      vertex 222.002 224.998 -3
    endloop
  endfacet
  facet normal 0 0 -1
    outer loop
      vertex -225 -222 -3
      vertex -225 222 -3
      vertex -222.002 -224.998 -3
    endloop
  endfacet
  facet normal -0 0 -1
    outer loop
      vertex -222.002 224.998 -3
      vertex -222.314 224.984 -3
      vertex -222.105 224.998 -3
    endloop
  endfacet
  facet normal 0 0 -1
    outer loop
      vertex -222.002 224.998 -3
      vertex -222.521 224.954 -3
      vertex -222.314 224.984 -3
    endloop
  endfacet
  facet normal 0 0 -1
    outer loop
      vertex -222.002 224.998 -3
      vertex -222.726 224.911 -3
      vertex -222.521 224.954 -3
    endloop
  endfacet
  facet normal 0 0 -1
    outer loop
      vertex -222.002 224.998 -3
      vertex -222.927 224.853 -3
      vertex -222.726 224.911 -3
    endloop
  endfacet
  facet normal 0 0 -1
    outer loop
      vertex -222.002 224.998 -3
      vertex -223.124 224.782 -3
      vertex -222.927 224.853 -3
    endloop
  endfacet
  facet normal 0 0 -1
    outer loop
      vertex -222.002 224.998 -3
      vertex -223.315 224.696 -3
      vertex -223.124 224.782 -3
    endloop
  endfacet
  facet normal 0 0 -1
    outer loop
      vertex -222.002 224.998 -3
      vertex -223.5 224.598 -3
      vertex -223.315 224.696 -3
    endloop
  endfacet
  facet normal 0 0 -1
    outer loop
      vertex -222.002 224.998 -3
      vertex -223.678 224.487 -3
      vertex -223.5 224.598 -3
    endloop
  endfacet
  facet normal 0 0 -1
    outer loop
      vertex -222.002 224.998 -3
      vertex -223.847 224.364 -3
      vertex -223.678 224.487 -3
    endloop
  endfacet
  facet normal 0 0 -1
    outer loop
      vertex -222.002 224.998 -3
      vertex -224.007 224.229 -3
      vertex -223.847 224.364 -3
    endloop
  endfacet
  facet normal 0 0 -1
    outer loop
      vertex -222.002 224.998 -3
      vertex -224.158 224.084 -3
      vertex -224.007 224.229 -3
    endloop
  endfacet
  facet normal 0 0 -1
    outer loop
      vertex -222.002 224.998 -3
      vertex -224.298 223.928 -3
      vertex -224.158 224.084 -3
    endloop
  endfacet
  facet normal 0 0 -1
    outer loop
      vertex -222.002 224.998 -3
      vertex -224.427 223.763 -3
      vertex -224.298 223.928 -3
    endloop
  endfacet
  facet normal 0 0 -1
    outer loop
      vertex -222.002 224.998 -3
      vertex -224.544 223.59 -3
      vertex -224.427 223.763 -3
    endloop
  endfacet
  facet normal 0 0 -1
    outer loop
      vertex -222.002 224.998 -3
      vertex -224.649 223.408 -3
      vertex -224.544 223.59 -3
    endloop
  endfacet
  facet normal 0 0 -1
    outer loop
      vertex -222.002 224.998 -3
      vertex -224.741 223.22 -3
      vertex -224.649 223.408 -3
    endloop
  endfacet
  facet normal 0 0 -1
    outer loop
      vertex -222.002 224.998 -3
      vertex -224.819 223.026 -3
      vertex -224.741 223.22 -3
    endloop
  endfacet
  facet normal 0 0 -1
    outer loop
      vertex -222.002 224.998 -3
      vertex -224.884 222.827 -3
      vertex -224.819 223.026 -3
    endloop
  endfacet
  facet normal 0 0 -1
    outer loop
      vertex -222.002 224.998 -3
      vertex -224.934 222.624 -3
      vertex -224.884 222.827 -3
    endloop
  endfacet
  facet normal 0 0 -1
    outer loop
      vertex -222.002 224.998 -3
      vertex -224.971 222.418 -3
      vertex -224.934 222.624 -3
    endloop
  endfacet
  facet normal 0 0 -1
    outer loop
      vertex -222.002 224.998 -3
      vertex -224.993 222.209 -3
      vertex -224.971 222.418 -3
    endloop
  endfacet
  facet normal 0 0 -1
    outer loop
      vertex -222.002 224.998 -3
      vertex -225 222 -3
      vertex -224.993 222.209 -3
    endloop
  endfacet
  facet normal 0 0 -1
    outer loop
      vertex -222.002 -224.998 -3
      vertex -225 222 -3
      vertex -222.002 224.998 -3
    endloop
  endfacet
  facet normal 0 0 -1
    outer loop
      vertex 222.002 -224.998 -3
      vertex -222.002 -224.998 -3
      vertex -222.002 224.998 -3
    endloop
  endfacet
  facet normal 0 0 -1
    outer loop
      vertex -222.002 -224.998 -3
      vertex -224.971 -222.418 -3
      vertex -224.993 -222.209 -3
    endloop
  endfacet
  facet normal 0 0 -1
    outer loop
      vertex -224.884 -222.827 -3
      vertex -224.934 -222.624 -3
      vertex -222.002 -224.998 -3
    endloop
  endfacet
  facet normal 0 0 -1
    outer loop
      vertex -224.741 -223.22 -3
      vertex -222.002 -224.998 -3
      vertex -224.649 -223.408 -3
    endloop
  endfacet
  facet normal 0 0 -1
    outer loop
      vertex -224.741 -223.22 -3
      vertex -224.819 -223.026 -3
      vertex -222.002 -224.998 -3
    endloop
  endfacet
  facet normal 0 0 -1
    outer loop
      vertex -222.002 -224.998 -3
      vertex -224.007 -224.229 -3
      vertex -224.158 -224.084 -3
    endloop
  endfacet
  facet normal 0 0 -1
    outer loop
      vertex -224.427 -223.763 -3
      vertex -222.002 -224.998 -3
      vertex -224.298 -223.928 -3
    endloop
  endfacet
  facet normal 0 0 -1
    outer loop
      vertex -224.427 -223.763 -3
      vertex -224.544 -223.59 -3
      vertex -222.002 -224.998 -3
    endloop
  endfacet
  facet normal 0 0 -1
    outer loop
      vertex -224.298 -223.928 -3
      vertex -222.002 -224.998 -3
      vertex -224.158 -224.084 -3
    endloop
  endfacet
  facet normal 0 0 -1
    outer loop
      vertex -222.002 -224.998 -3
      vertex -222.927 -224.853 -3
      vertex -223.124 -224.782 -3
    endloop
  endfacet
  facet normal 0 0 -1
    outer loop
      vertex -223.847 -224.364 -3
      vertex -222.002 -224.998 -3
      vertex -223.678 -224.487 -3
    endloop
  endfacet
  facet normal 0 0 -1
    outer loop
      vertex -223.847 -224.364 -3
      vertex -224.007 -224.229 -3
      vertex -222.002 -224.998 -3
    endloop
  endfacet
  facet normal 0 0 -1
    outer loop
      vertex -223.678 -224.487 -3
      vertex -222.002 -224.998 -3
      vertex -223.5 -224.598 -3
    endloop
  endfacet
  facet normal 0 0 -1
    outer loop
      vertex -223.5 -224.598 -3
      vertex -222.002 -224.998 -3
      vertex -223.315 -224.696 -3
    endloop
  endfacet
  facet normal 0 0 -1
    outer loop
      vertex -223.315 -224.696 -3
      vertex -222.002 -224.998 -3
      vertex -223.124 -224.782 -3
    endloop
  endfacet
  facet normal 0 0 -1
    outer loop
      vertex -224.649 -223.408 -3
      vertex -222.002 -224.998 -3
      vertex -224.544 -223.59 -3
    endloop
  endfacet
  facet normal 0 0 -1
    outer loop
      vertex -222.726 -224.911 -3
      vertex -222.002 -224.998 -3
      vertex -222.521 -224.954 -3
    endloop
  endfacet
  facet normal 0 0 -1
    outer loop
      vertex -222.726 -224.911 -3
      vertex -222.927 -224.853 -3
      vertex -222.002 -224.998 -3
    endloop
  endfacet
  facet normal 0 0 -1
    outer loop
      vertex -224.819 -223.026 -3
      vertex -224.884 -222.827 -3
      vertex -222.002 -224.998 -3
    endloop
  endfacet
  facet normal 0 0 -1
    outer loop
      vertex -222.314 -224.984 -3
      vertex -222.521 -224.954 -3
      vertex -222.002 -224.998 -3
    endloop
  endfacet
  facet normal 0 0 -1
    outer loop
      vertex -222.002 -224.998 -3
      vertex -224.934 -222.624 -3
      vertex -224.971 -222.418 -3
    endloop
  endfacet
  facet normal 0 0 -1
    outer loop
      vertex -222.002 -224.998 -3
      vertex -222.105 -224.998 -3
      vertex -222.314 -224.984 -3
    endloop
  endfacet
  facet normal -0 0 -1
    outer loop
      vertex 222.002 -224.998 -3
      vertex 222 -225 -3
      vertex -222.002 -224.998 -3
    endloop
  endfacet
  facet normal 0 0 -1
    outer loop
      vertex -222.002 -224.998 -3
      vertex 222 -225 -3
      vertex -222 -225 -3
    endloop
  endfacet
  facet normal 0 0 -1
    outer loop
      vertex -225 -222 -3
      vertex -222.002 -224.998 -3
      vertex -224.993 -222.209 -3
    endloop
  endfacet
  facet normal 0 0 1
    outer loop
      vertex 222.314 -224.984 0
      vertex 222.002 -224.998 0
      vertex 222.105 -224.998 0
    endloop
  endfacet
  facet normal 0 0 1
    outer loop
      vertex 222.521 -224.954 0
      vertex 222.002 -224.998 0
      vertex 222.314 -224.984 0
    endloop
  endfacet
  facet normal 0 0 1
    outer loop
      vertex 222.002 224.998 0
      vertex 222.002 -224.998 0
      vertex 225 -222 0
    endloop
  endfacet
  facet normal 0 0 1
    outer loop
      vertex 222.726 -224.911 0
      vertex 222.002 -224.998 0
      vertex 222.521 -224.954 0
    endloop
  endfacet
  facet normal 0 0 1
    outer loop
      vertex 222.927 -224.853 0
      vertex 222.002 -224.998 0
      vertex 222.726 -224.911 0
    endloop
  endfacet
  facet normal 0 0 1
    outer loop
      vertex 223.124 -224.782 0
      vertex 222.002 -224.998 0
      vertex 222.927 -224.853 0
    endloop
  endfacet
  facet normal 0 0 1
    outer loop
      vertex 223.315 -224.696 0
      vertex 222.002 -224.998 0
      vertex 223.124 -224.782 0
    endloop
  endfacet
  facet normal 0 0 1
    outer loop
      vertex 223.5 -224.598 0
      vertex 222.002 -224.998 0
      vertex 223.315 -224.696 0
    endloop
  endfacet
  facet normal 0 0 1
    outer loop
      vertex 223.678 -224.487 0
      vertex 222.002 -224.998 0
      vertex 223.5 -224.598 0
    endloop
  endfacet
  facet normal 0 0 1
    outer loop
      vertex 223.847 -224.364 0
      vertex 222.002 -224.998 0
      vertex 223.678 -224.487 0
    endloop
  endfacet
  facet normal 0 0 1
    outer loop
      vertex 224.007 -224.229 0
      vertex 222.002 -224.998 0
      vertex 223.847 -224.364 0
    endloop
  endfacet
  facet normal 0 0 1
    outer loop
      vertex 224.158 -224.084 0
      vertex 222.002 -224.998 0
      vertex 224.007 -224.229 0
    endloop
  endfacet
  facet normal 0 0 1
    outer loop
      vertex 224.298 -223.928 0
      vertex 222.002 -224.998 0
      vertex 224.158 -224.084 0
    endloop
  endfacet
  facet normal 0 0 1
    outer loop
      vertex 224.427 -223.763 0
      vertex 222.002 -224.998 0
      vertex 224.298 -223.928 0
    endloop
  endfacet
  facet normal 0 0 1
    outer loop
      vertex 224.544 -223.59 0
      vertex 222.002 -224.998 0
      vertex 224.427 -223.763 0
    endloop
  endfacet
  facet normal 0 0 1
    outer loop
      vertex 224.649 -223.408 0
      vertex 222.002 -224.998 0
      vertex 224.544 -223.59 0
    endloop
  endfacet
  facet normal 0 0 1
    outer loop
      vertex 224.741 -223.22 0
      vertex 222.002 -224.998 0
      vertex 224.649 -223.408 0
    endloop
  endfacet
  facet normal 0 0 1
    outer loop
      vertex 224.819 -223.026 0
      vertex 222.002 -224.998 0
      vertex 224.741 -223.22 0
    endloop
  endfacet
  facet normal 0 0 1
    outer loop
      vertex 224.884 -222.827 0
      vertex 222.002 -224.998 0
      vertex 224.819 -223.026 0
    endloop
  endfacet
  facet normal 0 0 1
    outer loop
      vertex 224.934 -222.624 0
      vertex 222.002 -224.998 0
      vertex 224.884 -222.827 0
    endloop
  endfacet
  facet normal 0 0 1
    outer loop
      vertex 224.971 -222.418 0
      vertex 222.002 -224.998 0
      vertex 224.934 -222.624 0
    endloop
  endfacet
  facet normal 0 0 1
    outer loop
      vertex 224.993 -222.209 0
      vertex 222.002 -224.998 0
      vertex 224.971 -222.418 0
    endloop
  endfacet
  facet normal 0 0 1
    outer loop
      vertex 225 -222 0
      vertex 222.002 -224.998 0
      vertex 224.993 -222.209 0
    endloop
  endfacet
  facet normal 0 0 1
    outer loop
      vertex 225 222 0
      vertex 222.002 224.998 0
      vertex 225 -222 0
    endloop
  endfacet
  facet normal 0 0 1
    outer loop
      vertex 224.993 222.209 0
      vertex 224.971 222.418 0
      vertex 222.002 224.998 0
    endloop
  endfacet
  facet normal 0 0 1
    outer loop
      vertex 222.002 224.998 0
      vertex 224.934 222.624 0
      vertex 224.884 222.827 0
    endloop
  endfacet
  facet normal 0 0 1
    outer loop
      vertex 224.649 223.408 0
      vertex 222.002 224.998 0
      vertex 224.741 223.22 0
    endloop
  endfacet
  facet normal 0 0 1
    outer loop
      vertex 222.002 224.998 0
      vertex 224.819 223.026 0
      vertex 224.741 223.22 0
    endloop
  endfacet
  facet normal 0 0 1
    outer loop
      vertex 224.158 224.084 0
      vertex 224.007 224.229 0
      vertex 222.002 224.998 0
    endloop
  endfacet
  facet normal 0 0 1
    outer loop
      vertex 224.298 223.928 0
      vertex 222.002 224.998 0
      vertex 224.427 223.763 0
    endloop
  endfacet
  facet normal 0 0 1
    outer loop
      vertex 222.002 224.998 0
      vertex 224.544 223.59 0
      vertex 224.427 223.763 0
    endloop
  endfacet
  facet normal 0 0 1
    outer loop
      vertex 224.158 224.084 0
      vertex 222.002 224.998 0
      vertex 224.298 223.928 0
    endloop
  endfacet
  facet normal 0 0 1
    outer loop
      vertex 223.124 224.782 0
      vertex 222.927 224.853 0
      vertex 222.002 224.998 0
    endloop
  endfacet
  facet normal 0 0 1
    outer loop
      vertex 223.678 224.487 0
      vertex 222.002 224.998 0
      vertex 223.847 224.364 0
    endloop
  endfacet
  facet normal 0 0 1
    outer loop
      vertex 222.002 224.998 0
      vertex 224.007 224.229 0
      vertex 223.847 224.364 0
    endloop
  endfacet
  facet normal 0 0 1
    outer loop
      vertex 223.5 224.598 0
      vertex 222.002 224.998 0
      vertex 223.678 224.487 0
    endloop
  endfacet
  facet normal 0 0 1
    outer loop
      vertex 223.315 224.696 0
      vertex 222.002 224.998 0
      vertex 223.5 224.598 0
    endloop
  endfacet
  facet normal 0 0 1
    outer loop
      vertex 223.124 224.782 0
      vertex 222.002 224.998 0
      vertex 223.315 224.696 0
    endloop
  endfacet
  facet normal 0 0 1
    outer loop
      vertex 224.544 223.59 0
      vertex 222.002 224.998 0
      vertex 224.649 223.408 0
    endloop
  endfacet
  facet normal 0 0 1
    outer loop
      vertex 222.521 224.954 0
      vertex 222.002 224.998 0
      vertex 222.726 224.911 0
    endloop
  endfacet
  facet normal 0 0 1
    outer loop
      vertex 222.002 224.998 0
      vertex 222.927 224.853 0
      vertex 222.726 224.911 0
    endloop
  endfacet
  facet normal 0 0 1
    outer loop
      vertex 222.002 224.998 0
      vertex 224.884 222.827 0
      vertex 224.819 223.026 0
    endloop
  endfacet
  facet normal 0 0 1
    outer loop
      vertex 222.002 224.998 0
      vertex 222.521 224.954 0
      vertex 222.314 224.984 0
    endloop
  endfacet
  facet normal 0 0 1
    outer loop
      vertex 224.971 222.418 0
      vertex 224.934 222.624 0
      vertex 222.002 224.998 0
    endloop
  endfacet
  facet normal 0 0 1
    outer loop
      vertex 222.314 224.984 0
      vertex 222.105 224.998 0
      vertex 222.002 224.998 0
    endloop
  endfacet
  facet normal 0 0 1
    outer loop
      vertex 224.993 222.209 0
      vertex 222.002 224.998 0
      vertex 225 222 0
    endloop
  endfacet
  facet normal 0 0 1
    outer loop
      vertex -222.002 224.998 0
      vertex 222 225 0
      vertex -222 225 0
    endloop
  endfacet
  facet normal 0 0 1
    outer loop
      vertex 222.002 224.998 0
      vertex 222 225 0
      vertex -222.002 224.998 0
    endloop
  endfacet
  facet normal 0 0 1
    outer loop
      vertex 222.002 224.998 0
      vertex -222.002 224.998 0
      vertex 222.002 -224.998 0
    endloop
  endfacet
  facet normal 0 0 1
    outer loop
      vertex -222.002 -224.998 0
      vertex -225 222 0
      vertex -225 -222 0
    endloop
  endfacet
  facet normal -0 0 1
    outer loop
      vertex -222.105 224.998 0
      vertex -222.314 224.984 0
      vertex -222.002 224.998 0
    endloop
  endfacet
  facet normal -0 0 1
    outer loop
      vertex -222.314 224.984 0
      vertex -222.521 224.954 0
      vertex -222.002 224.998 0
    endloop
  endfacet
  facet normal -0 0 1
    outer loop
      vertex -222.521 224.954 0
      vertex -222.726 224.911 0
      vertex -222.002 224.998 0
    endloop
  endfacet
  facet normal -0 0 1
    outer loop
      vertex -222.726 224.911 0
      vertex -222.927 224.853 0
      vertex -222.002 224.998 0
    endloop
  endfacet
  facet normal -0 0 1
    outer loop
      vertex -222.927 224.853 0
      vertex -223.124 224.782 0
      vertex -222.002 224.998 0
    endloop
  endfacet
  facet normal -0 0 1
    outer loop
      vertex -223.124 224.782 0
      vertex -223.315 224.696 0
      vertex -222.002 224.998 0
    endloop
  endfacet
  facet normal -0 0 1
    outer loop
      vertex -223.315 224.696 0
      vertex -223.5 224.598 0
      vertex -222.002 224.998 0
    endloop
  endfacet
  facet normal -0 0 1
    outer loop
      vertex -223.5 224.598 0
      vertex -223.678 224.487 0
      vertex -222.002 224.998 0
    endloop
  endfacet
  facet normal -0 0 1
    outer loop
      vertex -223.678 224.487 0
      vertex -223.847 224.364 0
      vertex -222.002 224.998 0
    endloop
  endfacet
  facet normal -0 0 1
    outer loop
      vertex -223.847 224.364 0
      vertex -224.007 224.229 0
      vertex -222.002 224.998 0
    endloop
  endfacet
  facet normal -0 0 1
    outer loop
      vertex -224.007 224.229 0
      vertex -224.158 224.084 0
      vertex -222.002 224.998 0
    endloop
  endfacet
  facet normal -0 0 1
    outer loop
      vertex -224.158 224.084 0
      vertex -224.298 223.928 0
      vertex -222.002 224.998 0
    endloop
  endfacet
  facet normal -0 0 1
    outer loop
      vertex -224.298 223.928 0
      vertex -224.427 223.763 0
      vertex -222.002 224.998 0
    endloop
  endfacet
  facet normal -0 0 1
    outer loop
      vertex -224.427 223.763 0
      vertex -224.544 223.59 0
      vertex -222.002 224.998 0
    endloop
  endfacet
  facet normal -0 0 1
    outer loop
      vertex -224.544 223.59 0
      vertex -224.649 223.408 0
      vertex -222.002 224.998 0
    endloop
  endfacet
  facet normal -0 0 1
    outer loop
      vertex -224.649 223.408 0
      vertex -224.741 223.22 0
      vertex -222.002 224.998 0
    endloop
  endfacet
  facet normal -0 0 1
    outer loop
      vertex -224.741 223.22 0
      vertex -224.819 223.026 0
      vertex -222.002 224.998 0
    endloop
  endfacet
  facet normal -0 0 1
    outer loop
      vertex -224.819 223.026 0
      vertex -224.884 222.827 0
      vertex -222.002 224.998 0
    endloop
  endfacet
  facet normal -0 0 1
    outer loop
      vertex -224.884 222.827 0
      vertex -224.934 222.624 0
      vertex -222.002 224.998 0
    endloop
  endfacet
  facet normal -0 0 1
    outer loop
      vertex -224.934 222.624 0
      vertex -224.971 222.418 0
      vertex -222.002 224.998 0
    endloop
  endfacet
  facet normal -0 0 1
    outer loop
      vertex -224.971 222.418 0
      vertex -224.993 222.209 0
      vertex -222.002 224.998 0
    endloop
  endfacet
  facet normal -0 0 1
    outer loop
      vertex -224.993 222.209 0
      vertex -225 222 0
      vertex -222.002 224.998 0
    endloop
  endfacet
  facet normal 0 0 1
    outer loop
      vertex -222.002 224.998 0
      vertex -225 222 0
      vertex -222.002 -224.998 0
    endloop
  endfacet
  facet normal 0 0 1
    outer loop
      vertex -222.002 224.998 0
      vertex -222.002 -224.998 0
      vertex 222.002 -224.998 0
    endloop
  endfacet
  facet normal 0 0 1
    outer loop
      vertex -224.993 -222.209 0
      vertex -224.971 -222.418 0
      vertex -222.002 -224.998 0
    endloop
  endfacet
  facet normal 0 0 1
    outer loop
      vertex -222.002 -224.998 0
      vertex -224.934 -222.624 0
      vertex -224.884 -222.827 0
    endloop
  endfacet
  facet normal -0 -0 1
    outer loop
      vertex -224.649 -223.408 0
      vertex -222.002 -224.998 0
      vertex -224.741 -223.22 0
    endloop
  endfacet
  facet normal 0 0 1
    outer loop
      vertex -222.002 -224.998 0
      vertex -224.819 -223.026 0
      vertex -224.741 -223.22 0
    endloop
  endfacet
  facet normal 0 0 1
    outer loop
      vertex -224.158 -224.084 0
      vertex -224.007 -224.229 0
      vertex -222.002 -224.998 0
    endloop
  endfacet
  facet normal -0 -0 1
    outer loop
      vertex -224.298 -223.928 0
      vertex -222.002 -224.998 0
      vertex -224.427 -223.763 0
    endloop
  endfacet
  facet normal 0 0 1
    outer loop
      vertex -222.002 -224.998 0
      vertex -224.544 -223.59 0
      vertex -224.427 -223.763 0
    endloop
  endfacet
  facet normal -0 -0 1
    outer loop
      vertex -224.158 -224.084 0
      vertex -222.002 -224.998 0
      vertex -224.298 -223.928 0
    endloop
  endfacet
  facet normal 0 0 1
    outer loop
      vertex -223.124 -224.782 0
      vertex -222.927 -224.853 0
      vertex -222.002 -224.998 0
    endloop
  endfacet
  facet normal -0 -0 1
    outer loop
      vertex -223.678 -224.487 0
      vertex -222.002 -224.998 0
      vertex -223.847 -224.364 0
    endloop
  endfacet
  facet normal 0 0 1
    outer loop
      vertex -222.002 -224.998 0
      vertex -224.007 -224.229 0
      vertex -223.847 -224.364 0
    endloop
  endfacet
  facet normal -0 -0 1
    outer loop
      vertex -223.5 -224.598 0
      vertex -222.002 -224.998 0
      vertex -223.678 -224.487 0
    endloop
  endfacet
  facet normal -0 -0 1
    outer loop
      vertex -223.315 -224.696 0
      vertex -222.002 -224.998 0
      vertex -223.5 -224.598 0
    endloop
  endfacet
  facet normal -0 -0 1
    outer loop
      vertex -223.124 -224.782 0
      vertex -222.002 -224.998 0
      vertex -223.315 -224.696 0
    endloop
  endfacet
  facet normal -0 -0 1
    outer loop
      vertex -224.544 -223.59 0
      vertex -222.002 -224.998 0
      vertex -224.649 -223.408 0
    endloop
  endfacet
  facet normal -0 -0 1
    outer loop
      vertex -222.521 -224.954 0
      vertex -222.002 -224.998 0
      vertex -222.726 -224.911 0
    endloop
  endfacet
  facet normal 0 0 1
    outer loop
      vertex -222.002 -224.998 0
      vertex -222.927 -224.853 0
      vertex -222.726 -224.911 0
    endloop
  endfacet
  facet normal 0 0 1
    outer loop
      vertex -222.002 -224.998 0
      vertex -224.884 -222.827 0
      vertex -224.819 -223.026 0
    endloop
  endfacet
  facet normal 0 0 1
    outer loop
      vertex -222.002 -224.998 0
      vertex -222.521 -224.954 0
      vertex -222.314 -224.984 0
    endloop
  endfacet
  facet normal 0 0 1
    outer loop
      vertex -224.971 -222.418 0
      vertex -224.934 -222.624 0
      vertex -222.002 -224.998 0
    endloop
  endfacet
  facet normal 0 0 1
    outer loop
      vertex -222.314 -224.984 0
      vertex -222.105 -224.998 0
      vertex -222.002 -224.998 0
    endloop
  endfacet
  facet normal -0 0 1
    outer loop
      vertex -222.002 -224.998 0
      vertex 222 -225 0
      vertex 222.002 -224.998 0
    endloop
  endfacet
  facet normal 0 -0 1
    outer loop
      vertex -222 -225 0
      vertex 222 -225 0
      vertex -222.002 -224.998 0
    endloop
  endfacet
  facet normal -0 -0 1
    outer loop
      vertex -224.993 -222.209 0
      vertex -222.002 -224.998 0
      vertex -225 -222 0
    endloop
  endfacet
  facet normal 0 -1 0
    outer loop
      vertex 222.105 -224.998 -3
      vertex 222.002 -224.998 0
      vertex 222.002 -224.998 -3
    endloop
  endfacet
  facet normal 0 -1 0
    outer loop
      vertex 222.105 -224.998 -3
      vertex 222.105 -224.998 0
      vertex 222.002 -224.998 0
    endloop
  endfacet
  facet normal 0.0668359 -0.997764 0
    outer loop
      vertex 222.314 -224.984 -3
      vertex 222.105 -224.998 0
      vertex 222.105 -224.998 -3
    endloop
  endfacet
  facet normal 0.0668359 -0.997764 0
    outer loop
      vertex 222.314 -224.984 -3
      vertex 222.314 -224.984 0
      vertex 222.105 -224.998 0
    endloop
  endfacet
  facet normal 0.143429 -0.989661 0
    outer loop
      vertex 222.521 -224.954 -3
      vertex 222.314 -224.984 0
      vertex 222.314 -224.984 -3
    endloop
  endfacet
  facet normal 0.143429 -0.989661 0
    outer loop
      vertex 222.521 -224.954 -3
      vertex 222.521 -224.954 0
      vertex 222.314 -224.984 0
    endloop
  endfacet
  facet normal 0.205289 -0.978701 0
    outer loop
      vertex 222.726 -224.911 -3
      vertex 222.521 -224.954 0
      vertex 222.521 -224.954 -3
    endloop
  endfacet
  facet normal 0.205289 -0.978701 0
    outer loop
      vertex 222.726 -224.911 -3
      vertex 222.726 -224.911 0
      vertex 222.521 -224.954 0
    endloop
  endfacet
  facet normal 0.277246 -0.960799 0
    outer loop
      vertex 222.927 -224.853 -3
      vertex 222.726 -224.911 0
      vertex 222.726 -224.911 -3
    endloop
  endfacet
  facet normal 0.277246 -0.960799 0
    outer loop
      vertex 222.927 -224.853 -3
      vertex 222.927 -224.853 0
      vertex 222.726 -224.911 0
    endloop
  endfacet
  facet normal 0.339058 -0.940766 0
    outer loop
      vertex 223.124 -224.782 -3
      vertex 222.927 -224.853 0
      vertex 222.927 -224.853 -3
    endloop
  endfacet
  facet normal 0.339058 -0.940766 0
    outer loop
      vertex 223.124 -224.782 -3
      vertex 223.124 -224.782 0
      vertex 222.927 -224.853 0
    endloop
  endfacet
  facet normal 0.410563 -0.911832 0
    outer loop
      vertex 223.315 -224.696 -3
      vertex 223.124 -224.782 0
      vertex 223.124 -224.782 -3
    endloop
  endfacet
  facet normal 0.410563 -0.911832 0
    outer loop
      vertex 223.315 -224.696 -3
      vertex 223.315 -224.696 0
      vertex 223.124 -224.782 0
    endloop
  endfacet
  facet normal 0.468107 -0.883672 0
    outer loop
      vertex 223.5 -224.598 -3
      vertex 223.315 -224.696 0
      vertex 223.315 -224.696 -3
    endloop
  endfacet
  facet normal 0.468107 -0.883672 0
    outer loop
      vertex 223.5 -224.598 -3
      vertex 223.5 -224.598 0
      vertex 223.315 -224.696 0
    endloop
  endfacet
  facet normal 0.529142 -0.848533 0
    outer loop
      vertex 223.678 -224.487 -3
      vertex 223.5 -224.598 0
      vertex 223.5 -224.598 -3
    endloop
  endfacet
  facet normal 0.529142 -0.848533 0
    outer loop
      vertex 223.678 -224.487 -3
      vertex 223.678 -224.487 0
      vertex 223.5 -224.598 0
    endloop
  endfacet
  facet normal 0.588456 -0.808529 0
    outer loop
      vertex 223.847 -224.364 -3
      vertex 223.678 -224.487 0
      vertex 223.678 -224.487 -3
    endloop
  endfacet
  facet normal 0.588456 -0.808529 0
    outer loop
      vertex 223.847 -224.364 -3
      vertex 223.847 -224.364 0
      vertex 223.678 -224.487 0
    endloop
  endfacet
  facet normal 0.644871 -0.764291 0
    outer loop
      vertex 224.007 -224.229 -3
      vertex 223.847 -224.364 0
      vertex 223.847 -224.364 -3
    endloop
  endfacet
  facet normal 0.644871 -0.764291 0
    outer loop
      vertex 224.007 -224.229 -3
      vertex 224.007 -224.229 0
      vertex 223.847 -224.364 0
    endloop
  endfacet
  facet normal 0.692631 -0.721292 0
    outer loop
      vertex 224.158 -224.084 -3
      vertex 224.007 -224.229 0
      vertex 224.007 -224.229 -3
    endloop
  endfacet
  facet normal 0.692631 -0.721292 0
    outer loop
      vertex 224.158 -224.084 -3
      vertex 224.158 -224.084 0
      vertex 224.007 -224.229 0
    endloop
  endfacet
  facet normal 0.744242 -0.66791 0
    outer loop
      vertex 224.298 -223.928 -3
      vertex 224.158 -224.084 0
      vertex 224.158 -224.084 -3
    endloop
  endfacet
  facet normal 0.744242 -0.66791 0
    outer loop
      vertex 224.298 -223.928 -3
      vertex 224.298 -223.928 0
      vertex 224.158 -224.084 0
    endloop
  endfacet
  facet normal 0.787807 -0.615922 0
    outer loop
      vertex 224.427 -223.763 -3
      vertex 224.298 -223.928 0
      vertex 224.298 -223.928 -3
    endloop
  endfacet
  facet normal 0.787807 -0.615922 0
    outer loop
      vertex 224.427 -223.763 -3
      vertex 224.427 -223.763 0
      vertex 224.298 -223.928 0
    endloop
  endfacet
  facet normal 0.828349 -0.560213 0
    outer loop
      vertex 224.544 -223.59 -3
      vertex 224.427 -223.763 0
      vertex 224.427 -223.763 -3
    endloop
  endfacet
  facet normal 0.828349 -0.560213 0
    outer loop
      vertex 224.544 -223.59 -3
      vertex 224.544 -223.59 0
      vertex 224.427 -223.763 0
    endloop
  endfacet
  facet normal 0.866186 -0.499722 0
    outer loop
      vertex 224.649 -223.408 -3
      vertex 224.544 -223.59 0
      vertex 224.544 -223.59 -3
    endloop
  endfacet
  facet normal 0.866186 -0.499722 0
    outer loop
      vertex 224.649 -223.408 -3
      vertex 224.649 -223.408 0
      vertex 224.544 -223.59 0
    endloop
  endfacet
  facet normal 0.898217 -0.439553 0
    outer loop
      vertex 224.741 -223.22 -3
      vertex 224.649 -223.408 0
      vertex 224.649 -223.408 -3
    endloop
  endfacet
  facet normal 0.898217 -0.439553 0
    outer loop
      vertex 224.741 -223.22 -3
      vertex 224.741 -223.22 0
      vertex 224.649 -223.408 0
    endloop
  endfacet
  facet normal 0.927816 -0.373039 0
    outer loop
      vertex 224.819 -223.026 -3
      vertex 224.741 -223.22 0
      vertex 224.741 -223.22 -3
    endloop
  endfacet
  facet normal 0.927816 -0.373039 0
    outer loop
      vertex 224.819 -223.026 -3
      vertex 224.819 -223.026 0
      vertex 224.741 -223.22 0
    endloop
  endfacet
  facet normal 0.950577 -0.31049 0
    outer loop
      vertex 224.884 -222.827 -3
      vertex 224.819 -223.026 0
      vertex 224.819 -223.026 -3
    endloop
  endfacet
  facet normal 0.950577 -0.31049 0
    outer loop
      vertex 224.884 -222.827 -3
      vertex 224.884 -222.827 0
      vertex 224.819 -223.026 0
    endloop
  endfacet
  facet normal 0.970981 -0.239158 0
    outer loop
      vertex 224.934 -222.624 -3
      vertex 224.884 -222.827 0
      vertex 224.884 -222.827 -3
    endloop
  endfacet
  facet normal 0.970981 -0.239158 0
    outer loop
      vertex 224.934 -222.624 -3
      vertex 224.934 -222.624 0
      vertex 224.884 -222.827 0
    endloop
  endfacet
  facet normal 0.98425 -0.176783 0
    outer loop
      vertex 224.971 -222.418 -3
      vertex 224.934 -222.624 0
      vertex 224.934 -222.624 -3
    endloop
  endfacet
  facet normal 0.98425 -0.176783 0
    outer loop
      vertex 224.971 -222.418 -3
      vertex 224.971 -222.418 0
      vertex 224.934 -222.624 0
    endloop
  endfacet
  facet normal 0.994505 -0.104685 0
    outer loop
      vertex 224.993 -222.209 -3
      vertex 224.971 -222.418 0
      vertex 224.971 -222.418 -3
    endloop
  endfacet
  facet normal 0.994505 -0.104685 0
    outer loop
      vertex 224.993 -222.209 -3
      vertex 224.993 -222.209 0
      vertex 224.971 -222.418 0
    endloop
  endfacet
  facet normal 0.99944 -0.0334741 0
    outer loop
      vertex 225 -222 -3
      vertex 224.993 -222.209 0
      vertex 224.993 -222.209 -3
    endloop
  endfacet
  facet normal 0.99944 -0.0334741 0
    outer loop
      vertex 225 -222 -3
      vertex 225 -222 0
      vertex 224.993 -222.209 0
    endloop
  endfacet
  facet normal 1 0 0
    outer loop
      vertex 225 222 -3
      vertex 225 -222 0
      vertex 225 -222 -3
    endloop
  endfacet
  facet normal 1 0 -0
    outer loop
      vertex 225 222 -3
      vertex 225 222 0
      vertex 225 -222 0
    endloop
  endfacet
  facet normal 0.99944 0.0334741 0
    outer loop
      vertex 224.993 222.209 -3
      vertex 225 222 0
      vertex 225 222 -3
    endloop
  endfacet
  facet normal 0.99944 0.0334741 -0
    outer loop
      vertex 224.993 222.209 -3
      vertex 224.993 222.209 0
      vertex 225 222 0
    endloop
  endfacet
  facet normal 0.994505 0.104685 0
    outer loop
      vertex 224.971 222.418 -3
      vertex 224.993 222.209 0
      vertex 224.993 222.209 -3
    endloop
  endfacet
  facet normal 0.994505 0.104685 -0
    outer loop
      vertex 224.971 222.418 -3
      vertex 224.971 222.418 0
      vertex 224.993 222.209 0
    endloop
  endfacet
  facet normal 0.98425 0.176783 0
    outer loop
      vertex 224.934 222.624 -3
      vertex 224.971 222.418 0
      vertex 224.971 222.418 -3
    endloop
  endfacet
  facet normal 0.98425 0.176783 -0
    outer loop
      vertex 224.934 222.624 -3
      vertex 224.934 222.624 0
      vertex 224.971 222.418 0
    endloop
  endfacet
  facet normal 0.970981 0.239158 0
    outer loop
      vertex 224.884 222.827 -3
      vertex 224.934 222.624 0
      vertex 224.934 222.624 -3
    endloop
  endfacet
  facet normal 0.970981 0.239158 -0
    outer loop
      vertex 224.884 222.827 -3
      vertex 224.884 222.827 0
      vertex 224.934 222.624 0
    endloop
  endfacet
  facet normal 0.950577 0.31049 0
    outer loop
      vertex 224.819 223.026 -3
      vertex 224.884 222.827 0
      vertex 224.884 222.827 -3
    endloop
  endfacet
  facet normal 0.950577 0.31049 -0
    outer loop
      vertex 224.819 223.026 -3
      vertex 224.819 223.026 0
      vertex 224.884 222.827 0
    endloop
  endfacet
  facet normal 0.927816 0.373039 0
    outer loop
      vertex 224.741 223.22 -3
      vertex 224.819 223.026 0
      vertex 224.819 223.026 -3
    endloop
  endfacet
  facet normal 0.927816 0.373039 -0
    outer loop
      vertex 224.741 223.22 -3
      vertex 224.741 223.22 0
      vertex 224.819 223.026 0
    endloop
  endfacet
  facet normal 0.898217 0.439553 0
    outer loop
      vertex 224.649 223.408 -3
      vertex 224.741 223.22 0
      vertex 224.741 223.22 -3
    endloop
  endfacet
  facet normal 0.898217 0.439553 -0
    outer loop
      vertex 224.649 223.408 -3
      vertex 224.649 223.408 0
      vertex 224.741 223.22 0
    endloop
  endfacet
  facet normal 0.866186 0.499722 0
    outer loop
      vertex 224.544 223.59 -3
      vertex 224.649 223.408 0
      vertex 224.649 223.408 -3
    endloop
  endfacet
  facet normal 0.866186 0.499722 -0
    outer loop
      vertex 224.544 223.59 -3
      vertex 224.544 223.59 0
      vertex 224.649 223.408 0
    endloop
  endfacet
  facet normal 0.828349 0.560213 0
    outer loop
      vertex 224.427 223.763 -3
      vertex 224.544 223.59 0
      vertex 224.544 223.59 -3
    endloop
  endfacet
  facet normal 0.828349 0.560213 -0
    outer loop
      vertex 224.427 223.763 -3
      vertex 224.427 223.763 0
      vertex 224.544 223.59 0
    endloop
  endfacet
  facet normal 0.787807 0.615922 0
    outer loop
      vertex 224.298 223.928 -3
      vertex 224.427 223.763 0
      vertex 224.427 223.763 -3
    endloop
  endfacet
  facet normal 0.787807 0.615922 -0
    outer loop
      vertex 224.298 223.928 -3
      vertex 224.298 223.928 0
      vertex 224.427 223.763 0
    endloop
  endfacet
  facet normal 0.744242 0.66791 0
    outer loop
      vertex 224.158 224.084 -3
      vertex 224.298 223.928 0
      vertex 224.298 223.928 -3
    endloop
  endfacet
  facet normal 0.744242 0.66791 -0
    outer loop
      vertex 224.158 224.084 -3
      vertex 224.158 224.084 0
      vertex 224.298 223.928 0
    endloop
  endfacet
  facet normal 0.692631 0.721292 0
    outer loop
      vertex 224.007 224.229 -3
      vertex 224.158 224.084 0
      vertex 224.158 224.084 -3
    endloop
  endfacet
  facet normal 0.692631 0.721292 -0
    outer loop
      vertex 224.007 224.229 -3
      vertex 224.007 224.229 0
      vertex 224.158 224.084 0
    endloop
  endfacet
  facet normal 0.644871 0.764291 0
    outer loop
      vertex 223.847 224.364 -3
      vertex 224.007 224.229 0
      vertex 224.007 224.229 -3
    endloop
  endfacet
  facet normal 0.644871 0.764291 -0
    outer loop
      vertex 223.847 224.364 -3
      vertex 223.847 224.364 0
      vertex 224.007 224.229 0
    endloop
  endfacet
  facet normal 0.588456 0.808529 0
    outer loop
      vertex 223.678 224.487 -3
      vertex 223.847 224.364 0
      vertex 223.847 224.364 -3
    endloop
  endfacet
  facet normal 0.588456 0.808529 -0
    outer loop
      vertex 223.678 224.487 -3
      vertex 223.678 224.487 0
      vertex 223.847 224.364 0
    endloop
  endfacet
  facet normal 0.529142 0.848533 0
    outer loop
      vertex 223.5 224.598 -3
      vertex 223.678 224.487 0
      vertex 223.678 224.487 -3
    endloop
  endfacet
  facet normal 0.529142 0.848533 -0
    outer loop
      vertex 223.5 224.598 -3
      vertex 223.5 224.598 0
      vertex 223.678 224.487 0
    endloop
  endfacet
  facet normal 0.468107 0.883672 0
    outer loop
      vertex 223.315 224.696 -3
      vertex 223.5 224.598 0
      vertex 223.5 224.598 -3
    endloop
  endfacet
  facet normal 0.468107 0.883672 -0
    outer loop
      vertex 223.315 224.696 -3
      vertex 223.315 224.696 0
      vertex 223.5 224.598 0
    endloop
  endfacet
  facet normal 0.410563 0.911832 0
    outer loop
      vertex 223.124 224.782 -3
      vertex 223.315 224.696 0
      vertex 223.315 224.696 -3
    endloop
  endfacet
  facet normal 0.410563 0.911832 -0
    outer loop
      vertex 223.124 224.782 -3
      vertex 223.124 224.782 0
      vertex 223.315 224.696 0
    endloop
  endfacet
  facet normal 0.339058 0.940766 0
    outer loop
      vertex 222.927 224.853 -3
      vertex 223.124 224.782 0
      vertex 223.124 224.782 -3
    endloop
  endfacet
  facet normal 0.339058 0.940766 -0
    outer loop
      vertex 222.927 224.853 -3
      vertex 222.927 224.853 0
      vertex 223.124 224.782 0
    endloop
  endfacet
  facet normal 0.277246 0.960799 0
    outer loop
      vertex 222.726 224.911 -3
      vertex 222.927 224.853 0
      vertex 222.927 224.853 -3
    endloop
  endfacet
  facet normal 0.277246 0.960799 -0
    outer loop
      vertex 222.726 224.911 -3
      vertex 222.726 224.911 0
      vertex 222.927 224.853 0
    endloop
  endfacet
  facet normal 0.205289 0.978701 0
    outer loop
      vertex 222.521 224.954 -3
      vertex 222.726 224.911 0
      vertex 222.726 224.911 -3
    endloop
  endfacet
  facet normal 0.205289 0.978701 -0
    outer loop
      vertex 222.521 224.954 -3
      vertex 222.521 224.954 0
      vertex 222.726 224.911 0
    endloop
  endfacet
  facet normal 0.143429 0.989661 0
    outer loop
      vertex 222.314 224.984 -3
      vertex 222.521 224.954 0
      vertex 222.521 224.954 -3
    endloop
  endfacet
  facet normal 0.143429 0.989661 -0
    outer loop
      vertex 222.314 224.984 -3
      vertex 222.314 224.984 0
      vertex 222.521 224.954 0
    endloop
  endfacet
  facet normal 0.0668359 0.997764 0
    outer loop
      vertex 222.105 224.998 -3
      vertex 222.314 224.984 0
      vertex 222.314 224.984 -3
    endloop
  endfacet
  facet normal 0.0668359 0.997764 -0
    outer loop
      vertex 222.105 224.998 -3
      vertex 222.105 224.998 0
      vertex 222.314 224.984 0
    endloop
  endfacet
  facet normal 0 1 0
    outer loop
      vertex 222.002 224.998 -3
      vertex 222.105 224.998 0
      vertex 222.105 224.998 -3
    endloop
  endfacet
  facet normal 0 1 0
    outer loop
      vertex 222.002 224.998 -3
      vertex 222.002 224.998 0
      vertex 222.105 224.998 0
    endloop
  endfacet
  facet normal 0.707107 0.707107 0
    outer loop
      vertex 222 225 -3
      vertex 222.002 224.998 0
      vertex 222.002 224.998 -3
    endloop
  endfacet
  facet normal 0.707107 0.707107 -0
    outer loop
      vertex 222 225 -3
      vertex 222 225 0
      vertex 222.002 224.998 0
    endloop
  endfacet
  facet normal 0 1 0
    outer loop
      vertex -222 225 -3
      vertex 222 225 0
      vertex 222 225 -3
    endloop
  endfacet
  facet normal 0 1 0
    outer loop
      vertex -222 225 -3
      vertex -222 225 0
      vertex 222 225 0
    endloop
  endfacet
  facet normal -0.707107 0.707107 0
    outer loop
      vertex -222.002 224.998 -3
      vertex -222 225 0
      vertex -222 225 -3
    endloop
  endfacet
  facet normal -0.707107 0.707107 0
    outer loop
      vertex -222.002 224.998 -3
      vertex -222.002 224.998 0
      vertex -222 225 0
    endloop
  endfacet
  facet normal 0 1 0
    outer loop
      vertex -222.105 224.998 -3
      vertex -222.002 224.998 0
      vertex -222.002 224.998 -3
    endloop
  endfacet
  facet normal 0 1 0
    outer loop
      vertex -222.105 224.998 -3
      vertex -222.105 224.998 0
      vertex -222.002 224.998 0
    endloop
  endfacet
  facet normal -0.0668359 0.997764 0
    outer loop
      vertex -222.314 224.984 -3
      vertex -222.105 224.998 0
      vertex -222.105 224.998 -3
    endloop
  endfacet
  facet normal -0.0668359 0.997764 0
    outer loop
      vertex -222.314 224.984 -3
      vertex -222.314 224.984 0
      vertex -222.105 224.998 0
    endloop
  endfacet
  facet normal -0.143429 0.989661 0
    outer loop
      vertex -222.521 224.954 -3
      vertex -222.314 224.984 0
      vertex -222.314 224.984 -3
    endloop
  endfacet
  facet normal -0.143429 0.989661 0
    outer loop
      vertex -222.521 224.954 -3
      vertex -222.521 224.954 0
      vertex -222.314 224.984 0
    endloop
  endfacet
  facet normal -0.205289 0.978701 0
    outer loop
      vertex -222.726 224.911 -3
      vertex -222.521 224.954 0
      vertex -222.521 224.954 -3
    endloop
  endfacet
  facet normal -0.205289 0.978701 0
    outer loop
      vertex -222.726 224.911 -3
      vertex -222.726 224.911 0
      vertex -222.521 224.954 0
    endloop
  endfacet
  facet normal -0.277246 0.960799 0
    outer loop
      vertex -222.927 224.853 -3
      vertex -222.726 224.911 0
      vertex -222.726 224.911 -3
    endloop
  endfacet
  facet normal -0.277246 0.960799 0
    outer loop
      vertex -222.927 224.853 -3
      vertex -222.927 224.853 0
      vertex -222.726 224.911 0
    endloop
  endfacet
  facet normal -0.339058 0.940766 0
    outer loop
      vertex -223.124 224.782 -3
      vertex -222.927 224.853 0
      vertex -222.927 224.853 -3
    endloop
  endfacet
  facet normal -0.339058 0.940766 0
    outer loop
      vertex -223.124 224.782 -3
      vertex -223.124 224.782 0
      vertex -222.927 224.853 0
    endloop
  endfacet
  facet normal -0.410563 0.911832 0
    outer loop
      vertex -223.315 224.696 -3
      vertex -223.124 224.782 0
      vertex -223.124 224.782 -3
    endloop
  endfacet
  facet normal -0.410563 0.911832 0
    outer loop
      vertex -223.315 224.696 -3
      vertex -223.315 224.696 0
      vertex -223.124 224.782 0
    endloop
  endfacet
  facet normal -0.468107 0.883672 0
    outer loop
      vertex -223.5 224.598 -3
      vertex -223.315 224.696 0
      vertex -223.315 224.696 -3
    endloop
  endfacet
  facet normal -0.468107 0.883672 0
    outer loop
      vertex -223.5 224.598 -3
      vertex -223.5 224.598 0
      vertex -223.315 224.696 0
    endloop
  endfacet
  facet normal -0.529142 0.848533 0
    outer loop
      vertex -223.678 224.487 -3
      vertex -223.5 224.598 0
      vertex -223.5 224.598 -3
    endloop
  endfacet
  facet normal -0.529142 0.848533 0
    outer loop
      vertex -223.678 224.487 -3
      vertex -223.678 224.487 0
      vertex -223.5 224.598 0
    endloop
  endfacet
  facet normal -0.588456 0.808529 0
    outer loop
      vertex -223.847 224.364 -3
      vertex -223.678 224.487 0
      vertex -223.678 224.487 -3
    endloop
  endfacet
  facet normal -0.588456 0.808529 0
    outer loop
      vertex -223.847 224.364 -3
      vertex -223.847 224.364 0
      vertex -223.678 224.487 0
    endloop
  endfacet
  facet normal -0.644871 0.764291 0
    outer loop
      vertex -224.007 224.229 -3
      vertex -223.847 224.364 0
      vertex -223.847 224.364 -3
    endloop
  endfacet
  facet normal -0.644871 0.764291 0
    outer loop
      vertex -224.007 224.229 -3
      vertex -224.007 224.229 0
      vertex -223.847 224.364 0
    endloop
  endfacet
  facet normal -0.692631 0.721292 0
    outer loop
      vertex -224.158 224.084 -3
      vertex -224.007 224.229 0
      vertex -224.007 224.229 -3
    endloop
  endfacet
  facet normal -0.692631 0.721292 0
    outer loop
      vertex -224.158 224.084 -3
      vertex -224.158 224.084 0
      vertex -224.007 224.229 0
    endloop
  endfacet
  facet normal -0.744242 0.66791 0
    outer loop
      vertex -224.298 223.928 -3
      vertex -224.158 224.084 0
      vertex -224.158 224.084 -3
    endloop
  endfacet
  facet normal -0.744242 0.66791 0
    outer loop
      vertex -224.298 223.928 -3
      vertex -224.298 223.928 0
      vertex -224.158 224.084 0
    endloop
  endfacet
  facet normal -0.787807 0.615922 0
    outer loop
      vertex -224.427 223.763 -3
      vertex -224.298 223.928 0
      vertex -224.298 223.928 -3
    endloop
  endfacet
  facet normal -0.787807 0.615922 0
    outer loop
      vertex -224.427 223.763 -3
      vertex -224.427 223.763 0
      vertex -224.298 223.928 0
    endloop
  endfacet
  facet normal -0.828349 0.560213 0
    outer loop
      vertex -224.544 223.59 -3
      vertex -224.427 223.763 0
      vertex -224.427 223.763 -3
    endloop
  endfacet
  facet normal -0.828349 0.560213 0
    outer loop
      vertex -224.544 223.59 -3
      vertex -224.544 223.59 0
      vertex -224.427 223.763 0
    endloop
  endfacet
  facet normal -0.866186 0.499722 0
    outer loop
      vertex -224.649 223.408 -3
      vertex -224.544 223.59 0
      vertex -224.544 223.59 -3
    endloop
  endfacet
  facet normal -0.866186 0.499722 0
    outer loop
      vertex -224.649 223.408 -3
      vertex -224.649 223.408 0
      vertex -224.544 223.59 0
    endloop
  endfacet
  facet normal -0.898217 0.439553 0
    outer loop
      vertex -224.741 223.22 -3
      vertex -224.649 223.408 0
      vertex -224.649 223.408 -3
    endloop
  endfacet
  facet normal -0.898217 0.439553 0
    outer loop
      vertex -224.741 223.22 -3
      vertex -224.741 223.22 0
      vertex -224.649 223.408 0
    endloop
  endfacet
  facet normal -0.927816 0.373039 0
    outer loop
      vertex -224.819 223.026 -3
      vertex -224.741 223.22 0
      vertex -224.741 223.22 -3
    endloop
  endfacet
  facet normal -0.927816 0.373039 0
    outer loop
      vertex -224.819 223.026 -3
      vertex -224.819 223.026 0
      vertex -224.741 223.22 0
    endloop
  endfacet
  facet normal -0.950577 0.31049 0
    outer loop
      vertex -224.884 222.827 -3
      vertex -224.819 223.026 0
      vertex -224.819 223.026 -3
    endloop
  endfacet
  facet normal -0.950577 0.31049 0
    outer loop
      vertex -224.884 222.827 -3
      vertex -224.884 222.827 0
      vertex -224.819 223.026 0
    endloop
  endfacet
  facet normal -0.970981 0.239158 0
    outer loop
      vertex -224.934 222.624 -3
      vertex -224.884 222.827 0
      vertex -224.884 222.827 -3
    endloop
  endfacet
  facet normal -0.970981 0.239158 0
    outer loop
      vertex -224.934 222.624 -3
      vertex -224.934 222.624 0
      vertex -224.884 222.827 0
    endloop
  endfacet
  facet normal -0.98425 0.176783 0
    outer loop
      vertex -224.971 222.418 -3
      vertex -224.934 222.624 0
      vertex -224.934 222.624 -3
    endloop
  endfacet
  facet normal -0.98425 0.176783 0
    outer loop
      vertex -224.971 222.418 -3
      vertex -224.971 222.418 0
      vertex -224.934 222.624 0
    endloop
  endfacet
  facet normal -0.994505 0.104685 0
    outer loop
      vertex -224.993 222.209 -3
      vertex -224.971 222.418 0
      vertex -224.971 222.418 -3
    endloop
  endfacet
  facet normal -0.994505 0.104685 0
    outer loop
      vertex -224.993 222.209 -3
      vertex -224.993 222.209 0
      vertex -224.971 222.418 0
    endloop
  endfacet
  facet normal -0.99944 0.0334741 0
    outer loop
      vertex -225 222 -3
      vertex -224.993 222.209 0
      vertex -224.993 222.209 -3
    endloop
  endfacet
  facet normal -0.99944 0.0334741 0
    outer loop
      vertex -225 222 -3
      vertex -225 222 0
      vertex -224.993 222.209 0
    endloop
  endfacet
  facet normal -1 0 0
    outer loop
      vertex -225 -222 -3
      vertex -225 222 0
      vertex -225 222 -3
    endloop
  endfacet
  facet normal -1 0 0
    outer loop
      vertex -225 -222 -3
      vertex -225 -222 0
      vertex -225 222 0
    endloop
  endfacet
  facet normal -0.99944 -0.0334741 0
    outer loop
      vertex -224.993 -222.209 -3
      vertex -225 -222 0
      vertex -225 -222 -3
    endloop
  endfacet
  facet normal -0.99944 -0.0334741 0
    outer loop
      vertex -224.993 -222.209 -3
      vertex -224.993 -222.209 0
      vertex -225 -222 0
    endloop
  endfacet
  facet normal -0.994505 -0.104685 0
    outer loop
      vertex -224.971 -222.418 -3
      vertex -224.993 -222.209 0
      vertex -224.993 -222.209 -3
    endloop
  endfacet
  facet normal -0.994505 -0.104685 0
    outer loop
      vertex -224.971 -222.418 -3
      vertex -224.971 -222.418 0
      vertex -224.993 -222.209 0
    endloop
  endfacet
  facet normal -0.98425 -0.176783 0
    outer loop
      vertex -224.934 -222.624 -3
      vertex -224.971 -222.418 0
      vertex -224.971 -222.418 -3
    endloop
  endfacet
  facet normal -0.98425 -0.176783 0
    outer loop
      vertex -224.934 -222.624 -3
      vertex -224.934 -222.624 0
      vertex -224.971 -222.418 0
    endloop
  endfacet
  facet normal -0.970981 -0.239158 0
    outer loop
      vertex -224.884 -222.827 -3
      vertex -224.934 -222.624 0
      vertex -224.934 -222.624 -3
    endloop
  endfacet
  facet normal -0.970981 -0.239158 0
    outer loop
      vertex -224.884 -222.827 -3
      vertex -224.884 -222.827 0
      vertex -224.934 -222.624 0
    endloop
  endfacet
  facet normal -0.950577 -0.31049 0
    outer loop
      vertex -224.819 -223.026 -3
      vertex -224.884 -222.827 0
      vertex -224.884 -222.827 -3
    endloop
  endfacet
  facet normal -0.950577 -0.31049 0
    outer loop
      vertex -224.819 -223.026 -3
      vertex -224.819 -223.026 0
      vertex -224.884 -222.827 0
    endloop
  endfacet
  facet normal -0.927816 -0.373039 0
    outer loop
      vertex -224.741 -223.22 -3
      vertex -224.819 -223.026 0
      vertex -224.819 -223.026 -3
    endloop
  endfacet
  facet normal -0.927816 -0.373039 0
    outer loop
      vertex -224.741 -223.22 -3
      vertex -224.741 -223.22 0
      vertex -224.819 -223.026 0
    endloop
  endfacet
  facet normal -0.898217 -0.439553 0
    outer loop
      vertex -224.649 -223.408 -3
      vertex -224.741 -223.22 0
      vertex -224.741 -223.22 -3
    endloop
  endfacet
  facet normal -0.898217 -0.439553 0
    outer loop
      vertex -224.649 -223.408 -3
      vertex -224.649 -223.408 0
      vertex -224.741 -223.22 0
    endloop
  endfacet
  facet normal -0.866186 -0.499722 0
    outer loop
      vertex -224.544 -223.59 -3
      vertex -224.649 -223.408 0
      vertex -224.649 -223.408 -3
    endloop
  endfacet
  facet normal -0.866186 -0.499722 0
    outer loop
      vertex -224.544 -223.59 -3
      vertex -224.544 -223.59 0
      vertex -224.649 -223.408 0
    endloop
  endfacet
  facet normal -0.828349 -0.560213 0
    outer loop
      vertex -224.427 -223.763 -3
      vertex -224.544 -223.59 0
      vertex -224.544 -223.59 -3
    endloop
  endfacet
  facet normal -0.828349 -0.560213 0
    outer loop
      vertex -224.427 -223.763 -3
      vertex -224.427 -223.763 0
      vertex -224.544 -223.59 0
    endloop
  endfacet
  facet normal -0.787807 -0.615922 0
    outer loop
      vertex -224.298 -223.928 -3
      vertex -224.427 -223.763 0
      vertex -224.427 -223.763 -3
    endloop
  endfacet
  facet normal -0.787807 -0.615922 0
    outer loop
      vertex -224.298 -223.928 -3
      vertex -224.298 -223.928 0
      vertex -224.427 -223.763 0
    endloop
  endfacet
  facet normal -0.744242 -0.66791 0
    outer loop
      vertex -224.158 -224.084 -3
      vertex -224.298 -223.928 0
      vertex -224.298 -223.928 -3
    endloop
  endfacet
  facet normal -0.744242 -0.66791 0
    outer loop
      vertex -224.158 -224.084 -3
      vertex -224.158 -224.084 0
      vertex -224.298 -223.928 0
    endloop
  endfacet
  facet normal -0.692631 -0.721292 0
    outer loop
      vertex -224.007 -224.229 -3
      vertex -224.158 -224.084 0
      vertex -224.158 -224.084 -3
    endloop
  endfacet
  facet normal -0.692631 -0.721292 0
    outer loop
      vertex -224.007 -224.229 -3
      vertex -224.007 -224.229 0
      vertex -224.158 -224.084 0
    endloop
  endfacet
  facet normal -0.644871 -0.764291 0
    outer loop
      vertex -223.847 -224.364 -3
      vertex -224.007 -224.229 0
      vertex -224.007 -224.229 -3
    endloop
  endfacet
  facet normal -0.644871 -0.764291 0
    outer loop
      vertex -223.847 -224.364 -3
      vertex -223.847 -224.364 0
      vertex -224.007 -224.229 0
    endloop
  endfacet
  facet normal -0.588456 -0.808529 0
    outer loop
      vertex -223.678 -224.487 -3
      vertex -223.847 -224.364 0
      vertex -223.847 -224.364 -3
    endloop
  endfacet
  facet normal -0.588456 -0.808529 0
    outer loop
      vertex -223.678 -224.487 -3
      vertex -223.678 -224.487 0
      vertex -223.847 -224.364 0
    endloop
  endfacet
  facet normal -0.529142 -0.848533 0
    outer loop
      vertex -223.5 -224.598 -3
      vertex -223.678 -224.487 0
      vertex -223.678 -224.487 -3
    endloop
  endfacet
  facet normal -0.529142 -0.848533 0
    outer loop
      vertex -223.5 -224.598 -3
      vertex -223.5 -224.598 0
      vertex -223.678 -224.487 0
    endloop
  endfacet
  facet normal -0.468107 -0.883672 0
    outer loop
      vertex -223.315 -224.696 -3
      vertex -223.5 -224.598 0
      vertex -223.5 -224.598 -3
    endloop
  endfacet
  facet normal -0.468107 -0.883672 0
    outer loop
      vertex -223.315 -224.696 -3
      vertex -223.315 -224.696 0
      vertex -223.5 -224.598 0
    endloop
  endfacet
  facet normal -0.410563 -0.911832 0
    outer loop
      vertex -223.124 -224.782 -3
      vertex -223.315 -224.696 0
      vertex -223.315 -224.696 -3
    endloop
  endfacet
  facet normal -0.410563 -0.911832 0
    outer loop
      vertex -223.124 -224.782 -3
      vertex -223.124 -224.782 0
      vertex -223.315 -224.696 0
    endloop
  endfacet
  facet normal -0.339058 -0.940766 0
    outer loop
      vertex -222.927 -224.853 -3
      vertex -223.124 -224.782 0
      vertex -223.124 -224.782 -3
    endloop
  endfacet
  facet normal -0.339058 -0.940766 0
    outer loop
      vertex -222.927 -224.853 -3
      vertex -222.927 -224.853 0
      vertex -223.124 -224.782 0
    endloop
  endfacet
  facet normal -0.277246 -0.960799 0
    outer loop
      vertex -222.726 -224.911 -3
      vertex -222.927 -224.853 0
      vertex -222.927 -224.853 -3
    endloop
  endfacet
  facet normal -0.277246 -0.960799 0
    outer loop
      vertex -222.726 -224.911 -3
      vertex -222.726 -224.911 0
      vertex -222.927 -224.853 0
    endloop
  endfacet
  facet normal -0.205289 -0.978701 0
    outer loop
      vertex -222.521 -224.954 -3
      vertex -222.726 -224.911 0
      vertex -222.726 -224.911 -3
    endloop
  endfacet
  facet normal -0.205289 -0.978701 0
    outer loop
      vertex -222.521 -224.954 -3
      vertex -222.521 -224.954 0
      vertex -222.726 -224.911 0
    endloop
  endfacet
  facet normal -0.143429 -0.989661 0
    outer loop
      vertex -222.314 -224.984 -3
      vertex -222.521 -224.954 0
      vertex -222.521 -224.954 -3
    endloop
  endfacet
  facet normal -0.143429 -0.989661 0
    outer loop
      vertex -222.314 -224.984 -3
      vertex -222.314 -224.984 0
      vertex -222.521 -224.954 0
    endloop
  endfacet
  facet normal -0.0668359 -0.997764 0
    outer loop
      vertex -222.105 -224.998 -3
      vertex -222.314 -224.984 0
      vertex -222.314 -224.984 -3
    endloop
  endfacet
  facet normal -0.0668359 -0.997764 0
    outer loop
      vertex -222.105 -224.998 -3
      vertex -222.105 -224.998 0
      vertex -222.314 -224.984 0
    endloop
  endfacet
  facet normal 0 -1 0
    outer loop
      vertex -222.002 -224.998 -3
      vertex -222.105 -224.998 0
      vertex -222.105 -224.998 -3
    endloop
  endfacet
  facet normal 0 -1 0
    outer loop
      vertex -222.002 -224.998 -3
      vertex -222.002 -224.998 0
      vertex -222.105 -224.998 0
    endloop
  endfacet
  facet normal -0.707107 -0.707107 0
    outer loop
      vertex -222 -225 -3
      vertex -222.002 -224.998 0
      vertex -222.002 -224.998 -3
    endloop
  endfacet
  facet normal -0.707107 -0.707107 0
    outer loop
      vertex -222 -225 -3
      vertex -222 -225 0
      vertex -222.002 -224.998 0
    endloop
  endfacet
  facet normal 0 -1 0
    outer loop
      vertex 222 -225 -3
      vertex -222 -225 0
      vertex -222 -225 -3
    endloop
  endfacet
  facet normal 0 -1 0
    outer loop
      vertex 222 -225 -3
      vertex 222 -225 0
      vertex -222 -225 0
    endloop
  endfacet
  facet normal 0.707107 -0.707107 0
    outer loop
      vertex 222.002 -224.998 -3
      vertex 222 -225 0
      vertex 222 -225 -3
    endloop
  endfacet
  facet normal 0.707107 -0.707107 0
    outer loop
      vertex 222.002 -224.998 -3
      vertex 222.002 -224.998 0
      vertex 222 -225 0
    endloop
  endfacet
endsolid OpenSCAD_Model
