<?xml version="1.0" encoding="utf-8"?>
<!-- Generator: Adobe Illustrator 16.0.3, SVG Export Plug-In . SVG Version: 6.00 Build 0)  -->
<!DOCTYPE svg PUBLIC "-//W3C//DTD SVG 1.1//EN" "http://www.w3.org/Graphics/SVG/1.1/DTD/svg11.dtd">
<svg version="1.1" id="Layer_1" xmlns="http://www.w3.org/2000/svg" xmlns:xlink="http://www.w3.org/1999/xlink" x="0px" y="0px"
	 width="1280px" height="1280px" viewBox="0 0 1280 1280" enable-background="new 0 0 1280 1280" xml:space="preserve">
<g>
	<path fill="#ED6B21" d="M280,424v504c0,39.587,32.396,72,72,72h504v-72H352V424H280z"/>
	<path fill="#ED6B21" d="M928,280H496c-39.604,0-72,32.397-72,72v432c0,39.587,32.396,72,72,72h432c39.587,0,72-32.413,72-72V352
		C1000,312.397,967.587,280,928,280z M892,604H748v144h-72V604H532v-72h144V388h72v144h144V604z"/>
</g>
</svg>
