<?xml version="1.0" encoding="utf-8"?>
<!-- Generator: Adobe Illustrator 16.0.3, SVG Export Plug-In . SVG Version: 6.00 Build 0)  -->
<!DOCTYPE svg PUBLIC "-//W3C//DTD SVG 1.1//EN" "http://www.w3.org/Graphics/SVG/1.1/DTD/svg11.dtd">
<svg version="1.1" id="Layer_1" xmlns="http://www.w3.org/2000/svg" xmlns:xlink="http://www.w3.org/1999/xlink" x="0px" y="0px"
	 width="1280px" height="1280px" viewBox="0 0 1280 1280" enable-background="new 0 0 1280 1280" xml:space="preserve">
<g>
	<path fill="#ED6B21" d="M20,20v1240h1240V20H20z M856,1000H352c-39.603027,0-72-32.413086-72-72V424h72v504h504V1000z M1000,784
		c0,39.586914-32.413086,72-72,72H496c-39.603027,0-72-32.413086-72-72V352c0-39.603027,32.396973-72,72-72h432
		c39.586914,0,72,32.396973,72,72V784z"/>
	<polygon fill="#ED6B21" points="748,388 676,388 676,532 532,532 532,604 676,604 676,748 748,748 748,604 892,604 892,532 
		748,532 	"/>
</g>
</svg>
