<?xml version="1.0" encoding="utf-8"?>
<!-- Generator: Adobe Illustrator 16.0.3, SVG Export Plug-In . SVG Version: 6.00 Build 0)  -->
<!DOCTYPE svg PUBLIC "-//W3C//DTD SVG 1.1//EN" "http://www.w3.org/Graphics/SVG/1.1/DTD/svg11.dtd">
<svg version="1.1" id="Layer_1" xmlns="http://www.w3.org/2000/svg" xmlns:xlink="http://www.w3.org/1999/xlink" x="0px" y="0px"
	 width="1280px" height="1280px" viewBox="0 0 1280 1280" enable-background="new 0 0 1280 1280" xml:space="preserve">
<g>
	<path fill="#ED6B21" d="M970,612.5H310c-30.374023,0-55,24.625977-55,55v110h770v-110C1025,637.125977,1000.400391,612.5,970,612.5
		z M832.5,722.5h-495c-15.201172,0-27.5-12.298828-27.5-27.5s12.298828-27.5,27.5-27.5h495c15.201172,0,27.5,12.298828,27.5,27.5
		S847.701172,722.5,832.5,722.5z"/>
	<path fill="#ED6B21" d="M997.5,282.5h-715c-15.201172,0-27.5,12.298828-27.5,27.5v110c0,15.201172,12.298828,27.5,27.5,27.5h715
		c15.201172,0,27.5-12.298828,27.5-27.5V310C1025,294.798828,1012.701172,282.5,997.5,282.5z M502.5,392.5h-165
		c-15.201172,0-27.5-12.298828-27.5-27.5s12.298828-27.5,27.5-27.5h165c15.201172,0,27.5,12.298828,27.5,27.5
		S517.701172,392.5,502.5,392.5z M946.529297,360.970703l-21.808594,21.808594c-5.316406,5.371094-14.017578,5.371094-19.441406,0
		l-21.808594-21.808594c-5.371094-5.342773-5.371094-14.070313,0-19.441406c2.578125-2.578125,6.070313-4.029297,9.722656-4.029297
		h43.613281c7.574219,0,13.75,6.123047,13.75,13.723633C950.556641,354.902344,949.107422,358.392578,946.529297,360.970703z"/>
	<path fill="#ED6B21" d="M255,942.5c0,30.400391,24.625977,55,55,55h660c30.400391,0,55-24.599609,55-55v-110H255V942.5z
		 M337.5,887.5h330c15.201172,0,27.5,12.298828,27.5,27.5s-12.298828,27.5-27.5,27.5h-330c-15.201172,0-27.5-12.298828-27.5-27.5
		S322.298828,887.5,337.5,887.5z"/>
	<path fill="#ED6B21" d="M20,20v1240h1240V20H20z M1080,942.5c0,60.748047-49.251953,110-110,110H310
		c-60.748047,0-110-49.251953-110-110v-275c0-60.748047,49.251953-110,110-110h660c60.748047,0,110,49.251953,110,110V942.5z
		 M1080,420c0,45.546875-36.953125,82.5-82.5,82.5h-715c-45.573242,0-82.5-36.953125-82.5-82.5V310
		c0-45.546875,36.926758-82.5,82.5-82.5h715c45.546875,0,82.5,36.953125,82.5,82.5V420z"/>
</g>
</svg>
