<?xml version="1.0" encoding="utf-8"?>
<!-- Generator: Adobe Illustrator 16.0.3, SVG Export Plug-In . SVG Version: 6.00 Build 0)  -->
<!DOCTYPE svg PUBLIC "-//W3C//DTD SVG 1.1//EN" "http://www.w3.org/Graphics/SVG/1.1/DTD/svg11.dtd">
<svg version="1.1" id="Layer_1" xmlns="http://www.w3.org/2000/svg" xmlns:xlink="http://www.w3.org/1999/xlink" x="0px" y="0px"
	 width="1280px" height="1280px" viewBox="0 0 1280 1280" enable-background="new 0 0 1280 1280" xml:space="preserve">
<g>
	<path fill="#ED6B21" d="M337.5,942.5h330c15.201,0,27.5-12.299,27.5-27.5s-12.299-27.5-27.5-27.5h-330
		c-15.201,0-27.5,12.299-27.5,27.5S322.299,942.5,337.5,942.5z"/>
	<path fill="#ED6B21" d="M970,1052.5c60.748,0,110-49.252,110-110v-275c0-60.748-49.252-110-110-110H310
		c-60.748,0-110,49.252-110,110v275c0,60.748,49.252,110,110,110H970z M255,667.5c0-30.374,24.626-55,55-55h660
		c30.4,0,55,24.626,55,55v110H255V667.5z M255,942.5v-110h770v110c0,30.4-24.6,55-55,55H310C279.626,997.5,255,972.9,255,942.5z"/>
	<path fill="#ED6B21" d="M832.5,667.5h-495c-15.201,0-27.5,12.299-27.5,27.5s12.299,27.5,27.5,27.5h495
		c15.201,0,27.5-12.299,27.5-27.5S847.701,667.5,832.5,667.5z"/>
	<path fill="#ED6B21" d="M502.5,337.5h-165c-15.201,0-27.5,12.299-27.5,27.5s12.299,27.5,27.5,27.5h165
		c15.201,0,27.5-12.299,27.5-27.5S517.701,337.5,502.5,337.5z"/>
	<path fill="#ED6B21" d="M936.807,337.5h-43.613c-3.652,0-7.145,1.451-9.723,4.029c-5.371,5.371-5.371,14.099,0,19.441
		l21.809,21.809c5.424,5.371,14.125,5.371,19.441,0l21.809-21.809c2.578-2.578,4.027-6.068,4.027-9.747
		C950.557,343.623,944.381,337.5,936.807,337.5z"/>
	<path fill="#ED6B21" d="M997.5,227.5h-715c-45.573,0-82.5,36.953-82.5,82.5v110c0,45.547,36.927,82.5,82.5,82.5h715
		c45.547,0,82.5-36.953,82.5-82.5V310C1080,264.453,1043.047,227.5,997.5,227.5z M1025,420c0,15.201-12.299,27.5-27.5,27.5h-715
		c-15.201,0-27.5-12.299-27.5-27.5V310c0-15.201,12.299-27.5,27.5-27.5h715c15.201,0,27.5,12.299,27.5,27.5V420z"/>
</g>
</svg>
