<?xml version="1.0" encoding="utf-8"?>
<!-- Generator: Adobe Illustrator 16.0.3, SVG Export Plug-In . SVG Version: 6.00 Build 0)  -->
<!DOCTYPE svg PUBLIC "-//W3C//DTD SVG 1.1//EN" "http://www.w3.org/Graphics/SVG/1.1/DTD/svg11.dtd">
<svg version="1.1" id="Layer_1" xmlns="http://www.w3.org/2000/svg" xmlns:xlink="http://www.w3.org/1999/xlink" x="0px" y="0px"
	 width="1280px" height="1280px" viewBox="0 0 1280 1280" enable-background="new 0 0 1280 1280" xml:space="preserve">
<g>
	<polygon fill="#ED6B21" points="532,712 892,712 712,532 	"/>
	<path fill="#ED6B21" d="M20,20v1240h1240V20H20z M352,856h-72V352c0-39.603027,32.413086-72,72-72h504v72H352V856z M1000,928
		c0,39.586914-32.396484,72-72,72H496c-39.586914,0-72-32.413086-72-72V496c0-39.603027,32.413086-72,72-72h432
		c39.603516,0,72,32.396973,72,72V928z"/>
</g>
</svg>
