<?xml version="1.0" encoding="utf-8"?>
<!-- Generator: Adobe Illustrator 16.0.3, SVG Export Plug-In . SVG Version: 6.00 Build 0)  -->
<!DOCTYPE svg PUBLIC "-//W3C//DTD SVG 1.1//EN" "http://www.w3.org/Graphics/SVG/1.1/DTD/svg11.dtd">
<svg version="1.1" id="Layer_1" xmlns="http://www.w3.org/2000/svg" xmlns:xlink="http://www.w3.org/1999/xlink" x="0px" y="0px"
	 width="1280px" height="1280px" viewBox="0 0 1280 1280" enable-background="new 0 0 1280 1280" xml:space="preserve">
<g>
	<polygon fill="#ED6B21" points="498.829102,804.804688 555.197266,861.210938 640.000977,776.40625 724.805664,861.210938 
		781.171875,804.804688 696.40625,719.999023 781.171875,635.194336 724.805664,578.788574 640.000977,663.592773 
		554.804688,578.788574 498.399414,635.194336 583.59375,719.999023 	"/>
	<path fill="#ED6B21" d="M20,20v1240h1240V20H20z M880.000977,919.999023C880.000977,963.983398,843.984375,1000,800,1000H480
		c-43.983398,0-79.999023-36.016602-79.999023-80.000977V439.999512h480V919.999023z M920,400H360v-80.000488h140.000977L540,280
		h200l40,39.999512h140V400z"/>
</g>
</svg>
