<?xml version="1.0" encoding="utf-8"?>
<!-- Generator: Adobe Illustrator 16.0.3, SVG Export Plug-In . SVG Version: 6.00 Build 0)  -->
<!DOCTYPE svg PUBLIC "-//W3C//DTD SVG 1.1//EN" "http://www.w3.org/Graphics/SVG/1.1/DTD/svg11.dtd">
<svg version="1.1" id="Layer_1" xmlns="http://www.w3.org/2000/svg" xmlns:xlink="http://www.w3.org/1999/xlink" x="0px" y="0px"
	 width="1280px" height="1280px" viewBox="0 0 1280 1280" enable-background="new 0 0 1280 1280" xml:space="preserve">
<g>
	<path fill="#ED6B21" d="M800,1000c43.984,0,80.001-36.017,80.001-80.001V440h-480v479.999c0,43.984,36.016,80.001,79.999,80.001
		H800z M554.805,578.789l85.196,84.804l84.805-84.804l56.366,56.405l-84.766,84.805l84.766,84.806l-56.366,56.406l-84.805-84.805
		l-84.804,84.805l-56.368-56.406l84.765-84.806l-85.194-84.805L554.805,578.789z"/>
	<polygon fill="#ED6B21" points="740,280 540,280 500.001,320 360,320 360,400 920,400 920,320 780,320 	"/>
</g>
</svg>
