<?xml version="1.0" encoding="utf-8"?>
<!-- Generator: Adobe Illustrator 16.0.3, SVG Export Plug-In . SVG Version: 6.00 Build 0)  -->
<!DOCTYPE svg PUBLIC "-//W3C//DTD SVG 1.1//EN" "http://www.w3.org/Graphics/SVG/1.1/DTD/svg11.dtd">
<svg version="1.1" id="Layer_1" xmlns="http://www.w3.org/2000/svg" xmlns:xlink="http://www.w3.org/1999/xlink" x="0px" y="0px"
	 width="1280px" height="1280px" viewBox="0 0 1280 1280" enable-background="new 0 0 1280 1280" xml:space="preserve">
<g>
	<path fill="#ED6B21" d="M640,983.75c18.632813,0,33.75-15.117188,33.75-33.75s-15.117188-33.75-33.75-33.75
		c-18.5625,0-33.75,15.046875-33.75,33.75S621.367188,983.75,640,983.75z"/>
	<path fill="#ED6B21" d="M20,20v1240h1240V20H20z M910,770c0,49.75293-40.24707,90-90,90h-90v90c0,49.75293-40.24707,90-90,90
		s-90-40.24707-90-90v-90h-90c-49.75293,0-90-40.24707-90-90v-45h540V770z M910,680H370V365c0-24.77832,20.22168-45,45-45h45l45,90
		l45-90h45l45,90l45-90h180c24.75,0,45,20.22168,45,45V680z"/>
</g>
</svg>
