<?xml version="1.0" encoding="utf-8"?>
<!-- Generator: Adobe Illustrator 16.0.3, SVG Export Plug-In . SVG Version: 6.00 Build 0)  -->
<!DOCTYPE svg PUBLIC "-//W3C//DTD SVG 1.1//EN" "http://www.w3.org/Graphics/SVG/1.1/DTD/svg11.dtd">
<svg version="1.1" id="Layer_1" xmlns="http://www.w3.org/2000/svg" xmlns:xlink="http://www.w3.org/1999/xlink" x="0px" y="0px"
	 width="1280px" height="1280px" viewBox="0 0 1280 1280" enable-background="new 0 0 1280 1280" xml:space="preserve">
<g>
	<path fill="#ED6B21" d="M640,1040c49.753,0,90-40.247,90-90v-90h90c49.753,0,90-40.247,90-90v-45H370v45c0,49.753,40.247,90,90,90
		h90v90C550,999.753,590.247,1040,640,1040z M640,916.25c18.633,0,33.75,15.117,33.75,33.75s-15.117,33.75-33.75,33.75
		s-33.75-15.047-33.75-33.75S621.438,916.25,640,916.25z"/>
	<path fill="#ED6B21" d="M865,320H685l-45,90l-45-90h-45l-45,90l-45-90h-45c-24.778,0-45,20.222-45,45v315h540V365
		C910,340.222,889.75,320,865,320z"/>
</g>
</svg>
