<?xml version="1.0" encoding="utf-8"?>
<!-- Generator: Adobe Illustrator 16.0.3, SVG Export Plug-In . SVG Version: 6.00 Build 0)  -->
<!DOCTYPE svg PUBLIC "-//W3C//DTD SVG 1.1//EN" "http://www.w3.org/Graphics/SVG/1.1/DTD/svg11.dtd">
<svg version="1.1" id="Layer_1" xmlns="http://www.w3.org/2000/svg" xmlns:xlink="http://www.w3.org/1999/xlink" x="0px" y="0px"
	 width="1280px" height="1280px" viewBox="0 0 1280 1280" enable-background="new 0 0 1280 1280" xml:space="preserve">
<g>
	<path fill="#ED6B21" d="M20,20v1240h1240V20H20z M888.927734,961.854492
		c-137.452148,137.527344-360.381348,137.527344-497.889648,0c-137.490723-137.452148-137.490723-360.400391,0-497.890137
		L640.001465,215L888.96582,463.964355C1026.455078,601.454102,1026.455078,824.402344,888.927734,961.854492z"/>
	<path fill="#ED6B21" d="M640.001465,325.632813v0.038086L446.354492,519.280762
		c-51.419434,51.305176-80.282715,120.98584-80.186035,193.646973c-0.09668,72.660156,36.587891,140.555664,80.186035,169.620117
		c41.028809,27.350586,144.338867,39.120117,193.647949,39.120117c49.308105,0,152.620605-11.767578,193.645996-39.120117
		c43.59668-29.066406,80.263672-96.959961,80.1875-169.620117c0.076172-72.661133-28.767578-142.341797-80.1875-193.646973
		L640.001465,325.632813z M640,753.447266c-32.407715,0-58.680176-26.271484-58.680176-58.679688
		c0-32.407227,26.272461-58.679688,58.680176-58.679688c32.407227,0,58.679688,26.272461,58.679688,58.679688
		C698.679688,727.175781,672.407227,753.447266,640,753.447266z"/>
</g>
</svg>
