<?xml version="1.0" encoding="utf-8"?>
<!-- Generator: Adobe Illustrator 16.0.3, SVG Export Plug-In . SVG Version: 6.00 Build 0)  -->
<!DOCTYPE svg PUBLIC "-//W3C//DTD SVG 1.1//EN" "http://www.w3.org/Graphics/SVG/1.1/DTD/svg11.dtd">
<svg version="1.1" id="Layer_1" xmlns="http://www.w3.org/2000/svg" xmlns:xlink="http://www.w3.org/1999/xlink" x="0px" y="0px"
	 width="1280px" height="1280px" viewBox="0 0 1280 1280" enable-background="new 0 0 1280 1280" xml:space="preserve">
<g>
	<circle fill="#ED6B21" cx="640" cy="694.768" r="58.68"/>
	<path fill="#ED6B21" d="M640.002,215L391.038,463.965c-137.491,137.489-137.491,360.438,0,497.89
		c137.509,137.527,360.438,137.527,497.89,0c137.527-137.452,137.527-360.4,0.038-497.89L640.002,215z M833.648,882.548
		c-41.025,27.353-144.338,39.12-193.646,39.12s-152.619-11.77-193.647-39.12c-43.599-29.064-80.282-96.96-80.187-169.62
		c-0.096-72.661,28.768-142.342,80.187-193.646l193.647-193.61v-0.038l193.646,193.648c51.42,51.305,80.264,120.985,80.188,193.646
		C913.912,785.588,877.245,853.481,833.648,882.548z"/>
</g>
</svg>
