<svg id="svg" version="1.1" xmlns="http://www.w3.org/2000/svg" xmlns:xlink="http://www.w3.org/1999/xlink" width="400" height="400" viewBox="0, 0, 400,400"><g id="svgg"><path id="path0" d="M317.733 56.747 C 315.844 57.404,314.030 58.737,312.833 60.348 C 311.646 61.947,261.019 151.025,258.964 155.130 C 241.373 190.282,253.878 234.778,287.101 255.252 C 291.640 258.049,320.269 274.197,321.928 274.895 C 325.904 276.569,331.088 275.450,333.912 272.307 C 336.969 268.907,342.945 257.210,343.140 254.245 C 343.524 248.412,341.678 246.356,330.244 239.886 C 303.866 224.961,298.660 220.608,292.906 208.667 C 288.829 200.206,287.353 192.658,288.002 183.600 C 288.745 173.232,288.726 173.270,320.323 117.634 C 345.258 73.728,343.325 77.476,343.305 73.067 C 343.280 67.808,341.803 66.100,332.862 60.997 C 324.353 56.139,321.660 55.383,317.733 56.747 " stroke="none" fill="#fcc40c" fill-rule="evenodd"></path><path id="path1" d="M70.467 56.834 C 69.843 56.979,69.333 57.218,69.333 57.365 C 69.333 57.511,69.203 57.551,69.045 57.453 C 68.327 57.009,63.721 61.200,64.155 61.902 C 64.234 62.029,64.174 62.133,64.023 62.133 C 63.677 62.133,62.896 63.607,63.122 63.833 C 63.214 63.925,63.152 64.000,62.985 64.000 C 62.618 64.000,61.818 65.463,62.055 65.700 C 62.147 65.791,62.085 65.867,61.918 65.867 C 61.582 65.867,60.661 67.464,60.993 67.471 C 61.107 67.473,61.063 67.563,60.896 67.671 C 60.489 67.933,58.578 71.217,58.578 71.654 C 58.578 71.844,58.480 72.000,58.361 72.000 C 58.105 72.000,57.099 73.903,56.992 74.590 C 56.951 74.852,56.817 75.229,56.693 75.428 C 56.473 75.780,56.219 77.593,56.200 78.933 C 56.168 81.253,57.113 83.946,58.351 85.067 C 58.756 85.433,58.903 85.629,58.677 85.502 C 58.451 85.375,58.848 85.825,59.559 86.502 C 60.270 87.179,60.947 87.674,61.064 87.601 C 61.182 87.529,61.349 87.657,61.437 87.885 C 61.525 88.114,61.717 88.226,61.865 88.134 C 62.012 88.043,62.133 88.103,62.133 88.267 C 62.133 88.431,62.253 88.491,62.400 88.400 C 62.547 88.309,62.667 88.359,62.667 88.511 C 62.667 88.857,64.140 89.638,64.366 89.412 C 64.458 89.320,64.533 89.381,64.533 89.549 C 64.533 89.915,65.996 90.715,66.233 90.478 C 66.325 90.386,66.400 90.448,66.400 90.615 C 66.400 90.982,67.863 91.782,68.100 91.545 C 68.191 91.453,68.267 91.515,68.267 91.682 C 68.267 92.049,69.729 92.849,69.966 92.612 C 70.058 92.520,70.133 92.581,70.133 92.749 C 70.133 93.115,71.596 93.915,71.833 93.678 C 71.925 93.586,72.000 93.671,72.000 93.867 C 72.000 94.062,72.070 94.152,72.156 94.067 C 72.241 93.981,72.545 94.145,72.832 94.432 C 73.118 94.718,73.468 94.881,73.610 94.794 C 73.751 94.707,73.867 94.769,73.867 94.933 C 73.867 95.097,73.987 95.157,74.133 95.067 C 74.280 94.976,74.400 95.026,74.400 95.177 C 74.400 95.523,75.873 96.304,76.100 96.078 C 76.191 95.986,76.267 96.048,76.267 96.215 C 76.267 96.582,77.729 97.382,77.966 97.145 C 78.058 97.053,78.133 97.115,78.133 97.282 C 78.133 97.649,79.596 98.449,79.833 98.212 C 79.925 98.120,80.000 98.181,80.000 98.349 C 80.000 98.715,81.463 99.515,81.700 99.278 C 81.791 99.186,81.867 99.248,81.867 99.415 C 81.867 99.782,83.329 100.582,83.566 100.345 C 83.658 100.253,83.733 100.338,83.733 100.533 C 83.733 100.729,83.803 100.819,83.889 100.733 C 83.974 100.648,84.279 100.812,84.565 101.099 C 84.852 101.385,85.202 101.548,85.343 101.461 C 85.484 101.373,85.600 101.436,85.600 101.600 C 85.600 101.764,85.720 101.824,85.867 101.733 C 86.013 101.643,86.133 101.693,86.133 101.844 C 86.133 102.190,87.607 102.971,87.833 102.745 C 87.925 102.653,88.000 102.715,88.000 102.882 C 88.000 103.249,89.463 104.049,89.700 103.812 C 89.791 103.720,89.867 103.781,89.867 103.949 C 89.867 104.315,91.329 105.115,91.566 104.878 C 91.658 104.786,91.733 104.848,91.733 105.015 C 91.733 105.382,93.196 106.182,93.433 105.945 C 93.525 105.853,93.600 105.915,93.600 106.082 C 93.600 106.449,95.063 107.249,95.300 107.012 C 95.391 106.920,95.467 107.004,95.467 107.200 C 95.467 107.396,95.537 107.486,95.622 107.400 C 95.708 107.314,96.012 107.479,96.299 107.765 C 96.585 108.052,96.935 108.215,97.076 108.127 C 97.218 108.040,97.333 108.103,97.333 108.267 C 97.333 108.431,97.453 108.491,97.600 108.400 C 97.747 108.309,97.867 108.359,97.867 108.511 C 97.867 108.857,99.340 109.638,99.566 109.412 C 99.658 109.320,99.733 109.381,99.733 109.549 C 99.733 109.915,101.196 110.715,101.433 110.478 C 101.525 110.386,101.600 110.448,101.600 110.615 C 101.600 110.982,103.063 111.782,103.300 111.545 C 103.391 111.453,103.467 111.515,103.467 111.682 C 103.467 112.049,104.929 112.849,105.166 112.612 C 105.258 112.520,105.333 112.581,105.333 112.749 C 105.333 113.115,106.796 113.915,107.033 113.678 C 107.125 113.586,107.200 113.671,107.200 113.867 C 107.200 114.062,107.270 114.152,107.356 114.067 C 107.441 113.981,107.745 114.145,108.032 114.432 C 108.318 114.718,108.668 114.881,108.810 114.794 C 108.951 114.707,109.067 114.769,109.067 114.933 C 109.067 115.097,109.187 115.157,109.333 115.067 C 109.480 114.976,109.600 115.026,109.600 115.177 C 109.600 115.523,111.073 116.304,111.300 116.078 C 111.391 115.986,111.467 116.048,111.467 116.215 C 111.467 116.582,112.929 117.382,113.166 117.145 C 113.258 117.053,113.333 117.115,113.333 117.282 C 113.333 117.649,114.796 118.449,115.033 118.212 C 115.125 118.120,115.200 118.181,115.200 118.349 C 115.200 118.715,116.663 119.515,116.900 119.278 C 116.991 119.186,117.067 119.248,117.067 119.415 C 117.067 119.782,118.529 120.582,118.766 120.345 C 118.858 120.253,118.933 120.325,118.933 120.505 C 118.933 120.684,119.053 120.757,119.200 120.667 C 119.347 120.576,119.467 120.626,119.467 120.777 C 119.467 121.123,120.940 121.904,121.166 121.678 C 121.258 121.586,121.333 121.648,121.333 121.815 C 121.333 122.182,122.796 122.982,123.033 122.745 C 123.125 122.653,123.200 122.715,123.200 122.882 C 123.200 123.249,124.663 124.049,124.900 123.812 C 124.991 123.720,125.067 123.781,125.067 123.949 C 125.067 124.315,126.529 125.115,126.766 124.878 C 126.858 124.786,126.933 124.848,126.933 125.015 C 126.933 125.382,128.396 126.182,128.633 125.945 C 128.725 125.853,128.800 125.915,128.800 126.082 C 128.800 126.449,130.263 127.249,130.500 127.012 C 130.591 126.920,130.667 126.992,130.667 127.171 C 130.667 127.351,130.787 127.424,130.933 127.333 C 131.080 127.243,131.200 127.293,131.200 127.444 C 131.200 127.790,132.673 128.571,132.900 128.345 C 132.991 128.253,133.067 128.315,133.067 128.482 C 133.067 128.849,134.529 129.649,134.766 129.412 C 134.858 129.320,134.933 129.381,134.933 129.549 C 134.933 129.915,136.396 130.715,136.633 130.478 C 136.725 130.386,136.800 130.448,136.800 130.615 C 136.800 130.982,138.263 131.782,138.500 131.545 C 138.591 131.453,138.667 131.515,138.667 131.682 C 138.667 132.049,140.129 132.849,140.366 132.612 C 140.458 132.520,140.533 132.604,140.533 132.800 C 140.533 132.996,140.603 133.086,140.689 133.000 C 140.774 132.914,141.079 133.079,141.365 133.365 C 141.652 133.652,142.002 133.815,142.143 133.727 C 142.284 133.640,142.400 133.703,142.400 133.867 C 142.400 134.031,142.520 134.091,142.667 134.000 C 142.813 133.909,142.933 133.959,142.933 134.111 C 142.933 134.457,144.407 135.238,144.633 135.012 C 144.725 134.920,144.800 134.981,144.800 135.149 C 144.800 135.515,146.263 136.315,146.500 136.078 C 146.591 135.986,146.667 136.048,146.667 136.215 C 146.667 136.582,148.129 137.382,148.366 137.145 C 148.458 137.053,148.533 137.115,148.533 137.282 C 148.533 137.649,149.996 138.449,150.233 138.212 C 150.325 138.120,150.400 138.182,150.400 138.350 C 150.400 138.716,152.395 139.782,152.634 139.544 C 152.725 139.453,152.800 139.525,152.800 139.705 C 152.800 139.884,152.920 139.957,153.067 139.867 C 153.213 139.776,153.333 139.836,153.333 140.000 C 153.333 140.164,153.453 140.224,153.600 140.133 C 153.747 140.043,153.867 140.103,153.867 140.267 C 153.867 140.431,153.987 140.491,154.133 140.400 C 154.280 140.309,154.400 140.369,154.400 140.533 C 154.400 140.697,154.520 140.757,154.667 140.667 C 154.813 140.576,154.933 140.636,154.933 140.800 C 154.933 140.964,155.053 141.024,155.200 140.933 C 155.347 140.843,155.467 140.903,155.467 141.067 C 155.467 141.231,155.587 141.291,155.733 141.200 C 155.880 141.109,156.000 141.169,156.000 141.333 C 156.000 141.497,156.120 141.557,156.267 141.467 C 156.413 141.376,156.533 141.436,156.533 141.600 C 156.533 141.764,156.653 141.824,156.800 141.733 C 156.947 141.643,157.067 141.681,157.067 141.819 C 157.067 142.059,158.110 142.567,158.927 142.724 C 159.143 142.766,159.487 142.955,159.691 143.145 C 159.895 143.335,160.197 143.445,160.362 143.390 C 160.527 143.335,160.828 143.457,161.032 143.661 C 161.236 143.864,161.567 143.968,161.768 143.890 C 161.969 143.813,162.133 143.840,162.133 143.950 C 162.133 144.225,163.758 144.816,164.039 144.643 C 164.164 144.565,164.267 144.642,164.267 144.813 C 164.267 144.984,164.447 145.055,164.667 144.970 C 164.887 144.886,165.067 144.946,165.067 145.104 C 165.067 145.261,165.247 145.321,165.467 145.237 C 165.687 145.152,165.867 145.212,165.867 145.370 C 165.867 145.528,166.047 145.588,166.267 145.504 C 166.487 145.419,166.667 145.444,166.667 145.558 C 166.667 145.753,168.981 146.451,169.871 146.525 C 170.094 146.543,170.432 146.655,170.622 146.773 C 170.813 146.890,171.040 146.916,171.127 146.829 C 171.213 146.742,171.433 146.795,171.615 146.946 C 171.797 147.097,172.348 147.262,172.840 147.313 C 173.331 147.364,173.913 147.469,174.133 147.547 C 174.353 147.625,174.713 147.699,174.933 147.712 C 175.153 147.725,175.693 147.798,176.133 147.876 C 180.561 148.651,184.085 148.928,189.333 148.915 C 193.211 148.905,195.072 148.809,198.667 148.435 C 199.180 148.381,200.367 148.258,201.304 148.161 C 202.242 148.064,203.138 147.905,203.295 147.808 C 203.452 147.711,204.000 147.589,204.512 147.536 C 205.024 147.483,205.580 147.327,205.746 147.189 C 205.913 147.051,206.125 147.014,206.218 147.107 C 206.311 147.200,206.551 147.140,206.751 146.974 C 206.952 146.807,207.187 146.742,207.273 146.829 C 207.360 146.916,207.584 146.892,207.770 146.777 C 207.957 146.662,208.430 146.533,208.822 146.490 C 209.214 146.447,209.879 146.272,210.301 146.101 C 210.722 145.931,211.247 145.769,211.467 145.743 C 212.246 145.648,216.401 144.184,216.484 143.975 C 216.530 143.859,216.740 143.829,216.951 143.910 C 217.161 143.991,217.333 143.950,217.333 143.819 C 217.333 143.687,217.602 143.560,217.929 143.535 C 218.257 143.511,218.565 143.372,218.613 143.227 C 218.662 143.082,218.858 143.023,219.050 143.097 C 219.241 143.171,219.593 143.035,219.832 142.796 C 220.071 142.557,220.267 142.424,220.267 142.500 C 220.267 142.577,220.627 142.513,221.067 142.360 C 221.507 142.207,221.867 141.966,221.867 141.825 C 221.867 141.684,221.987 141.643,222.133 141.733 C 222.280 141.824,222.400 141.764,222.400 141.600 C 222.400 141.436,222.504 141.366,222.632 141.445 C 222.954 141.644,227.733 139.285,227.733 138.926 C 227.733 138.766,227.853 138.709,228.000 138.800 C 228.147 138.891,228.267 138.831,228.267 138.667 C 228.267 138.503,228.382 138.440,228.524 138.527 C 228.665 138.615,229.005 138.472,229.279 138.210 C 229.553 137.948,229.948 137.697,230.156 137.652 C 230.363 137.607,230.654 137.427,230.801 137.252 C 230.948 137.077,231.226 136.901,231.418 136.861 C 232.106 136.719,235.194 134.482,234.999 134.267 C 234.890 134.147,234.926 134.119,235.080 134.207 C 235.411 134.395,239.897 131.015,239.800 130.650 C 239.763 130.513,239.823 130.430,239.933 130.466 C 240.195 130.552,242.134 129.069,242.058 128.841 C 242.026 128.745,242.120 128.634,242.267 128.593 C 242.711 128.471,246.116 124.987,245.990 124.784 C 245.925 124.679,246.081 124.430,246.336 124.230 C 246.756 123.901,246.765 123.911,246.434 124.333 C 245.593 125.405,246.397 124.686,247.611 123.279 C 248.333 122.443,248.778 121.849,248.600 121.959 C 248.422 122.069,248.880 121.539,249.618 120.781 C 250.356 120.024,250.899 119.343,250.824 119.269 C 250.750 119.195,250.954 118.913,251.278 118.642 C 251.602 118.372,251.763 118.147,251.637 118.142 C 251.511 118.137,251.691 117.884,252.037 117.580 C 252.383 117.275,252.487 117.104,252.267 117.199 C 252.047 117.295,252.107 117.176,252.400 116.934 C 252.693 116.693,252.903 116.384,252.867 116.248 C 252.830 116.112,252.912 116.000,253.049 116.000 C 253.340 116.000,254.331 114.668,254.451 114.116 C 254.496 113.906,254.713 113.589,254.933 113.409 C 255.153 113.230,255.243 113.080,255.133 113.075 C 255.023 113.070,255.178 112.822,255.476 112.524 C 255.775 112.225,255.948 111.865,255.861 111.724 C 255.773 111.582,255.826 111.467,255.977 111.467 C 256.323 111.467,257.104 109.993,256.878 109.767 C 256.786 109.675,256.848 109.600,257.015 109.600 C 257.382 109.600,258.182 108.137,257.945 107.900 C 257.853 107.809,257.915 107.733,258.082 107.733 C 258.449 107.733,259.249 106.271,259.012 106.034 C 258.920 105.942,258.981 105.867,259.149 105.867 C 259.515 105.867,260.315 104.404,260.078 104.167 C 259.986 104.075,260.036 104.000,260.188 104.000 C 260.492 104.000,263.542 98.739,263.550 98.200 C 263.553 98.017,263.652 97.867,263.771 97.867 C 264.074 97.867,264.814 96.370,264.612 96.167 C 264.520 96.075,264.581 96.000,264.749 96.000 C 265.115 96.000,265.915 94.537,265.678 94.300 C 265.586 94.209,265.648 94.133,265.815 94.133 C 266.182 94.133,266.982 92.671,266.745 92.434 C 266.653 92.342,266.703 92.267,266.855 92.267 C 267.159 92.267,270.208 87.005,270.217 86.467 C 270.220 86.283,270.319 86.133,270.438 86.133 C 270.741 86.133,271.481 84.637,271.278 84.434 C 271.186 84.342,271.248 84.267,271.415 84.267 C 271.782 84.267,272.582 82.804,272.345 82.567 C 272.253 82.475,272.315 82.400,272.482 82.400 C 272.849 82.400,273.649 80.937,273.412 80.700 C 273.320 80.609,273.362 80.533,273.506 80.533 C 273.879 80.533,275.000 78.456,274.801 78.134 C 274.710 77.987,274.775 77.867,274.946 77.867 C 275.117 77.867,275.189 77.691,275.107 77.475 C 275.024 77.260,275.080 77.008,275.230 76.915 C 275.380 76.822,275.440 76.582,275.363 76.382 C 275.286 76.181,275.317 75.959,275.430 75.889 C 275.599 75.785,275.647 71.867,275.480 71.867 C 275.452 71.867,275.383 71.508,275.326 71.070 C 275.270 70.633,275.105 70.235,274.960 70.187 C 274.815 70.138,274.759 69.936,274.836 69.737 C 274.912 69.538,274.755 69.145,274.487 68.865 C 274.219 68.585,273.962 68.186,273.915 67.978 C 273.716 67.097,270.308 64.127,269.833 64.421 C 269.705 64.500,269.600 64.441,269.600 64.289 C 269.600 63.943,268.127 63.162,267.900 63.388 C 267.809 63.480,267.733 63.419,267.733 63.251 C 267.733 62.885,266.271 62.085,266.034 62.322 C 265.942 62.414,265.867 62.329,265.867 62.133 C 265.867 61.938,265.797 61.848,265.711 61.933 C 265.626 62.019,265.321 61.855,265.035 61.568 C 264.748 61.282,264.398 61.119,264.257 61.206 C 264.116 61.293,264.000 61.231,264.000 61.067 C 264.000 60.903,263.880 60.843,263.733 60.933 C 263.587 61.024,263.467 60.974,263.467 60.823 C 263.467 60.477,261.993 59.696,261.767 59.922 C 261.675 60.014,261.600 59.952,261.600 59.785 C 261.600 59.418,260.137 58.618,259.900 58.855 C 259.809 58.947,259.733 58.875,259.733 58.695 C 259.733 58.516,259.613 58.443,259.467 58.533 C 259.320 58.624,259.200 58.564,259.200 58.400 C 259.200 58.236,259.080 58.176,258.933 58.267 C 258.787 58.357,258.667 58.284,258.667 58.105 C 258.667 57.925,258.592 57.852,258.502 57.943 C 258.411 58.034,258.155 57.927,257.934 57.705 C 257.712 57.484,257.374 57.363,257.183 57.436 C 256.991 57.510,256.790 57.437,256.736 57.274 C 256.589 56.834,250.612 56.830,250.465 57.271 C 250.404 57.454,250.244 57.535,250.110 57.452 C 249.036 56.789,242.971 62.449,243.624 63.506 C 243.701 63.631,243.641 63.733,243.489 63.733 C 243.143 63.733,242.362 65.207,242.588 65.433 C 242.680 65.525,242.619 65.600,242.451 65.600 C 242.116 65.600,241.195 67.198,241.526 67.204 C 241.640 67.206,241.597 67.296,241.429 67.404 C 241.022 67.667,239.111 70.950,239.111 71.387 C 239.111 71.578,239.014 71.733,238.896 71.733 C 238.593 71.733,237.852 73.230,238.055 73.433 C 238.147 73.525,238.085 73.600,237.918 73.600 C 237.551 73.600,236.751 75.063,236.988 75.300 C 237.080 75.391,237.019 75.467,236.851 75.467 C 236.485 75.467,235.685 76.929,235.922 77.166 C 236.014 77.258,235.952 77.333,235.785 77.333 C 235.418 77.333,234.618 78.796,234.855 79.033 C 234.947 79.125,234.885 79.200,234.718 79.200 C 234.326 79.200,233.562 80.667,233.811 80.942 C 233.915 81.058,233.859 81.071,233.686 80.972 C 233.410 80.814,233.079 81.330,233.070 81.933 C 233.068 82.043,232.822 82.378,232.524 82.676 C 232.225 82.975,232.063 83.354,232.165 83.518 C 232.277 83.699,232.228 83.741,232.041 83.625 C 231.872 83.521,231.733 83.562,231.733 83.718 C 231.733 83.873,231.733 84.060,231.733 84.133 C 231.733 84.207,231.489 84.511,231.190 84.810 C 230.892 85.108,230.730 85.487,230.831 85.651 C 230.943 85.832,230.895 85.874,230.708 85.759 C 230.539 85.654,230.400 85.696,230.400 85.851 C 230.400 86.437,230.352 86.539,229.975 86.750 C 229.763 86.869,229.651 87.066,229.726 87.188 C 229.802 87.311,229.677 87.483,229.448 87.570 C 229.220 87.658,229.100 87.838,229.182 87.970 C 229.263 88.103,229.143 88.283,228.915 88.370 C 228.686 88.458,228.566 88.638,228.648 88.770 C 228.730 88.903,228.610 89.083,228.382 89.170 C 228.153 89.258,228.033 89.438,228.115 89.570 C 228.197 89.703,228.067 89.886,227.827 89.978 C 227.587 90.070,227.462 90.218,227.550 90.306 C 227.639 90.394,227.446 90.700,227.122 90.987 C 226.798 91.273,226.712 91.413,226.931 91.298 C 227.150 91.183,226.877 91.541,226.325 92.093 C 225.773 92.645,225.391 93.210,225.476 93.349 C 225.562 93.487,225.514 93.600,225.371 93.600 C 225.228 93.600,224.711 94.105,224.222 94.723 C 223.733 95.341,223.483 95.754,223.666 95.641 C 223.849 95.528,222.659 96.793,221.023 98.451 C 219.386 100.110,218.069 101.566,218.097 101.686 C 218.124 101.807,218.042 101.842,217.915 101.763 C 217.787 101.684,217.253 102.005,216.728 102.477 C 216.203 102.948,215.615 103.370,215.420 103.415 C 215.226 103.459,214.928 103.677,214.758 103.899 C 214.588 104.121,214.378 104.294,214.291 104.284 C 213.735 104.222,213.592 104.307,213.760 104.600 C 213.866 104.783,213.858 104.848,213.742 104.744 C 213.478 104.506,212.000 105.251,212.000 105.623 C 212.000 105.774,211.880 105.824,211.733 105.733 C 211.587 105.643,211.467 105.716,211.467 105.895 C 211.467 106.075,211.392 106.148,211.301 106.057 C 211.116 105.871,207.958 107.393,207.704 107.791 C 207.614 107.931,207.464 108.035,207.370 108.023 C 206.790 107.945,206.395 108.041,206.086 108.333 C 205.892 108.517,205.493 108.708,205.200 108.758 C 204.907 108.808,204.626 108.959,204.577 109.093 C 204.528 109.227,204.391 109.277,204.272 109.203 C 204.154 109.130,203.654 109.232,203.162 109.429 C 202.669 109.626,202.027 109.885,201.733 110.003 C 201.440 110.121,201.050 110.193,200.867 110.164 C 200.683 110.134,200.533 110.231,200.533 110.380 C 200.533 110.528,200.365 110.586,200.160 110.507 C 199.955 110.428,199.711 110.487,199.618 110.637 C 199.526 110.787,199.286 110.847,199.085 110.770 C 198.885 110.693,198.640 110.760,198.542 110.920 C 198.444 111.079,198.281 111.159,198.182 111.099 C 198.082 111.038,197.160 111.157,196.133 111.364 C 193.046 111.984,192.320 112.041,187.600 112.033 C 182.083 112.024,178.308 111.771,177.653 111.366 C 177.477 111.257,177.213 111.243,177.067 111.333 C 176.920 111.424,176.800 111.358,176.800 111.187 C 176.800 111.016,176.620 110.945,176.400 111.030 C 176.180 111.114,176.000 111.054,176.000 110.896 C 176.000 110.739,175.820 110.679,175.600 110.763 C 175.380 110.848,175.200 110.788,175.200 110.630 C 175.200 110.472,175.020 110.412,174.800 110.496 C 174.580 110.581,174.400 110.560,174.400 110.450 C 174.400 110.175,172.775 109.584,172.494 109.757 C 172.369 109.835,172.267 109.790,172.267 109.659 C 172.267 109.333,170.954 108.756,170.647 108.946 C 170.511 109.030,170.400 108.993,170.400 108.865 C 170.400 108.539,168.551 107.691,168.248 107.878 C 168.112 107.962,168.000 107.897,168.000 107.733 C 168.000 107.569,167.880 107.509,167.733 107.600 C 167.587 107.691,167.467 107.631,167.467 107.467 C 167.467 107.303,167.357 107.236,167.223 107.319 C 167.089 107.402,166.939 107.364,166.889 107.234 C 166.757 106.883,161.957 104.532,161.765 104.724 C 161.674 104.815,161.600 104.742,161.600 104.562 C 161.600 104.382,161.480 104.309,161.333 104.400 C 161.187 104.491,161.067 104.431,161.067 104.267 C 161.067 104.103,160.947 104.043,160.800 104.133 C 160.653 104.224,160.533 104.164,160.533 104.000 C 160.533 103.836,160.413 103.776,160.267 103.867 C 160.120 103.957,160.000 103.906,160.000 103.754 C 160.000 103.408,157.460 102.095,157.232 102.323 C 157.141 102.414,157.067 102.342,157.067 102.162 C 157.067 101.982,156.947 101.909,156.800 102.000 C 156.653 102.091,156.533 102.040,156.533 101.888 C 156.533 101.542,154.527 100.495,154.300 100.723 C 154.208 100.814,154.133 100.751,154.133 100.583 C 154.133 100.217,152.138 99.151,151.900 99.389 C 151.808 99.481,151.733 99.419,151.733 99.251 C 151.733 98.885,150.271 98.085,150.034 98.322 C 149.942 98.414,149.867 98.352,149.867 98.185 C 149.867 97.818,148.404 97.018,148.167 97.255 C 148.075 97.347,148.000 97.262,148.000 97.067 C 148.000 96.871,147.930 96.781,147.844 96.867 C 147.759 96.952,147.455 96.788,147.168 96.501 C 146.882 96.215,146.532 96.052,146.390 96.139 C 146.249 96.227,146.133 96.164,146.133 96.000 C 146.133 95.836,146.013 95.776,145.867 95.867 C 145.720 95.957,145.600 95.907,145.600 95.756 C 145.600 95.410,144.127 94.629,143.900 94.855 C 143.809 94.947,143.733 94.885,143.733 94.718 C 143.733 94.351,142.271 93.551,142.034 93.788 C 141.942 93.880,141.867 93.819,141.867 93.651 C 141.867 93.285,140.404 92.485,140.167 92.722 C 140.075 92.814,140.000 92.752,140.000 92.585 C 140.000 92.218,138.537 91.418,138.300 91.655 C 138.209 91.747,138.133 91.685,138.133 91.518 C 138.133 91.151,136.671 90.351,136.434 90.588 C 136.342 90.680,136.267 90.608,136.267 90.429 C 136.267 90.249,136.147 90.176,136.000 90.267 C 135.853 90.357,135.733 90.307,135.733 90.156 C 135.733 89.810,134.260 89.029,134.034 89.255 C 133.942 89.347,133.867 89.285,133.867 89.118 C 133.867 88.751,132.404 87.951,132.167 88.188 C 132.075 88.280,132.000 88.219,132.000 88.051 C 132.000 87.685,130.537 86.885,130.300 87.122 C 130.209 87.214,130.133 87.152,130.133 86.985 C 130.133 86.618,128.671 85.818,128.434 86.055 C 128.342 86.147,128.267 86.085,128.267 85.918 C 128.267 85.551,126.804 84.751,126.567 84.988 C 126.475 85.080,126.400 85.019,126.400 84.851 C 126.400 84.485,124.937 83.685,124.700 83.922 C 124.609 84.014,124.533 83.942,124.533 83.762 C 124.533 83.582,124.413 83.509,124.267 83.600 C 124.120 83.691,124.000 83.641,124.000 83.489 C 124.000 83.143,122.527 82.362,122.300 82.588 C 122.209 82.680,122.133 82.619,122.133 82.451 C 122.133 82.085,120.671 81.285,120.434 81.522 C 120.342 81.614,120.267 81.552,120.267 81.385 C 120.267 81.018,118.804 80.218,118.567 80.455 C 118.475 80.547,118.400 80.485,118.400 80.318 C 118.400 79.951,116.937 79.151,116.700 79.388 C 116.609 79.480,116.533 79.419,116.533 79.251 C 116.533 78.885,115.071 78.085,114.834 78.322 C 114.742 78.414,114.667 78.329,114.667 78.133 C 114.667 77.938,114.597 77.848,114.511 77.933 C 114.426 78.019,114.121 77.855,113.835 77.568 C 113.548 77.282,113.198 77.119,113.057 77.206 C 112.916 77.293,112.800 77.231,112.800 77.067 C 112.800 76.903,112.680 76.843,112.533 76.933 C 112.387 77.024,112.267 76.974,112.267 76.823 C 112.267 76.477,110.793 75.696,110.567 75.922 C 110.475 76.014,110.400 75.952,110.400 75.785 C 110.400 75.418,108.937 74.618,108.700 74.855 C 108.609 74.947,108.533 74.885,108.533 74.718 C 108.533 74.351,107.071 73.551,106.834 73.788 C 106.742 73.880,106.667 73.819,106.667 73.651 C 106.667 73.285,105.204 72.485,104.967 72.722 C 104.875 72.814,104.800 72.752,104.800 72.585 C 104.800 72.218,103.337 71.418,103.100 71.655 C 103.009 71.747,102.933 71.662,102.933 71.467 C 102.933 71.271,102.863 71.181,102.778 71.267 C 102.692 71.352,102.388 71.188,102.101 70.901 C 101.815 70.615,101.465 70.452,101.324 70.539 C 101.182 70.627,101.067 70.564,101.067 70.400 C 101.067 70.236,100.947 70.176,100.800 70.267 C 100.653 70.357,100.533 70.307,100.533 70.156 C 100.533 69.810,99.060 69.029,98.834 69.255 C 98.742 69.347,98.667 69.285,98.667 69.118 C 98.667 68.751,97.204 67.951,96.967 68.188 C 96.875 68.280,96.800 68.219,96.800 68.051 C 96.800 67.685,95.337 66.885,95.100 67.122 C 95.009 67.214,94.933 67.152,94.933 66.985 C 94.933 66.618,93.471 65.818,93.234 66.055 C 93.142 66.147,93.067 66.085,93.067 65.918 C 93.067 65.551,91.604 64.751,91.367 64.988 C 91.275 65.080,91.200 64.996,91.200 64.800 C 91.200 64.604,91.130 64.514,91.044 64.600 C 90.959 64.686,90.655 64.521,90.368 64.235 C 90.082 63.948,89.732 63.785,89.590 63.873 C 89.449 63.960,89.333 63.897,89.333 63.733 C 89.333 63.569,89.213 63.509,89.067 63.600 C 88.920 63.691,88.800 63.641,88.800 63.489 C 88.800 63.143,87.327 62.362,87.100 62.588 C 87.009 62.680,86.933 62.619,86.933 62.451 C 86.933 62.085,85.471 61.285,85.234 61.522 C 85.142 61.614,85.067 61.552,85.067 61.385 C 85.067 61.018,83.604 60.218,83.367 60.455 C 83.275 60.547,83.200 60.485,83.200 60.318 C 83.200 59.951,81.737 59.151,81.500 59.388 C 81.409 59.480,81.333 59.408,81.333 59.229 C 81.333 59.049,81.213 58.976,81.067 59.067 C 80.920 59.157,80.800 59.097,80.800 58.933 C 80.800 58.769,80.680 58.709,80.533 58.800 C 80.387 58.891,80.267 58.831,80.267 58.667 C 80.267 58.503,80.147 58.443,80.000 58.533 C 79.853 58.624,79.733 58.551,79.733 58.371 C 79.733 58.192,79.659 58.119,79.568 58.210 C 79.477 58.300,79.222 58.193,79.001 57.972 C 78.779 57.751,78.441 57.629,78.250 57.703 C 78.058 57.777,77.862 57.718,77.813 57.574 C 77.765 57.429,77.427 57.271,77.063 57.224 C 76.698 57.176,76.220 57.071,76.000 56.991 C 75.548 56.826,75.414 56.810,73.200 56.671 C 72.320 56.615,71.090 56.689,70.467 56.834 M71.894 124.462 C 71.806 124.550,71.406 124.656,71.004 124.699 C 70.603 124.742,70.235 124.895,70.187 125.040 C 70.138 125.185,69.936 125.241,69.737 125.164 C 69.538 125.088,69.135 125.265,68.843 125.557 C 68.550 125.850,68.262 126.040,68.202 125.979 C 67.808 125.586,64.116 129.674,64.421 130.167 C 64.500 130.295,64.449 130.400,64.307 130.400 C 64.018 130.400,62.059 133.814,62.050 134.333 C 62.047 134.517,61.948 134.667,61.829 134.667 C 61.526 134.667,60.786 136.163,60.988 136.366 C 61.080 136.458,61.019 136.533,60.851 136.533 C 60.485 136.533,59.685 137.996,59.922 138.233 C 60.014 138.325,59.958 138.400,59.798 138.400 C 59.432 138.400,57.828 141.322,58.022 141.636 C 58.101 141.763,58.031 141.867,57.867 141.867 C 57.703 141.867,57.643 141.987,57.733 142.133 C 57.824 142.280,57.758 142.400,57.587 142.400 C 57.416 142.400,57.344 142.576,57.426 142.791 C 57.509 143.007,57.454 143.259,57.304 143.352 C 57.153 143.445,57.095 143.688,57.173 143.894 C 57.252 144.099,57.223 144.267,57.108 144.267 C 56.782 144.267,56.952 149.007,57.292 149.417 C 57.459 149.618,57.528 149.850,57.446 149.932 C 57.230 150.148,58.358 152.267,58.688 152.267 C 58.840 152.267,58.903 152.367,58.826 152.491 C 58.481 153.049,62.922 156.736,63.506 156.376 C 63.631 156.299,63.733 156.359,63.733 156.511 C 63.733 156.857,65.207 157.638,65.433 157.412 C 65.525 157.320,65.600 157.381,65.600 157.549 C 65.600 157.915,67.063 158.715,67.300 158.478 C 67.391 158.386,67.467 158.448,67.467 158.615 C 67.467 158.982,68.929 159.782,69.166 159.545 C 69.258 159.453,69.333 159.515,69.333 159.682 C 69.333 160.049,70.796 160.849,71.033 160.612 C 71.125 160.520,71.200 160.604,71.200 160.800 C 71.200 160.996,71.270 161.086,71.356 161.000 C 71.441 160.914,71.745 161.079,72.032 161.365 C 72.318 161.652,72.668 161.815,72.810 161.727 C 72.951 161.640,73.067 161.703,73.067 161.867 C 73.067 162.031,73.187 162.091,73.333 162.000 C 73.480 161.909,73.600 161.959,73.600 162.111 C 73.600 162.457,75.073 163.238,75.300 163.012 C 75.391 162.920,75.467 162.981,75.467 163.149 C 75.467 163.515,76.929 164.315,77.166 164.078 C 77.258 163.986,77.333 164.048,77.333 164.215 C 77.333 164.582,78.796 165.382,79.033 165.145 C 79.125 165.053,79.200 165.115,79.200 165.282 C 79.200 165.674,80.667 166.438,80.942 166.189 C 81.058 166.085,81.071 166.141,80.972 166.314 C 80.814 166.590,81.330 166.921,81.933 166.930 C 82.043 166.932,82.378 167.178,82.676 167.476 C 82.975 167.775,83.354 167.937,83.518 167.835 C 83.699 167.723,83.741 167.772,83.625 167.959 C 83.521 168.128,83.562 168.267,83.718 168.267 C 83.873 168.267,84.060 168.267,84.133 168.267 C 84.207 168.267,84.511 168.511,84.810 168.810 C 85.108 169.108,85.456 169.289,85.582 169.211 C 85.708 169.133,85.883 169.257,85.970 169.485 C 86.058 169.714,86.250 169.826,86.398 169.734 C 86.546 169.643,86.667 169.682,86.667 169.820 C 86.667 170.118,90.154 172.430,90.457 172.333 C 90.572 172.297,90.667 172.375,90.667 172.508 C 90.667 172.641,91.297 173.198,92.067 173.746 C 92.837 174.294,94.228 175.356,95.158 176.105 C 96.088 176.854,96.948 177.467,97.069 177.467 C 97.190 177.467,97.389 177.576,97.511 177.709 C 97.643 177.853,97.580 177.863,97.359 177.735 C 97.153 177.615,97.995 178.526,99.230 179.759 C 101.715 182.238,103.290 184.056,103.415 184.586 C 103.459 184.777,103.677 185.072,103.899 185.242 C 104.121 185.412,104.294 185.622,104.284 185.709 C 104.222 186.265,104.307 186.408,104.600 186.240 C 104.783 186.134,104.848 186.142,104.744 186.258 C 104.495 186.533,105.259 188.000,105.651 188.000 C 105.819 188.000,105.881 188.074,105.790 188.165 C 105.598 188.357,107.417 192.090,107.768 192.223 C 107.897 192.272,107.935 192.422,107.853 192.556 C 107.770 192.690,107.825 192.800,107.976 192.800 C 108.127 192.800,108.187 192.965,108.110 193.166 C 108.032 193.367,108.136 193.698,108.339 193.901 C 108.543 194.105,108.665 194.406,108.610 194.571 C 108.555 194.736,108.675 195.036,108.876 195.238 C 109.078 195.440,109.193 195.754,109.133 195.936 C 109.072 196.118,109.152 196.267,109.311 196.267 C 109.470 196.267,109.586 196.357,109.568 196.467 C 109.551 196.577,109.566 196.757,109.602 196.867 C 109.637 196.977,109.697 197.187,109.733 197.333 C 109.770 197.480,109.830 197.660,109.867 197.733 C 109.903 197.807,109.963 197.987,110.000 198.133 C 110.037 198.280,110.091 198.430,110.120 198.467 C 110.150 198.503,110.211 198.720,110.256 198.948 C 110.301 199.176,110.600 200.556,110.920 202.014 C 111.241 203.473,111.569 204.967,111.649 205.333 C 112.324 208.413,112.158 219.460,111.396 222.129 C 111.167 222.933,111.036 223.683,111.105 223.796 C 111.175 223.908,111.092 224.000,110.921 224.000 C 110.750 224.000,110.679 224.180,110.763 224.400 C 110.848 224.620,110.788 224.800,110.630 224.800 C 110.472 224.800,110.412 224.980,110.496 225.200 C 110.581 225.420,110.560 225.600,110.450 225.600 C 110.175 225.600,109.584 227.225,109.757 227.506 C 109.835 227.631,109.790 227.733,109.659 227.733 C 109.333 227.733,108.756 229.046,108.946 229.353 C 109.030 229.489,108.989 229.600,108.856 229.600 C 108.617 229.600,107.815 231.228,107.673 232.000 C 107.633 232.220,107.525 232.460,107.433 232.533 C 107.065 232.826,103.505 240.216,103.658 240.369 C 103.748 240.459,103.693 240.533,103.535 240.533 C 103.229 240.533,100.459 245.502,100.450 246.067 C 100.447 246.250,100.360 246.400,100.256 246.400 C 100.014 246.400,96.990 251.758,96.983 252.200 C 96.980 252.383,96.881 252.533,96.762 252.533 C 96.459 252.533,95.719 254.030,95.922 254.233 C 96.014 254.325,95.952 254.400,95.785 254.400 C 95.418 254.400,94.618 255.863,94.855 256.100 C 94.947 256.191,94.885 256.267,94.718 256.267 C 94.351 256.267,93.551 257.729,93.788 257.966 C 93.880 258.058,93.827 258.133,93.669 258.133 C 93.359 258.133,91.393 261.518,91.383 262.067 C 91.380 262.250,91.281 262.400,91.162 262.400 C 90.859 262.400,90.119 263.897,90.322 264.100 C 90.414 264.191,90.352 264.267,90.185 264.267 C 89.818 264.267,89.018 265.729,89.255 265.966 C 89.347 266.058,89.285 266.133,89.118 266.133 C 88.751 266.133,87.951 267.596,88.188 267.833 C 88.280 267.925,88.219 268.000,88.051 268.000 C 87.685 268.000,86.885 269.463,87.122 269.700 C 87.214 269.791,87.160 269.867,87.002 269.867 C 86.693 269.867,84.726 273.251,84.717 273.800 C 84.714 273.983,84.614 274.133,84.496 274.133 C 84.193 274.133,83.452 275.630,83.655 275.833 C 83.747 275.925,83.685 276.000,83.518 276.000 C 83.151 276.000,82.351 277.463,82.588 277.700 C 82.680 277.791,82.619 277.867,82.451 277.867 C 82.085 277.867,81.285 279.329,81.522 279.566 C 81.614 279.658,81.552 279.733,81.385 279.733 C 81.049 279.733,80.128 281.331,80.460 281.337 C 80.574 281.340,80.530 281.430,80.363 281.537 C 79.955 281.800,78.044 285.083,78.044 285.521 C 78.044 285.711,77.948 285.867,77.829 285.867 C 77.526 285.867,76.786 287.363,76.988 287.566 C 77.080 287.658,77.019 287.733,76.851 287.733 C 76.485 287.733,75.685 289.196,75.922 289.433 C 76.014 289.525,75.952 289.600,75.785 289.600 C 75.418 289.600,74.618 291.063,74.855 291.300 C 74.947 291.391,74.897 291.467,74.745 291.467 C 74.441 291.467,71.392 296.728,71.383 297.267 C 71.380 297.450,71.281 297.600,71.162 297.600 C 70.859 297.600,70.119 299.097,70.322 299.300 C 70.414 299.391,70.352 299.467,70.185 299.467 C 69.818 299.467,69.018 300.929,69.255 301.166 C 69.347 301.258,69.285 301.333,69.118 301.333 C 68.751 301.333,67.951 302.796,68.188 303.033 C 68.280 303.125,68.231 303.200,68.078 303.200 C 67.775 303.200,64.725 308.461,64.716 309.000 C 64.713 309.183,64.614 309.333,64.496 309.333 C 64.193 309.333,63.452 310.830,63.655 311.033 C 63.747 311.125,63.685 311.200,63.518 311.200 C 63.151 311.200,62.351 312.663,62.588 312.900 C 62.680 312.991,62.619 313.067,62.451 313.067 C 62.085 313.067,61.285 314.529,61.522 314.766 C 61.614 314.858,61.560 314.933,61.402 314.933 C 61.090 314.933,58.846 318.855,58.845 319.400 C 58.845 319.583,58.737 319.733,58.606 319.733 C 58.476 319.733,58.443 319.853,58.533 320.000 C 58.624 320.147,58.551 320.267,58.371 320.267 C 58.192 320.267,58.119 320.341,58.210 320.432 C 58.300 320.523,58.193 320.778,57.972 320.999 C 57.751 321.221,57.629 321.559,57.703 321.750 C 57.777 321.942,57.718 322.138,57.574 322.187 C 57.429 322.235,57.271 322.573,57.224 322.937 C 57.176 323.302,57.071 323.780,56.991 324.000 C 56.911 324.220,56.831 324.580,56.815 324.800 C 56.799 325.020,56.718 325.758,56.635 326.439 C 56.471 327.782,56.955 330.667,57.344 330.667 C 57.476 330.667,57.524 330.821,57.452 331.009 C 57.379 331.198,57.568 331.618,57.871 331.943 C 58.173 332.268,58.350 332.533,58.263 332.533 C 58.177 332.533,58.409 332.931,58.780 333.417 C 59.560 334.440,61.716 336.062,61.964 335.813 C 62.057 335.720,62.133 335.781,62.133 335.949 C 62.133 336.315,63.596 337.115,63.833 336.878 C 63.925 336.786,64.000 336.848,64.000 337.015 C 64.000 337.382,65.463 338.182,65.700 337.945 C 65.791 337.853,65.867 337.915,65.867 338.082 C 65.867 338.449,67.329 339.249,67.566 339.012 C 67.658 338.920,67.733 338.981,67.733 339.149 C 67.733 339.515,69.196 340.315,69.433 340.078 C 69.525 339.986,69.600 340.048,69.600 340.215 C 69.600 340.582,71.063 341.382,71.300 341.145 C 71.391 341.053,71.467 341.138,71.467 341.333 C 71.467 341.529,71.537 341.619,71.622 341.533 C 71.708 341.448,71.994 341.594,72.258 341.858 C 74.214 343.814,80.060 344.348,83.248 342.861 C 85.535 341.795,88.866 338.355,88.378 337.564 C 88.299 337.437,88.359 337.333,88.511 337.333 C 88.857 337.333,89.638 335.860,89.412 335.634 C 89.320 335.542,89.381 335.467,89.549 335.467 C 89.915 335.467,90.715 334.004,90.478 333.767 C 90.386 333.675,90.448 333.600,90.615 333.600 C 90.982 333.600,91.782 332.137,91.545 331.900 C 91.453 331.809,91.507 331.733,91.664 331.733 C 91.974 331.733,93.941 328.349,93.950 327.800 C 93.953 327.617,94.052 327.467,94.171 327.467 C 94.474 327.467,95.214 325.970,95.012 325.767 C 94.920 325.675,94.981 325.600,95.149 325.600 C 95.515 325.600,96.315 324.137,96.078 323.900 C 95.986 323.809,96.048 323.733,96.215 323.733 C 96.582 323.733,97.382 322.271,97.145 322.034 C 97.053 321.942,97.115 321.867,97.282 321.867 C 97.618 321.867,98.539 320.269,98.207 320.263 C 98.093 320.260,98.137 320.170,98.304 320.063 C 98.711 319.800,100.622 316.517,100.622 316.079 C 100.622 315.889,100.719 315.733,100.838 315.733 C 101.141 315.733,101.881 314.237,101.678 314.034 C 101.586 313.942,101.648 313.867,101.815 313.867 C 102.182 313.867,102.982 312.404,102.745 312.167 C 102.653 312.075,102.715 312.000,102.882 312.000 C 103.249 312.000,104.049 310.537,103.812 310.300 C 103.720 310.209,103.769 310.133,103.922 310.133 C 104.225 310.133,107.275 304.872,107.284 304.333 C 107.287 304.150,107.386 304.000,107.504 304.000 C 107.807 304.000,108.548 302.503,108.345 302.300 C 108.253 302.209,108.315 302.133,108.482 302.133 C 108.849 302.133,109.649 300.671,109.412 300.434 C 109.320 300.342,109.381 300.267,109.549 300.267 C 109.915 300.267,110.715 298.804,110.478 298.567 C 110.386 298.475,110.436 298.400,110.588 298.400 C 110.892 298.400,113.942 293.139,113.950 292.600 C 113.953 292.417,114.052 292.267,114.171 292.267 C 114.474 292.267,115.214 290.770,115.012 290.567 C 114.920 290.475,114.981 290.400,115.149 290.400 C 115.515 290.400,116.315 288.937,116.078 288.700 C 115.986 288.609,116.048 288.533,116.215 288.533 C 116.582 288.533,117.382 287.071,117.145 286.834 C 117.053 286.742,117.107 286.667,117.264 286.667 C 117.574 286.667,119.541 283.282,119.550 282.733 C 119.553 282.550,119.652 282.400,119.771 282.400 C 120.074 282.400,120.814 280.903,120.612 280.700 C 120.520 280.609,120.581 280.533,120.749 280.533 C 121.115 280.533,121.915 279.071,121.678 278.834 C 121.586 278.742,121.648 278.667,121.815 278.667 C 122.182 278.667,122.982 277.204,122.745 276.967 C 122.653 276.875,122.715 276.800,122.882 276.800 C 123.249 276.800,124.049 275.337,123.812 275.100 C 123.720 275.009,123.773 274.933,123.931 274.933 C 124.241 274.933,126.207 271.549,126.217 271.000 C 126.220 270.817,126.319 270.667,126.438 270.667 C 126.741 270.667,127.481 269.170,127.278 268.967 C 127.186 268.875,127.248 268.800,127.415 268.800 C 127.782 268.800,128.582 267.337,128.345 267.100 C 128.253 267.009,128.315 266.933,128.482 266.933 C 128.849 266.933,129.649 265.471,129.412 265.234 C 129.320 265.142,129.381 265.067,129.549 265.067 C 129.884 265.067,130.805 263.469,130.474 263.463 C 130.360 263.460,130.403 263.370,130.571 263.263 C 130.978 263.000,132.889 259.717,132.889 259.279 C 132.889 259.089,132.986 258.933,133.104 258.933 C 133.407 258.933,134.148 257.437,133.945 257.234 C 133.853 257.142,133.915 257.067,134.082 257.067 C 134.449 257.067,135.249 255.604,135.012 255.367 C 134.920 255.275,134.981 255.200,135.149 255.200 C 135.515 255.200,136.315 253.737,136.078 253.500 C 135.986 253.409,136.037 253.333,136.192 253.333 C 136.507 253.333,140.089 247.043,140.089 246.489 C 140.089 246.293,140.196 246.133,140.327 246.133 C 140.458 246.133,140.491 246.013,140.400 245.867 C 140.309 245.720,140.369 245.600,140.533 245.600 C 140.697 245.600,140.757 245.480,140.667 245.333 C 140.576 245.187,140.636 245.067,140.800 245.067 C 140.964 245.067,141.024 244.947,140.933 244.800 C 140.843 244.653,140.903 244.533,141.067 244.533 C 141.231 244.533,141.291 244.413,141.200 244.267 C 141.109 244.120,141.169 244.000,141.333 244.000 C 141.497 244.000,141.557 243.880,141.467 243.733 C 141.376 243.587,141.436 243.467,141.600 243.467 C 141.764 243.467,141.824 243.347,141.733 243.200 C 141.643 243.053,141.673 242.933,141.802 242.933 C 142.082 242.933,143.012 241.056,142.824 240.869 C 142.751 240.796,142.872 240.557,143.091 240.337 C 143.311 240.118,143.445 239.803,143.390 239.638 C 143.335 239.473,143.455 239.173,143.657 238.971 C 143.859 238.770,143.979 238.470,143.924 238.305 C 143.869 238.140,143.990 237.838,144.194 237.635 C 144.397 237.431,144.501 237.100,144.424 236.899 C 144.347 236.698,144.412 236.533,144.570 236.533 C 144.728 236.533,144.788 236.353,144.704 236.133 C 144.619 235.913,144.679 235.733,144.837 235.733 C 144.995 235.733,145.055 235.553,144.970 235.333 C 144.886 235.113,144.946 234.933,145.104 234.933 C 145.261 234.933,145.321 234.753,145.237 234.533 C 145.152 234.313,145.205 234.133,145.353 234.133 C 145.502 234.133,145.599 233.983,145.569 233.800 C 145.539 233.617,145.646 233.148,145.808 232.759 C 146.247 231.697,147.776 225.342,147.859 224.230 C 147.899 223.696,148.007 223.138,148.098 222.990 C 148.190 222.841,148.269 222.438,148.274 222.093 C 148.278 221.749,148.347 220.927,148.425 220.267 C 149.180 213.925,149.077 205.546,148.165 199.067 C 148.082 198.480,147.997 197.820,147.975 197.600 C 147.912 196.955,147.196 193.770,147.016 193.333 C 146.926 193.113,146.828 192.813,146.800 192.667 C 146.771 192.520,146.722 192.340,146.689 192.267 C 146.657 192.193,146.581 191.758,146.521 191.299 C 146.461 190.841,146.270 190.121,146.097 189.699 C 145.925 189.278,145.737 188.659,145.681 188.323 C 145.625 187.987,145.444 187.387,145.279 186.990 C 145.113 186.592,144.953 186.177,144.922 186.067 C 144.892 185.957,144.837 185.807,144.800 185.733 C 144.763 185.660,144.712 185.510,144.685 185.400 C 144.658 185.290,144.544 184.810,144.430 184.333 C 144.317 183.857,144.118 183.467,143.987 183.467 C 143.857 183.467,143.819 183.287,143.904 183.067 C 143.988 182.847,143.928 182.667,143.770 182.667 C 143.612 182.667,143.547 182.502,143.624 182.301 C 143.701 182.100,143.597 181.769,143.394 181.565 C 143.190 181.362,143.069 181.060,143.124 180.895 C 143.179 180.730,143.044 180.416,142.825 180.196 C 142.605 179.976,142.484 179.738,142.556 179.666 C 142.746 179.476,142.091 178.133,141.808 178.133 C 141.676 178.133,141.643 178.013,141.733 177.867 C 141.824 177.720,141.764 177.600,141.600 177.600 C 141.436 177.600,141.378 177.477,141.471 177.326 C 141.644 177.046,138.601 171.015,138.043 170.532 C 137.873 170.385,137.697 170.085,137.652 169.866 C 137.607 169.646,137.427 169.346,137.252 169.199 C 137.077 169.052,136.897 168.752,136.852 168.532 C 136.807 168.313,136.574 167.983,136.334 167.800 C 136.094 167.617,136.011 167.463,136.149 167.458 C 136.287 167.454,136.167 167.274,135.882 167.058 C 135.598 166.843,135.478 166.663,135.616 166.658 C 135.754 166.654,135.634 166.474,135.349 166.258 C 135.064 166.043,134.944 165.864,135.082 165.861 C 135.220 165.857,135.033 165.607,134.667 165.304 C 134.300 165.001,134.180 164.833,134.400 164.931 C 134.620 165.028,134.517 164.858,134.170 164.554 C 133.824 164.249,133.644 163.996,133.770 163.991 C 133.897 163.986,133.735 163.761,133.411 163.491 C 133.088 163.221,132.883 162.939,132.958 162.864 C 133.032 162.790,132.489 162.109,131.751 161.352 C 131.014 160.594,130.556 160.065,130.734 160.175 C 130.912 160.285,130.467 159.691,129.745 158.854 C 128.530 157.447,127.727 156.728,128.567 157.800 C 128.899 158.222,128.889 158.232,128.470 157.903 C 128.215 157.703,128.059 157.454,128.123 157.350 C 128.260 157.129,124.776 153.606,124.444 153.629 C 124.322 153.637,124.142 153.555,124.044 153.446 C 123.947 153.337,124.047 153.341,124.267 153.455 C 124.487 153.569,124.127 153.180,123.467 152.592 C 122.807 152.004,122.174 151.579,122.060 151.648 C 121.946 151.717,121.886 151.651,121.927 151.503 C 122.026 151.137,117.559 147.727,117.239 147.925 C 117.099 148.012,117.056 147.966,117.144 147.823 C 117.282 147.601,115.847 146.531,115.467 146.572 C 115.393 146.580,115.187 146.394,115.008 146.160 C 114.830 145.925,114.680 145.846,114.675 145.984 C 114.670 146.122,114.490 146.002,114.275 145.718 C 114.060 145.433,113.880 145.290,113.875 145.400 C 113.870 145.510,113.622 145.356,113.324 145.057 C 113.025 144.758,112.646 144.597,112.482 144.698 C 112.301 144.810,112.259 144.762,112.375 144.575 C 112.479 144.405,112.438 144.267,112.282 144.267 C 112.127 144.267,111.940 144.267,111.867 144.267 C 111.793 144.267,111.489 144.022,111.190 143.724 C 110.892 143.425,110.532 143.252,110.390 143.339 C 110.249 143.427,110.133 143.351,110.133 143.171 C 110.133 142.992,110.063 142.914,109.978 143.000 C 109.892 143.086,109.588 142.921,109.301 142.635 C 109.015 142.348,108.665 142.185,108.524 142.273 C 108.382 142.360,108.267 142.297,108.267 142.133 C 108.267 141.969,108.147 141.909,108.000 142.000 C 107.853 142.091,107.733 142.041,107.733 141.889 C 107.733 141.543,106.260 140.762,106.034 140.988 C 105.942 141.080,105.867 141.019,105.867 140.851 C 105.867 140.485,104.404 139.685,104.167 139.922 C 104.075 140.014,104.000 139.952,104.000 139.785 C 104.000 139.418,102.537 138.618,102.300 138.855 C 102.209 138.947,102.133 138.885,102.133 138.718 C 102.133 138.351,100.671 137.551,100.434 137.788 C 100.342 137.880,100.267 137.819,100.267 137.651 C 100.267 137.285,98.804 136.485,98.567 136.722 C 98.475 136.814,98.400 136.729,98.400 136.533 C 98.400 136.338,98.330 136.248,98.244 136.333 C 98.159 136.419,97.855 136.255,97.568 135.968 C 97.282 135.682,96.932 135.519,96.790 135.606 C 96.649 135.693,96.533 135.631,96.533 135.467 C 96.533 135.303,96.413 135.243,96.267 135.333 C 96.120 135.424,96.000 135.374,96.000 135.223 C 96.000 134.877,94.527 134.096,94.300 134.322 C 94.209 134.414,94.133 134.352,94.133 134.185 C 94.133 133.818,92.671 133.018,92.434 133.255 C 92.342 133.347,92.267 133.285,92.267 133.118 C 92.267 132.751,90.804 131.951,90.567 132.188 C 90.475 132.280,90.400 132.219,90.400 132.051 C 90.400 131.685,88.937 130.885,88.700 131.122 C 88.609 131.214,88.533 131.152,88.533 130.985 C 88.533 130.618,87.071 129.818,86.834 130.055 C 86.742 130.147,86.667 130.075,86.667 129.895 C 86.667 129.716,86.547 129.643,86.400 129.733 C 86.253 129.824,86.133 129.774,86.133 129.623 C 86.133 129.277,84.660 128.496,84.434 128.722 C 84.342 128.814,84.267 128.752,84.267 128.585 C 84.267 128.218,82.804 127.418,82.567 127.655 C 82.475 127.747,82.400 127.685,82.400 127.518 C 82.400 127.151,80.937 126.351,80.700 126.588 C 80.609 126.680,80.533 126.610,80.533 126.431 C 80.533 126.067,78.408 125.030,78.078 125.234 C 77.962 125.306,77.867 125.225,77.867 125.054 C 77.867 124.883,77.694 124.809,77.484 124.890 C 77.273 124.971,77.061 124.917,77.012 124.770 C 76.916 124.483,72.159 124.197,71.894 124.462 M206.361 251.057 C 206.267 251.154,205.307 251.286,204.228 251.350 C 203.149 251.415,201.847 251.512,201.333 251.565 C 200.820 251.619,199.633 251.742,198.696 251.839 C 197.758 251.936,196.862 252.095,196.705 252.192 C 196.548 252.289,196.000 252.411,195.488 252.464 C 194.976 252.517,194.420 252.673,194.254 252.811 C 194.087 252.949,193.875 252.986,193.782 252.893 C 193.689 252.800,193.449 252.860,193.249 253.026 C 193.048 253.193,192.813 253.258,192.727 253.171 C 192.640 253.084,192.416 253.108,192.230 253.223 C 192.043 253.338,191.570 253.467,191.178 253.510 C 190.786 253.553,190.121 253.728,189.699 253.899 C 189.278 254.069,188.753 254.231,188.533 254.257 C 187.754 254.352,183.599 255.816,183.516 256.025 C 183.470 256.141,183.260 256.171,183.049 256.090 C 182.839 256.009,182.667 256.050,182.667 256.181 C 182.667 256.313,182.398 256.440,182.071 256.465 C 181.743 256.489,181.435 256.628,181.387 256.773 C 181.338 256.918,181.142 256.977,180.950 256.903 C 180.759 256.829,180.407 256.965,180.168 257.204 C 179.929 257.443,179.733 257.576,179.733 257.500 C 179.733 257.423,179.373 257.487,178.933 257.640 C 178.493 257.793,178.133 258.034,178.133 258.175 C 178.133 258.316,178.013 258.357,177.867 258.267 C 177.720 258.176,177.600 258.236,177.600 258.400 C 177.600 258.564,177.496 258.634,177.368 258.555 C 177.046 258.356,172.267 260.715,172.267 261.074 C 172.267 261.234,172.147 261.291,172.000 261.200 C 171.853 261.109,171.733 261.169,171.733 261.333 C 171.733 261.497,171.618 261.560,171.476 261.473 C 171.335 261.385,170.995 261.528,170.721 261.790 C 170.447 262.052,170.052 262.303,169.844 262.348 C 169.637 262.393,169.346 262.573,169.199 262.748 C 169.052 262.923,168.774 263.099,168.582 263.139 C 167.894 263.281,164.806 265.518,165.001 265.733 C 165.110 265.853,165.074 265.881,164.920 265.793 C 164.589 265.605,160.103 268.985,160.200 269.350 C 160.237 269.487,160.177 269.570,160.067 269.534 C 159.784 269.441,157.871 270.939,157.942 271.199 C 157.974 271.317,157.880 271.428,157.733 271.447 C 157.332 271.497,153.875 274.997,154.010 275.216 C 154.075 275.321,153.919 275.570,153.664 275.770 C 153.244 276.099,153.235 276.089,153.566 275.667 C 154.407 274.595,153.603 275.314,152.389 276.721 C 151.667 277.557,151.222 278.151,151.400 278.041 C 151.578 277.931,151.120 278.461,150.382 279.219 C 149.644 279.976,149.101 280.657,149.176 280.731 C 149.250 280.805,149.046 281.087,148.722 281.358 C 148.398 281.628,148.237 281.853,148.363 281.858 C 148.489 281.863,148.309 282.116,147.963 282.420 C 147.617 282.725,147.513 282.896,147.733 282.801 C 147.953 282.705,147.893 282.824,147.600 283.066 C 147.307 283.307,147.097 283.616,147.133 283.752 C 147.170 283.888,147.088 284.000,146.951 284.000 C 146.660 284.000,145.669 285.332,145.549 285.884 C 145.504 286.094,145.287 286.411,145.067 286.591 C 144.847 286.770,144.757 286.920,144.867 286.925 C 144.977 286.930,144.822 287.178,144.524 287.476 C 144.225 287.775,144.052 288.135,144.139 288.276 C 144.227 288.418,144.174 288.533,144.023 288.533 C 143.677 288.533,142.896 290.007,143.122 290.233 C 143.214 290.325,143.152 290.400,142.985 290.400 C 142.618 290.400,141.818 291.863,142.055 292.100 C 142.147 292.191,142.085 292.267,141.918 292.267 C 141.551 292.267,140.751 293.729,140.988 293.966 C 141.080 294.058,141.019 294.133,140.851 294.133 C 140.485 294.133,139.685 295.596,139.922 295.833 C 140.014 295.925,139.964 296.000,139.812 296.000 C 139.508 296.000,136.458 301.261,136.450 301.800 C 136.447 301.983,136.348 302.133,136.229 302.133 C 135.926 302.133,135.186 303.630,135.388 303.833 C 135.480 303.925,135.419 304.000,135.251 304.000 C 134.885 304.000,134.085 305.463,134.322 305.700 C 134.414 305.791,134.352 305.867,134.185 305.867 C 133.818 305.867,133.018 307.329,133.255 307.566 C 133.347 307.658,133.293 307.733,133.136 307.733 C 132.826 307.733,130.859 311.118,130.850 311.667 C 130.847 311.850,130.748 312.000,130.629 312.000 C 130.326 312.000,129.586 313.497,129.788 313.700 C 129.880 313.791,129.819 313.867,129.651 313.867 C 129.285 313.867,128.485 315.329,128.722 315.566 C 128.814 315.658,128.752 315.733,128.585 315.733 C 128.218 315.733,127.418 317.196,127.655 317.433 C 127.747 317.525,127.685 317.600,127.518 317.600 C 127.151 317.600,126.351 319.063,126.588 319.300 C 126.680 319.391,126.638 319.467,126.494 319.467 C 126.121 319.467,125.000 321.544,125.199 321.866 C 125.290 322.013,125.225 322.133,125.054 322.133 C 124.883 322.133,124.811 322.309,124.893 322.525 C 124.976 322.740,124.920 322.992,124.770 323.085 C 124.620 323.178,124.560 323.418,124.637 323.618 C 124.714 323.819,124.683 324.041,124.570 324.111 C 124.401 324.215,124.353 328.133,124.520 328.133 C 124.548 328.133,124.617 328.492,124.674 328.930 C 124.730 329.367,124.895 329.765,125.040 329.813 C 125.185 329.862,125.241 330.064,125.164 330.263 C 125.088 330.462,125.245 330.855,125.513 331.135 C 125.781 331.415,126.038 331.814,126.085 332.022 C 126.284 332.903,129.692 335.873,130.167 335.579 C 130.295 335.500,130.400 335.559,130.400 335.711 C 130.400 336.057,131.873 336.838,132.100 336.612 C 132.191 336.520,132.267 336.581,132.267 336.749 C 132.267 337.115,133.729 337.915,133.966 337.678 C 134.058 337.586,134.133 337.648,134.133 337.815 C 134.133 338.182,135.596 338.982,135.833 338.745 C 135.925 338.653,136.000 338.725,136.000 338.905 C 136.000 339.084,136.120 339.157,136.267 339.067 C 136.413 338.976,136.533 339.026,136.533 339.177 C 136.533 339.523,138.007 340.304,138.233 340.078 C 138.325 339.986,138.400 340.048,138.400 340.215 C 138.400 340.582,139.863 341.382,140.100 341.145 C 140.191 341.053,140.267 341.125,140.267 341.305 C 140.267 341.484,140.387 341.557,140.533 341.467 C 140.680 341.376,140.800 341.436,140.800 341.600 C 140.800 341.764,140.920 341.824,141.067 341.733 C 141.213 341.643,141.333 341.716,141.333 341.895 C 141.333 342.075,141.408 342.148,141.498 342.057 C 141.589 341.966,141.845 342.073,142.066 342.295 C 142.288 342.516,142.626 342.637,142.817 342.564 C 143.009 342.490,143.210 342.563,143.264 342.726 C 143.411 343.166,149.388 343.170,149.535 342.729 C 149.596 342.546,149.756 342.465,149.890 342.548 C 150.952 343.204,157.022 337.539,156.376 336.494 C 156.299 336.369,156.359 336.267,156.511 336.267 C 156.857 336.267,157.638 334.793,157.412 334.567 C 157.320 334.475,157.381 334.400,157.549 334.400 C 157.884 334.400,158.805 332.802,158.474 332.796 C 158.360 332.794,158.403 332.704,158.571 332.596 C 158.978 332.333,160.889 329.050,160.889 328.613 C 160.889 328.422,160.986 328.267,161.104 328.267 C 161.407 328.267,162.148 326.770,161.945 326.567 C 161.853 326.475,161.915 326.400,162.082 326.400 C 162.449 326.400,163.249 324.937,163.012 324.700 C 162.920 324.609,162.981 324.533,163.149 324.533 C 163.515 324.533,164.315 323.071,164.078 322.834 C 163.986 322.742,164.048 322.667,164.215 322.667 C 164.582 322.667,165.382 321.204,165.145 320.967 C 165.053 320.875,165.115 320.800,165.282 320.800 C 165.674 320.800,166.438 319.333,166.189 319.058 C 166.085 318.942,166.141 318.929,166.314 319.028 C 166.567 319.172,167.140 318.219,166.972 317.933 C 166.951 317.897,167.178 317.622,167.476 317.324 C 167.775 317.025,167.937 316.646,167.835 316.482 C 167.723 316.301,167.772 316.259,167.959 316.375 C 168.128 316.479,168.267 316.438,168.267 316.282 C 168.267 316.127,168.267 315.940,168.267 315.867 C 168.267 315.793,168.511 315.489,168.810 315.190 C 169.108 314.892,169.270 314.513,169.169 314.349 C 169.057 314.168,169.105 314.126,169.292 314.241 C 169.461 314.346,169.600 314.304,169.600 314.149 C 169.600 313.563,169.648 313.461,170.025 313.250 C 170.237 313.131,170.349 312.934,170.274 312.812 C 170.198 312.689,170.323 312.517,170.552 312.430 C 170.780 312.342,170.900 312.162,170.818 312.030 C 170.737 311.897,170.857 311.717,171.085 311.630 C 171.314 311.542,171.434 311.362,171.352 311.230 C 171.270 311.097,171.390 310.917,171.618 310.830 C 171.847 310.742,171.967 310.562,171.885 310.430 C 171.803 310.297,171.933 310.114,172.173 310.022 C 172.413 309.930,172.538 309.782,172.450 309.694 C 172.361 309.606,172.554 309.300,172.878 309.013 C 173.202 308.727,173.288 308.587,173.069 308.702 C 172.850 308.817,173.123 308.459,173.675 307.907 C 174.227 307.355,174.609 306.790,174.524 306.651 C 174.438 306.513,174.486 306.400,174.629 306.400 C 174.772 306.400,175.289 305.895,175.778 305.277 C 176.267 304.659,176.517 304.246,176.334 304.359 C 176.151 304.472,177.341 303.207,178.977 301.549 C 180.614 299.890,181.931 298.434,181.903 298.314 C 181.876 298.193,181.958 298.158,182.085 298.237 C 182.213 298.316,182.747 297.995,183.272 297.523 C 183.797 297.052,184.385 296.630,184.580 296.585 C 184.774 296.541,185.053 296.349,185.200 296.159 C 185.470 295.809,185.639 295.733,186.149 295.733 C 186.304 295.733,186.345 295.583,186.240 295.400 C 186.134 295.217,186.142 295.152,186.258 295.256 C 186.522 295.494,188.000 294.749,188.000 294.377 C 188.000 294.226,188.120 294.176,188.267 294.267 C 188.413 294.357,188.533 294.284,188.533 294.105 C 188.533 293.925,188.608 293.852,188.699 293.943 C 188.884 294.129,192.042 292.607,192.296 292.209 C 192.386 292.069,192.536 291.965,192.630 291.977 C 193.210 292.055,193.605 291.959,193.914 291.667 C 194.108 291.483,194.507 291.292,194.800 291.242 C 195.093 291.192,195.374 291.041,195.423 290.907 C 195.472 290.773,195.609 290.723,195.728 290.797 C 195.846 290.870,196.346 290.768,196.838 290.571 C 197.331 290.374,197.973 290.115,198.267 289.997 C 198.560 289.879,198.950 289.807,199.133 289.836 C 199.317 289.866,199.467 289.769,199.467 289.620 C 199.467 289.472,199.635 289.414,199.840 289.493 C 200.045 289.572,200.289 289.513,200.382 289.363 C 200.474 289.213,200.714 289.153,200.915 289.230 C 201.115 289.307,201.360 289.240,201.458 289.080 C 201.556 288.921,201.719 288.841,201.818 288.901 C 201.918 288.962,202.840 288.843,203.867 288.636 C 206.954 288.016,207.680 287.959,212.400 287.967 C 217.917 287.976,221.692 288.229,222.347 288.634 C 222.523 288.743,222.787 288.757,222.933 288.667 C 223.080 288.576,223.200 288.642,223.200 288.813 C 223.200 288.984,223.380 289.055,223.600 288.970 C 223.820 288.886,224.000 288.946,224.000 289.104 C 224.000 289.261,224.180 289.321,224.400 289.237 C 224.620 289.152,224.800 289.212,224.800 289.370 C 224.800 289.528,224.980 289.588,225.200 289.504 C 225.420 289.419,225.600 289.440,225.600 289.550 C 225.600 289.825,227.225 290.416,227.506 290.243 C 227.631 290.165,227.733 290.210,227.733 290.341 C 227.733 290.667,229.046 291.244,229.353 291.054 C 229.489 290.970,229.600 291.007,229.600 291.135 C 229.600 291.461,231.449 292.309,231.752 292.122 C 231.888 292.038,232.000 292.103,232.000 292.267 C 232.000 292.431,232.120 292.491,232.267 292.400 C 232.413 292.309,232.533 292.369,232.533 292.533 C 232.533 292.697,232.643 292.764,232.777 292.681 C 232.911 292.598,233.061 292.636,233.111 292.766 C 233.243 293.117,238.043 295.468,238.235 295.276 C 238.326 295.185,238.400 295.258,238.400 295.438 C 238.400 295.618,238.520 295.691,238.667 295.600 C 238.813 295.509,238.933 295.569,238.933 295.733 C 238.933 295.897,239.053 295.957,239.200 295.867 C 239.347 295.776,239.467 295.836,239.467 296.000 C 239.467 296.164,239.587 296.224,239.733 296.133 C 239.880 296.043,240.000 296.094,240.000 296.246 C 240.000 296.592,242.540 297.905,242.768 297.677 C 242.859 297.586,242.933 297.658,242.933 297.838 C 242.933 298.018,243.053 298.091,243.200 298.000 C 243.347 297.909,243.467 297.960,243.467 298.112 C 243.467 298.458,245.473 299.505,245.700 299.277 C 245.792 299.186,245.867 299.249,245.867 299.417 C 245.867 299.783,247.862 300.849,248.100 300.611 C 248.192 300.519,248.267 300.581,248.267 300.749 C 248.267 301.115,249.729 301.915,249.966 301.678 C 250.058 301.586,250.133 301.648,250.133 301.815 C 250.133 302.182,251.596 302.982,251.833 302.745 C 251.925 302.653,252.000 302.738,252.000 302.933 C 252.000 303.129,252.070 303.219,252.156 303.133 C 252.241 303.048,252.545 303.212,252.832 303.499 C 253.118 303.785,253.468 303.948,253.610 303.861 C 253.751 303.773,253.867 303.836,253.867 304.000 C 253.867 304.164,253.987 304.224,254.133 304.133 C 254.280 304.043,254.400 304.093,254.400 304.244 C 254.400 304.590,255.873 305.371,256.100 305.145 C 256.191 305.053,256.267 305.115,256.267 305.282 C 256.267 305.649,257.729 306.449,257.966 306.212 C 258.058 306.120,258.133 306.181,258.133 306.349 C 258.133 306.715,259.596 307.515,259.833 307.278 C 259.925 307.186,260.000 307.248,260.000 307.415 C 260.000 307.782,261.463 308.582,261.700 308.345 C 261.791 308.253,261.867 308.315,261.867 308.482 C 261.867 308.849,263.329 309.649,263.566 309.412 C 263.658 309.320,263.733 309.392,263.733 309.571 C 263.733 309.751,263.853 309.824,264.000 309.733 C 264.147 309.643,264.267 309.693,264.267 309.844 C 264.267 310.190,265.740 310.971,265.966 310.745 C 266.058 310.653,266.133 310.715,266.133 310.882 C 266.133 311.249,267.596 312.049,267.833 311.812 C 267.925 311.720,268.000 311.781,268.000 311.949 C 268.000 312.315,269.463 313.115,269.700 312.878 C 269.791 312.786,269.867 312.848,269.867 313.015 C 269.867 313.382,271.329 314.182,271.566 313.945 C 271.658 313.853,271.733 313.915,271.733 314.082 C 271.733 314.449,273.196 315.249,273.433 315.012 C 273.525 314.920,273.600 314.981,273.600 315.149 C 273.600 315.515,275.063 316.315,275.300 316.078 C 275.391 315.986,275.467 316.058,275.467 316.238 C 275.467 316.418,275.587 316.491,275.733 316.400 C 275.880 316.309,276.000 316.359,276.000 316.511 C 276.000 316.857,277.473 317.638,277.700 317.412 C 277.791 317.320,277.867 317.381,277.867 317.549 C 277.867 317.915,279.329 318.715,279.566 318.478 C 279.658 318.386,279.733 318.448,279.733 318.615 C 279.733 318.982,281.196 319.782,281.433 319.545 C 281.525 319.453,281.600 319.515,281.600 319.682 C 281.600 320.049,283.063 320.849,283.300 320.612 C 283.391 320.520,283.467 320.581,283.467 320.749 C 283.467 321.115,284.929 321.915,285.166 321.678 C 285.258 321.586,285.333 321.671,285.333 321.867 C 285.333 322.062,285.403 322.152,285.489 322.067 C 285.574 321.981,285.879 322.145,286.165 322.432 C 286.452 322.718,286.802 322.881,286.943 322.794 C 287.084 322.707,287.200 322.769,287.200 322.933 C 287.200 323.097,287.320 323.157,287.467 323.067 C 287.613 322.976,287.733 323.026,287.733 323.177 C 287.733 323.523,289.207 324.304,289.433 324.078 C 289.525 323.986,289.600 324.048,289.600 324.215 C 289.600 324.582,291.063 325.382,291.300 325.145 C 291.391 325.053,291.467 325.115,291.467 325.282 C 291.467 325.649,292.929 326.449,293.166 326.212 C 293.258 326.120,293.333 326.181,293.333 326.349 C 293.333 326.715,294.796 327.515,295.033 327.278 C 295.125 327.186,295.200 327.248,295.200 327.415 C 295.200 327.782,296.663 328.582,296.900 328.345 C 296.991 328.253,297.067 328.338,297.067 328.533 C 297.067 328.729,297.137 328.819,297.222 328.733 C 297.308 328.648,297.612 328.812,297.899 329.099 C 298.185 329.385,298.535 329.548,298.676 329.461 C 298.818 329.373,298.933 329.436,298.933 329.600 C 298.933 329.764,299.053 329.824,299.200 329.733 C 299.347 329.643,299.467 329.693,299.467 329.844 C 299.467 330.190,300.940 330.971,301.166 330.745 C 301.258 330.653,301.333 330.715,301.333 330.882 C 301.333 331.249,302.796 332.049,303.033 331.812 C 303.125 331.720,303.200 331.781,303.200 331.949 C 303.200 332.315,304.663 333.115,304.900 332.878 C 304.991 332.786,305.067 332.848,305.067 333.015 C 305.067 333.382,306.529 334.182,306.766 333.945 C 306.858 333.853,306.933 333.915,306.933 334.082 C 306.933 334.449,308.396 335.249,308.633 335.012 C 308.725 334.920,308.800 335.004,308.800 335.200 C 308.800 335.396,308.870 335.486,308.956 335.400 C 309.041 335.314,309.345 335.479,309.632 335.765 C 309.918 336.052,310.268 336.215,310.410 336.127 C 310.551 336.040,310.667 336.103,310.667 336.267 C 310.667 336.431,310.787 336.491,310.933 336.400 C 311.080 336.309,311.200 336.359,311.200 336.511 C 311.200 336.857,312.673 337.638,312.900 337.412 C 312.991 337.320,313.067 337.381,313.067 337.549 C 313.067 337.915,314.529 338.715,314.766 338.478 C 314.858 338.386,314.933 338.448,314.933 338.615 C 314.933 338.982,316.396 339.782,316.633 339.545 C 316.725 339.453,316.800 339.515,316.800 339.682 C 316.800 340.049,318.263 340.849,318.500 340.612 C 318.591 340.520,318.667 340.592,318.667 340.771 C 318.667 340.951,318.787 341.024,318.933 340.933 C 319.080 340.843,319.200 340.903,319.200 341.067 C 319.200 341.231,319.320 341.291,319.467 341.200 C 319.613 341.109,319.733 341.169,319.733 341.333 C 319.733 341.497,319.853 341.557,320.000 341.467 C 320.147 341.376,320.267 341.449,320.267 341.629 C 320.267 341.808,320.341 341.881,320.432 341.790 C 320.523 341.700,320.778 341.807,320.999 342.028 C 321.221 342.249,321.559 342.371,321.750 342.297 C 321.942 342.223,322.138 342.282,322.187 342.426 C 322.235 342.571,322.573 342.729,322.937 342.776 C 323.302 342.824,323.780 342.929,324.000 343.009 C 324.220 343.089,324.580 343.169,324.800 343.185 C 325.020 343.201,325.758 343.282,326.439 343.365 C 327.822 343.533,330.667 343.040,330.667 342.632 C 330.667 342.487,330.797 342.449,330.955 342.547 C 331.673 342.991,336.279 338.800,335.845 338.098 C 335.766 337.971,335.826 337.867,335.977 337.867 C 336.323 337.867,337.104 336.393,336.878 336.167 C 336.786 336.075,336.848 336.000,337.015 336.000 C 337.382 336.000,338.182 334.537,337.945 334.300 C 337.853 334.209,337.915 334.133,338.082 334.133 C 338.449 334.133,339.249 332.671,339.012 332.434 C 338.920 332.342,338.973 332.267,339.131 332.267 C 339.441 332.267,341.407 328.882,341.417 328.333 C 341.420 328.150,341.520 328.000,341.639 328.000 C 341.895 328.000,342.901 326.097,343.008 325.410 C 343.049 325.148,343.183 324.771,343.307 324.572 C 343.527 324.220,343.781 322.407,343.800 321.067 C 343.832 318.747,342.887 316.054,341.649 314.933 C 341.244 314.567,341.097 314.371,341.323 314.498 C 341.549 314.625,341.152 314.175,340.441 313.498 C 339.730 312.821,339.053 312.326,338.936 312.399 C 338.818 312.471,338.651 312.343,338.563 312.115 C 338.475 311.886,338.283 311.774,338.135 311.866 C 337.988 311.957,337.867 311.897,337.867 311.733 C 337.867 311.569,337.747 311.509,337.600 311.600 C 337.453 311.691,337.333 311.641,337.333 311.489 C 337.333 311.143,335.860 310.362,335.634 310.588 C 335.542 310.680,335.467 310.619,335.467 310.451 C 335.467 310.085,334.004 309.285,333.767 309.522 C 333.675 309.614,333.600 309.552,333.600 309.385 C 333.600 309.018,332.137 308.218,331.900 308.455 C 331.809 308.547,331.733 308.485,331.733 308.318 C 331.733 307.951,330.271 307.151,330.034 307.388 C 329.942 307.480,329.867 307.419,329.867 307.251 C 329.867 306.885,328.404 306.085,328.167 306.322 C 328.075 306.414,328.000 306.329,328.000 306.133 C 328.000 305.938,327.930 305.848,327.844 305.933 C 327.759 306.019,327.455 305.855,327.168 305.568 C 326.882 305.282,326.532 305.119,326.390 305.206 C 326.249 305.293,326.133 305.231,326.133 305.067 C 326.133 304.903,326.013 304.843,325.867 304.933 C 325.720 305.024,325.600 304.974,325.600 304.823 C 325.600 304.477,324.127 303.696,323.900 303.922 C 323.809 304.014,323.733 303.952,323.733 303.785 C 323.733 303.418,322.271 302.618,322.034 302.855 C 321.942 302.947,321.867 302.885,321.867 302.718 C 321.867 302.351,320.404 301.551,320.167 301.788 C 320.075 301.880,320.000 301.819,320.000 301.651 C 320.000 301.285,318.537 300.485,318.300 300.722 C 318.209 300.814,318.133 300.752,318.133 300.585 C 318.133 300.218,316.671 299.418,316.434 299.655 C 316.342 299.747,316.267 299.662,316.267 299.467 C 316.267 299.271,316.197 299.181,316.111 299.267 C 316.026 299.352,315.721 299.188,315.435 298.901 C 315.148 298.615,314.798 298.452,314.657 298.539 C 314.516 298.627,314.400 298.564,314.400 298.400 C 314.400 298.236,314.280 298.176,314.133 298.267 C 313.987 298.357,313.867 298.307,313.867 298.156 C 313.867 297.810,312.393 297.029,312.167 297.255 C 312.075 297.347,312.000 297.285,312.000 297.118 C 312.000 296.751,310.537 295.951,310.300 296.188 C 310.209 296.280,310.133 296.219,310.133 296.051 C 310.133 295.685,308.671 294.885,308.434 295.122 C 308.342 295.214,308.267 295.152,308.267 294.985 C 308.267 294.618,306.804 293.818,306.567 294.055 C 306.475 294.147,306.400 294.085,306.400 293.918 C 306.400 293.551,304.937 292.751,304.700 292.988 C 304.609 293.080,304.533 292.996,304.533 292.800 C 304.533 292.604,304.463 292.514,304.378 292.600 C 304.292 292.686,303.988 292.521,303.701 292.235 C 303.415 291.948,303.065 291.785,302.924 291.873 C 302.782 291.960,302.667 291.897,302.667 291.733 C 302.667 291.569,302.547 291.509,302.400 291.600 C 302.253 291.691,302.133 291.641,302.133 291.489 C 302.133 291.143,300.660 290.362,300.434 290.588 C 300.342 290.680,300.267 290.619,300.267 290.451 C 300.267 290.085,298.804 289.285,298.567 289.522 C 298.475 289.614,298.400 289.552,298.400 289.385 C 298.400 289.018,296.937 288.218,296.700 288.455 C 296.609 288.547,296.533 288.485,296.533 288.318 C 296.533 287.951,295.071 287.151,294.834 287.388 C 294.742 287.480,294.667 287.419,294.667 287.251 C 294.667 286.885,293.204 286.085,292.967 286.322 C 292.875 286.414,292.800 286.329,292.800 286.133 C 292.800 285.938,292.730 285.848,292.644 285.933 C 292.559 286.019,292.255 285.855,291.968 285.568 C 291.682 285.282,291.332 285.119,291.190 285.206 C 291.049 285.293,290.933 285.231,290.933 285.067 C 290.933 284.903,290.813 284.843,290.667 284.933 C 290.520 285.024,290.400 284.974,290.400 284.823 C 290.400 284.477,288.927 283.696,288.700 283.922 C 288.609 284.014,288.533 283.952,288.533 283.785 C 288.533 283.418,287.071 282.618,286.834 282.855 C 286.742 282.947,286.667 282.885,286.667 282.718 C 286.667 282.351,285.204 281.551,284.967 281.788 C 284.875 281.880,284.800 281.819,284.800 281.651 C 284.800 281.285,283.337 280.485,283.100 280.722 C 283.009 280.814,282.933 280.752,282.933 280.585 C 282.933 280.218,281.471 279.418,281.234 279.655 C 281.142 279.747,281.067 279.675,281.067 279.495 C 281.067 279.316,280.947 279.243,280.800 279.333 C 280.653 279.424,280.533 279.374,280.533 279.223 C 280.533 278.877,279.060 278.096,278.834 278.322 C 278.742 278.414,278.667 278.352,278.667 278.185 C 278.667 277.818,277.204 277.018,276.967 277.255 C 276.875 277.347,276.800 277.285,276.800 277.118 C 276.800 276.751,275.337 275.951,275.100 276.188 C 275.009 276.280,274.933 276.219,274.933 276.051 C 274.933 275.685,273.471 274.885,273.234 275.122 C 273.142 275.214,273.067 275.152,273.067 274.985 C 273.067 274.618,271.604 273.818,271.367 274.055 C 271.275 274.147,271.200 274.062,271.200 273.867 C 271.200 273.671,271.130 273.581,271.044 273.667 C 270.959 273.752,270.655 273.588,270.368 273.301 C 270.082 273.015,269.732 272.852,269.590 272.939 C 269.449 273.027,269.333 272.964,269.333 272.800 C 269.333 272.636,269.213 272.576,269.067 272.667 C 268.920 272.757,268.800 272.707,268.800 272.556 C 268.800 272.210,267.327 271.429,267.100 271.655 C 267.009 271.747,266.933 271.685,266.933 271.518 C 266.933 271.151,265.471 270.351,265.234 270.588 C 265.142 270.680,265.067 270.619,265.067 270.451 C 265.067 270.085,263.604 269.285,263.367 269.522 C 263.275 269.614,263.200 269.552,263.200 269.385 C 263.200 269.018,261.737 268.218,261.500 268.455 C 261.409 268.547,261.333 268.485,261.333 268.318 C 261.333 267.951,259.871 267.151,259.634 267.388 C 259.542 267.480,259.467 267.396,259.467 267.200 C 259.467 267.004,259.397 266.914,259.311 267.000 C 259.226 267.086,258.921 266.921,258.635 266.635 C 258.348 266.348,257.998 266.185,257.857 266.273 C 257.716 266.360,257.600 266.297,257.600 266.133 C 257.600 265.969,257.480 265.909,257.333 266.000 C 257.187 266.091,257.067 266.041,257.067 265.889 C 257.067 265.543,255.593 264.762,255.367 264.988 C 255.275 265.080,255.200 265.019,255.200 264.851 C 255.200 264.485,253.737 263.685,253.500 263.922 C 253.409 264.014,253.333 263.952,253.333 263.785 C 253.333 263.418,251.871 262.618,251.634 262.855 C 251.542 262.947,251.467 262.885,251.467 262.718 C 251.467 262.351,250.004 261.551,249.767 261.788 C 249.675 261.880,249.600 261.818,249.600 261.650 C 249.600 261.284,247.605 260.218,247.366 260.456 C 247.275 260.547,247.200 260.475,247.200 260.295 C 247.200 260.116,247.080 260.043,246.933 260.133 C 246.787 260.224,246.667 260.164,246.667 260.000 C 246.667 259.836,246.547 259.776,246.400 259.867 C 246.253 259.957,246.133 259.897,246.133 259.733 C 246.133 259.569,246.013 259.509,245.867 259.600 C 245.720 259.691,245.600 259.631,245.600 259.467 C 245.600 259.303,245.480 259.243,245.333 259.333 C 245.187 259.424,245.067 259.364,245.067 259.200 C 245.067 259.036,244.947 258.976,244.800 259.067 C 244.653 259.157,244.533 259.097,244.533 258.933 C 244.533 258.769,244.413 258.709,244.267 258.800 C 244.120 258.891,244.000 258.831,244.000 258.667 C 244.000 258.503,243.880 258.443,243.733 258.533 C 243.587 258.624,243.467 258.564,243.467 258.400 C 243.467 258.236,243.347 258.176,243.200 258.267 C 243.053 258.357,242.933 258.319,242.933 258.181 C 242.933 257.941,241.890 257.433,241.073 257.276 C 240.857 257.234,240.513 257.045,240.309 256.855 C 240.105 256.665,239.803 256.555,239.638 256.610 C 239.473 256.665,239.172 256.543,238.968 256.339 C 238.764 256.136,238.433 256.032,238.232 256.110 C 238.031 256.187,237.867 256.160,237.867 256.050 C 237.867 255.775,236.242 255.184,235.961 255.357 C 235.836 255.435,235.733 255.358,235.733 255.187 C 235.733 255.016,235.553 254.945,235.333 255.030 C 235.113 255.114,234.933 255.054,234.933 254.896 C 234.933 254.739,234.753 254.679,234.533 254.763 C 234.313 254.848,234.133 254.788,234.133 254.630 C 234.133 254.472,233.961 254.409,233.751 254.490 C 233.540 254.571,233.330 254.532,233.284 254.404 C 233.238 254.275,232.840 254.132,232.400 254.085 C 231.960 254.038,231.534 253.912,231.453 253.804 C 231.372 253.696,230.947 253.568,230.508 253.520 C 230.069 253.472,229.557 253.338,229.370 253.223 C 229.184 253.108,228.960 253.084,228.873 253.171 C 228.787 253.258,228.567 253.205,228.385 253.054 C 228.203 252.903,227.652 252.738,227.160 252.687 C 226.669 252.636,226.087 252.531,225.867 252.453 C 225.647 252.375,225.287 252.301,225.067 252.288 C 224.847 252.275,224.277 252.199,223.801 252.120 C 223.325 252.040,222.605 251.921,222.201 251.854 C 221.235 251.693,219.416 251.475,217.600 251.302 C 215.053 251.059,206.541 250.874,206.361 251.057 " stroke="none" fill="#444444" fill-rule="evenodd"></path><path id="path2" d="" stroke="none" fill="#d0c828" fill-rule="evenodd"></path><path id="path3" d="M253.133 56.984 C 253.390 57.051,253.810 57.051,254.067 56.984 C 254.323 56.917,254.113 56.862,253.600 56.862 C 253.087 56.862,252.877 56.917,253.133 56.984 M275.529 73.867 C 275.529 74.380,275.583 74.590,275.650 74.333 C 275.718 74.077,275.718 73.657,275.650 73.400 C 275.583 73.143,275.529 73.353,275.529 73.867 M56.873 146.400 C 56.873 147.060,56.925 147.330,56.988 147.000 C 57.052 146.670,57.052 146.130,56.988 145.800 C 56.925 145.470,56.873 145.740,56.873 146.400 M111.795 219.733 C 111.795 220.247,111.850 220.457,111.917 220.200 C 111.984 219.943,111.984 219.523,111.917 219.267 C 111.850 219.010,111.795 219.220,111.795 219.733 M124.329 326.133 C 124.329 326.647,124.383 326.857,124.450 326.600 C 124.518 326.343,124.518 325.923,124.450 325.667 C 124.383 325.410,124.329 325.620,124.329 326.133 M145.933 343.117 C 146.190 343.184,146.610 343.184,146.867 343.117 C 147.123 343.050,146.913 342.995,146.400 342.995 C 145.887 342.995,145.677 343.050,145.933 343.117 " stroke="none" fill="#708828" fill-rule="evenodd"></path><path id="path4" d="" stroke="none" fill="#744428" fill-rule="evenodd"></path></g></svg>