<?xml version="1.0" encoding="utf-8"?>
<!-- Generator: Adobe Illustrator 16.0.3, SVG Export Plug-In . SVG Version: 6.00 Build 0)  -->
<!DOCTYPE svg PUBLIC "-//W3C//DTD SVG 1.1//EN" "http://www.w3.org/Graphics/SVG/1.1/DTD/svg11.dtd">
<svg version="1.1" id="Layer_1" xmlns="http://www.w3.org/2000/svg" xmlns:xlink="http://www.w3.org/1999/xlink" x="0px" y="0px"
	 width="1280px" height="1280px" viewBox="0 0 1280 1280" enable-background="new 0 0 1280 1280" xml:space="preserve">
<path fill="#ED6B21" d="M640,220c-231.941,0-420,188.059-420,420c0,231.942,188.059,420,420,420
	c104.795,0,95.874-78.955,86.544-161.704C720.082,840.465,713.314,780.889,745,745c24.404-27.686,74.546-12.457,127.764,3.69
	C961.972,775.708,1060,805.395,1060,640C1060,408.059,871.942,220,640,220z M323.75,561.25c0-44.164,35.808-80,80-80
	c44.164,0,80,35.836,80,80s-35.836,80-80,80C359.558,641.25,323.75,605.414,323.75,561.25z M508.75,903.75
	c-44.164,0-80-35.835-80-80s35.836-80,80-80s80,35.835,80,80S552.914,903.75,508.75,903.75z M640,483.75c-44.164,0-80-35.836-80-80
	c0-44.165,35.836-80,80-80c44.165,0,80,35.835,80,80C720,447.914,684.165,483.75,640,483.75z M876.25,641.25
	c-44.165,0-80-35.836-80-80s35.835-80,80-80s80,35.836,80,80S920.415,641.25,876.25,641.25z"/>
</svg>
