<?xml version="1.0" encoding="UTF-8" standalone="no"?>
<svg
   xmlns:dc="http://purl.org/dc/elements/1.1/"
   xmlns:cc="http://creativecommons.org/ns#"
   xmlns:rdf="http://www.w3.org/1999/02/22-rdf-syntax-ns#"
   xmlns:svg="http://www.w3.org/2000/svg"
   xmlns="http://www.w3.org/2000/svg"
   xmlns:sodipodi="http://sodipodi.sourceforge.net/DTD/sodipodi-0.dtd"
   xmlns:inkscape="http://www.inkscape.org/namespaces/inkscape"
   version="1.0"
   id="Layer_1"
   x="0px"
   y="0px"
   viewBox="0 0 128 128"
   enable-background="new 0 0 128 128"
   xml:space="preserve"
   sodipodi:docname="mmu_brush.svg"
   inkscape:version="1.0.2 (e86c870879, 2021-01-15)"><metadata
   id="metadata14"><rdf:RDF><cc:Work
       rdf:about=""><dc:format>image/svg+xml</dc:format><dc:type
         rdf:resource="http://purl.org/dc/dcmitype/StillImage" /><dc:title /></cc:Work></rdf:RDF></metadata><defs
   id="defs12"><inkscape:path-effect
     effect="spiro"
     id="path-effect986"
     is_visible="true"
     lpeversion="1" /><inkscape:path-effect
     effect="spiro"
     id="path-effect982"
     is_visible="true"
     lpeversion="1" /><inkscape:path-effect
     effect="spiro"
     id="path-effect978"
     is_visible="true"
     lpeversion="1" /><inkscape:path-effect
     effect="spiro"
     id="path-effect974"
     is_visible="true"
     lpeversion="1" /><inkscape:path-effect
     effect="spiro"
     id="path-effect970"
     is_visible="true"
     lpeversion="1" /><inkscape:path-effect
     effect="spiro"
     id="path-effect966"
     is_visible="true"
     lpeversion="1" /><inkscape:path-effect
     effect="spiro"
     id="path-effect946"
     is_visible="true"
     lpeversion="1" /><inkscape:path-effect
     effect="spiro"
     id="path-effect942"
     is_visible="true"
     lpeversion="1" /><inkscape:path-effect
     effect="spiro"
     id="path-effect938"
     is_visible="true"
     lpeversion="1" /><inkscape:path-effect
     effect="spiro"
     id="path-effect934"
     is_visible="true"
     lpeversion="1" /><inkscape:path-effect
     effect="spiro"
     id="path-effect930"
     is_visible="true"
     lpeversion="1" /><inkscape:path-effect
     effect="spiro"
     id="path-effect926"
     is_visible="true"
     lpeversion="1" /><inkscape:path-effect
     effect="spiro"
     id="path-effect922"
     is_visible="true"
     lpeversion="1" /><inkscape:path-effect
     effect="spiro"
     id="path-effect918"
     is_visible="true"
     lpeversion="1" /><inkscape:path-effect
     effect="spiro"
     id="path-effect912"
     is_visible="true"
     lpeversion="1" /><inkscape:path-effect
     effect="spiro"
     id="path-effect908"
     is_visible="true"
     lpeversion="1" /><inkscape:path-effect
     effect="spiro"
     id="path-effect904"
     is_visible="true"
     lpeversion="1" /><inkscape:path-effect
     effect="spiro"
     id="path-effect900"
     is_visible="true"
     lpeversion="1" /><inkscape:path-effect
     effect="spiro"
     id="path-effect896"
     is_visible="true"
     lpeversion="1" /><inkscape:path-effect
     effect="spiro"
     id="path-effect892"
     is_visible="true"
     lpeversion="1" /><inkscape:path-effect
     effect="spiro"
     id="path-effect868"
     is_visible="true"
     lpeversion="1" /><inkscape:path-effect
     effect="spiro"
     id="path-effect864"
     is_visible="true"
     lpeversion="1" /><inkscape:path-effect
     effect="bspline"
     id="path-effect903"
     is_visible="true"
     lpeversion="1"
     weight="33.333333"
     steps="2"
     helper_size="0"
     apply_no_weight="true"
     apply_with_weight="true"
     only_selected="false" /><inkscape:path-effect
     effect="bspline"
     id="path-effect899"
     is_visible="true"
     lpeversion="1"
     weight="33.333333"
     steps="2"
     helper_size="0"
     apply_no_weight="true"
     apply_with_weight="true"
     only_selected="false" /><inkscape:path-effect
     effect="bspline"
     id="path-effect895"
     is_visible="true"
     lpeversion="1"
     weight="33.333333"
     steps="2"
     helper_size="0"
     apply_no_weight="true"
     apply_with_weight="true"
     only_selected="false" /><inkscape:path-effect
     effect="bspline"
     id="path-effect891"
     is_visible="true"
     lpeversion="1"
     weight="33.333333"
     steps="2"
     helper_size="0"
     apply_no_weight="true"
     apply_with_weight="true"
     only_selected="false" /><inkscape:path-effect
     effect="bspline"
     id="path-effect887"
     is_visible="true"
     lpeversion="1"
     weight="33.333333"
     steps="2"
     helper_size="0"
     apply_no_weight="true"
     apply_with_weight="true"
     only_selected="false" /><inkscape:path-effect
     effect="bspline"
     id="path-effect883"
     is_visible="true"
     lpeversion="1"
     weight="33.333333"
     steps="2"
     helper_size="0"
     apply_no_weight="true"
     apply_with_weight="true"
     only_selected="false" /><inkscape:path-effect
     effect="bspline"
     id="path-effect875"
     is_visible="true"
     lpeversion="1"
     weight="33.333333"
     steps="2"
     helper_size="0"
     apply_no_weight="true"
     apply_with_weight="true"
     only_selected="false" /><inkscape:path-effect
     effect="bspline"
     id="path-effect871"
     is_visible="true"
     lpeversion="1"
     weight="33.333333"
     steps="2"
     helper_size="0"
     apply_no_weight="true"
     apply_with_weight="true"
     only_selected="false" /><inkscape:path-effect
     effect="bspline"
     id="path-effect867"
     is_visible="true"
     lpeversion="1"
     weight="33.333333"
     steps="2"
     helper_size="0"
     apply_no_weight="true"
     apply_with_weight="true"
     only_selected="false" /><inkscape:path-effect
     effect="bspline"
     id="path-effect863"
     is_visible="true"
     lpeversion="1"
     weight="33.333333"
     steps="2"
     helper_size="0"
     apply_no_weight="true"
     apply_with_weight="true"
     only_selected="false" /><inkscape:path-effect
     effect="bspline"
     id="path-effect857"
     is_visible="true"
     lpeversion="1"
     weight="33.333333"
     steps="2"
     helper_size="0"
     apply_no_weight="true"
     apply_with_weight="true"
     only_selected="false" /><inkscape:path-effect
     effect="bspline"
     id="path-effect30"
     is_visible="true"
     lpeversion="1"
     weight="33.333333"
     steps="2"
     helper_size="0"
     apply_no_weight="true"
     apply_with_weight="true"
     only_selected="false" /><inkscape:path-effect
     effect="bspline"
     id="path-effect22"
     is_visible="true"
     lpeversion="1"
     weight="33.333333"
     steps="2"
     helper_size="0"
     apply_no_weight="true"
     apply_with_weight="true"
     only_selected="false" /><inkscape:path-effect
     effect="bspline"
     id="path-effect18"
     is_visible="true"
     lpeversion="1"
     weight="33.333333"
     steps="2"
     helper_size="0"
     apply_no_weight="true"
     apply_with_weight="true"
     only_selected="false" /></defs><sodipodi:namedview
   pagecolor="#ffffff"
   bordercolor="#666666"
   borderopacity="1"
   objecttolerance="10"
   gridtolerance="10"
   guidetolerance="10"
   inkscape:pageopacity="0"
   inkscape:pageshadow="2"
   inkscape:window-width="1920"
   inkscape:window-height="1011"
   id="namedview10"
   showgrid="false"
   inkscape:zoom="5.8608772"
   inkscape:cx="28.58395"
   inkscape:cy="47.244035"
   inkscape:window-x="0"
   inkscape:window-y="0"
   inkscape:window-maximized="1"
   inkscape:current-layer="Layer_1"
   inkscape:document-rotation="0" />

<path
   style="fill:none;stroke:#ed6b21;stroke-width:3;stroke-linecap:round;stroke-linejoin:miter;stroke-miterlimit:4;stroke-dasharray:none;stroke-opacity:1"
   d="m 39.996125,72.377222 c -0.292917,-1.374676 -0.235107,-2.822609 0.166473,-4.169557 0.223913,-0.751031 0.552464,-1.471158 0.719673,-2.236812 0.0836,-0.382827 0.126102,-0.777083 0.09191,-1.167438 -0.03419,-0.390355 -0.147264,-0.777408 -0.357542,-1.108058 -0.255686,-0.40205 -0.639535,-0.701875 -1.002182,-1.010917 -0.362648,-0.309041 -0.721812,-0.650281 -0.898975,-1.092585 -0.114984,-0.28707 -0.146229,-0.604626 -0.108169,-0.911517 0.03806,-0.306891 0.143931,-0.603351 0.292233,-0.874712 0.296605,-0.542722 0.754444,-0.978346 1.227547,-1.376712 0.473103,-0.398366 0.971773,-0.77178 1.384857,-1.232088 0.413085,-0.460307 0.741236,-1.025349 0.791564,-1.641781 0.03278,-0.401443 -0.0548,-0.808539 -0.225734,-1.173246 -0.170935,-0.364708 -0.423255,-0.688092 -0.717384,-0.963263 -0.588259,-0.55034 -1.330371,-0.903532 -2.069366,-1.22417 -0.738995,-0.320639 -1.496061,-0.621913 -2.149785,-1.092623 -0.326862,-0.235355 -0.625929,-0.512805 -0.863346,-0.838172 -0.237416,-0.325367 -0.412074,-0.699961 -0.482062,-1.096612 -0.07235,-0.410042 -0.03131,-0.836645 0.09533,-1.233297 0.126634,-0.396652 0.337209,-0.763953 0.597009,-1.089334 0.519602,-0.650761 1.224284,-1.127058 1.945212,-1.54388 0.720927,-0.416822 1.472291,-0.786466 2.1466,-1.275121 0.674309,-0.488655 1.27867,-1.115122 1.576044,-1.892968 0.264725,-0.692445 0.268131,-1.47132 0.06906,-2.185414 -0.199068,-0.714095 -0.593044,-1.365209 -1.087116,-1.917886 -0.988144,-1.105354 -2.340024,-1.805785 -3.665637,-2.469853 -1.325614,-0.664067 -2.686184,-1.336993 -3.713612,-2.405931 -0.513713,-0.534469 -0.935925,-1.165856 -1.173384,-1.868119 -0.237458,-0.702262 -0.283258,-1.477742 -0.06922,-2.187492 0.206167,-0.683644 0.644318,-1.282839 1.180886,-1.753976 0.536568,-0.471136 1.169388,-0.821324 1.823189,-1.10841 1.307603,-0.574172 2.725378,-0.914212 3.941562,-1.662808 0.436595,-0.268737 0.846373,-0.59196 1.157912,-0.999119 0.31154,-0.407158 0.520484,-0.904186 0.52779,-1.416808 0.005,-0.352999 -0.08636,-0.706901 -0.261674,-1.013328 -0.175316,-0.306427 -0.434092,-0.564562 -0.740953,-0.739118 -0.306861,-0.174556 -0.660988,-0.265067 -1.013974,-0.25916 -0.352985,0.0059 -0.703886,0.108214 -1.004735,0.292939"
   id="path944"
   inkscape:path-effect="#path-effect946"
   inkscape:original-d="m 39.996125,72.377222 c -0.235994,-2.515816 -0.05872,-3.314124 0.166473,-4.169557 0.225197,-0.855433 0.498321,-1.767992 0.454039,-4.512308 -0.01901,-0.908062 -1.917519,-1.51134 -1.901157,-2.103502 0.01636,-0.592163 3.947587,-5.17321 3.588032,-6.03681 -0.778413,-1.869637 -6.526049,-4.569827 -6.507677,-6.388086 0.03675,-3.636518 6.198476,-2.335551 6.36019,-7.0346 0.161715,-4.699049 -9.676584,-9.398114 -9.639904,-13.034695 0.01834,-1.81829 3.505428,-3.370958 6.945637,-4.525194 1.720105,-0.577118 -0.07151,-1.554627 1.685702,-2.415927 1.757212,-0.861299 -2.936749,-1.606389 -3.021336,-1.718667"
   sodipodi:nodetypes="cscsssssssc" /><path
   style="fill:none;stroke:#ffffff;stroke-width:3;stroke-linecap:round;stroke-linejoin:miter;stroke-miterlimit:4;stroke-dasharray:none;stroke-opacity:1"
   d="m 47.996125,70.377222 c -0.06627,-0.725701 -0.0097,-1.462462 0.166473,-2.169557 0.188926,-0.758119 0.513019,-1.4783 0.686546,-2.240091 0.08676,-0.380896 0.135376,-0.773042 0.107671,-1.162711 -0.0277,-0.389669 -0.134061,-0.777655 -0.340178,-1.109506 -0.251382,-0.404728 -0.63495,-0.705788 -0.998086,-1.01422 -0.363136,-0.308432 -0.724072,-0.647742 -0.903071,-1.089282 -0.116228,-0.286703 -0.148539,-0.604345 -0.111244,-0.911455 0.0373,-0.30711 0.142688,-0.603916 0.290727,-0.875563 0.296077,-0.543293 0.75418,-0.979178 1.227739,-1.377388 0.473559,-0.39821 0.972919,-0.771116 1.386814,-1.231029 0.413895,-0.459913 0.743027,-1.024746 0.793996,-1.641375 0.03318,-0.401443 -0.05408,-0.808661 -0.224808,-1.173502 -0.170728,-0.364842 -0.422939,-0.68837 -0.717016,-0.963644 -0.588153,-0.550549 -1.330361,-0.903779 -2.069471,-1.224317 -0.73911,-0.320537 -1.496334,-0.621588 -2.150273,-1.092113 -0.326969,-0.235262 -0.626158,-0.512631 -0.863699,-0.837949 -0.237541,-0.325317 -0.412324,-0.699893 -0.48241,-1.096561 -0.07245,-0.410035 -0.03148,-0.83666 0.0951,-1.233339 0.126581,-0.396679 0.337124,-0.764013 0.596908,-1.089419 0.51957,-0.650812 1.224274,-1.127127 1.945232,-1.543933 0.720959,-0.416806 1.472368,-0.786404 2.146731,-1.275018 0.674363,-0.488613 1.278792,-1.115045 1.576222,-1.892891 0.26477,-0.692432 0.268214,-1.471314 0.06917,-2.18542 -0.199043,-0.714106 -0.593006,-1.365235 -1.087072,-1.917922 -0.988132,-1.105376 -2.340026,-1.805809 -3.665655,-2.469864 -1.325629,-0.664055 -2.686221,-1.336956 -3.713675,-2.40588 -0.513728,-0.534461 -0.935955,-1.165844 -1.173426,-1.868106 -0.237471,-0.702263 -0.283282,-1.477747 -0.06925,-2.187503 0.206162,-0.683647 0.644311,-1.282844 1.180878,-1.753982 0.536567,-0.471138 1.169388,-0.821326 1.823191,-1.108411 1.307605,-0.574171 2.725382,-0.914206 3.941568,-1.662801 0.436596,-0.268736 0.846373,-0.59196 1.157913,-0.999118 0.311539,-0.407159 0.520483,-0.904187 0.527789,-1.416809 0.005,-0.352999 -0.08636,-0.7069 -0.261674,-1.013328 -0.175317,-0.306427 -0.434092,-0.564562 -0.740953,-0.739117 -0.306861,-0.174556 -0.660988,-0.265067 -1.013974,-0.259161 -0.352985,0.0059 -0.703886,0.108214 -1.004735,0.292939"
   id="path964"
   inkscape:path-effect="#path-effect966"
   inkscape:original-d="m 47.996125,70.377222 c -0.235994,-2.515816 -0.05872,-1.314124 0.166473,-2.169557 0.225197,-0.855433 0.498321,-1.767992 0.454039,-4.512308 -0.01901,-0.908062 -1.917519,-1.51134 -1.901157,-2.103502 0.01636,-0.592163 3.947587,-5.17321 3.588032,-6.03681 -0.778413,-1.869637 -6.526049,-4.569827 -6.507677,-6.388086 0.03675,-3.636518 6.198476,-2.335551 6.36019,-7.0346 0.161715,-4.699049 -9.676584,-9.398114 -9.639904,-13.034695 0.01834,-1.81829 3.505428,-3.370958 6.945637,-4.525194 1.720105,-0.577118 -0.07151,-1.554627 1.685702,-2.415927 1.757212,-0.861299 -2.936749,-1.606389 -3.021336,-1.718667"
   sodipodi:nodetypes="cscsssssssc" /><path
   style="fill:none;stroke:#000000;stroke-width:3;stroke-linecap:round;stroke-linejoin:miter;stroke-miterlimit:4;stroke-dasharray:none;stroke-opacity:1"
   d="m 55.996125,70.377222 c -0.06627,-0.725701 -0.0097,-1.462462 0.166473,-2.169557 0.188926,-0.758119 0.513019,-1.4783 0.686546,-2.240091 0.08676,-0.380896 0.135376,-0.773042 0.107671,-1.162711 -0.0277,-0.389669 -0.134061,-0.777655 -0.340178,-1.109506 -0.251382,-0.404728 -0.63495,-0.705788 -0.998086,-1.01422 -0.363136,-0.308432 -0.724072,-0.647742 -0.903071,-1.089282 -0.116228,-0.286703 -0.148539,-0.604345 -0.111244,-0.911455 0.0373,-0.30711 0.142688,-0.603916 0.290727,-0.875563 0.296077,-0.543293 0.75418,-0.979178 1.227739,-1.377388 0.473559,-0.39821 0.972919,-0.771116 1.386814,-1.231029 0.413895,-0.459913 0.743027,-1.024746 0.793996,-1.641375 0.03318,-0.401443 -0.05408,-0.808661 -0.224808,-1.173502 -0.170728,-0.364842 -0.422939,-0.68837 -0.717016,-0.963644 -0.588153,-0.550549 -1.330361,-0.903779 -2.069471,-1.224317 -0.73911,-0.320537 -1.496334,-0.621588 -2.150273,-1.092113 -0.326969,-0.235262 -0.626158,-0.512631 -0.863699,-0.837949 -0.237541,-0.325317 -0.412324,-0.699893 -0.48241,-1.096561 -0.07245,-0.410035 -0.03148,-0.83666 0.0951,-1.233339 0.126581,-0.396679 0.337124,-0.764013 0.596908,-1.089419 0.51957,-0.650812 1.224274,-1.127127 1.945232,-1.543933 0.720959,-0.416806 1.472368,-0.786404 2.146731,-1.275018 0.674363,-0.488613 1.278792,-1.115045 1.576222,-1.892891 0.26477,-0.692432 0.268214,-1.471314 0.06917,-2.18542 -0.199043,-0.714106 -0.593006,-1.365235 -1.087072,-1.917922 -0.988132,-1.105376 -2.340026,-1.805809 -3.665655,-2.469864 -1.325629,-0.664055 -2.686221,-1.336956 -3.713675,-2.40588 -0.513728,-0.534461 -0.935955,-1.165844 -1.173426,-1.868106 -0.237471,-0.702263 -0.283282,-1.477747 -0.06925,-2.187503 0.206162,-0.683647 0.644311,-1.282844 1.180878,-1.753982 0.536567,-0.471138 1.169388,-0.821326 1.823191,-1.108411 1.307605,-0.574171 2.725382,-0.914206 3.941568,-1.662801 0.436596,-0.268736 0.846373,-0.59196 1.157913,-0.999118 0.311539,-0.407159 0.520483,-0.904187 0.527789,-1.416809 0.005,-0.352999 -0.08636,-0.7069 -0.261674,-1.013328 -0.175317,-0.306427 -0.434092,-0.564562 -0.740953,-0.739117 -0.306861,-0.174556 -0.660988,-0.265067 -1.013974,-0.259161 -0.352985,0.0059 -0.703886,0.108214 -1.004735,0.292939"
   id="path968"
   inkscape:path-effect="#path-effect970"
   inkscape:original-d="m 55.996125,70.377222 c -0.235994,-2.515816 -0.05872,-1.314124 0.166473,-2.169557 0.225197,-0.855433 0.498321,-1.767992 0.454039,-4.512308 -0.01901,-0.908062 -1.917519,-1.51134 -1.901157,-2.103502 0.01636,-0.592163 3.947587,-5.17321 3.588032,-6.03681 -0.778413,-1.869637 -6.526049,-4.569827 -6.507677,-6.388086 0.03675,-3.636518 6.198476,-2.335551 6.36019,-7.0346 0.161715,-4.699049 -9.676584,-9.398114 -9.639904,-13.034695 0.01834,-1.81829 3.505428,-3.370958 6.945637,-4.525194 1.720105,-0.577118 -0.07151,-1.554627 1.685702,-2.415927 1.757212,-0.861299 -2.936749,-1.606389 -3.021336,-1.718667"
   sodipodi:nodetypes="cscsssssssc" /><path
   style="fill:none;stroke:#ff0000;stroke-width:3;stroke-linecap:round;stroke-linejoin:miter;stroke-miterlimit:4;stroke-dasharray:none;stroke-opacity:1"
   d="m 63.996125,70.377222 c -0.06627,-0.725701 -0.0097,-1.462462 0.166473,-2.169557 0.188926,-0.758119 0.513019,-1.4783 0.686546,-2.240091 0.08676,-0.380896 0.135376,-0.773042 0.107671,-1.162711 -0.02771,-0.389669 -0.134061,-0.777655 -0.340178,-1.109506 -0.251382,-0.404728 -0.63495,-0.705788 -0.998086,-1.01422 -0.363136,-0.308432 -0.724072,-0.647742 -0.903071,-1.089282 -0.116228,-0.286703 -0.148539,-0.604345 -0.111244,-0.911455 0.0373,-0.30711 0.142688,-0.603916 0.290727,-0.875563 0.296077,-0.543293 0.75418,-0.979178 1.227739,-1.377388 0.473559,-0.39821 0.972919,-0.771116 1.386814,-1.231029 0.413895,-0.459913 0.743027,-1.024746 0.793996,-1.641375 0.03318,-0.401443 -0.05408,-0.808661 -0.224808,-1.173502 -0.170728,-0.364842 -0.422939,-0.68837 -0.717016,-0.963644 -0.588153,-0.550549 -1.330361,-0.903779 -2.069471,-1.224317 -0.73911,-0.320537 -1.496334,-0.621588 -2.150273,-1.092113 -0.326969,-0.235262 -0.626158,-0.512631 -0.863699,-0.837949 -0.237541,-0.325317 -0.412324,-0.699893 -0.48241,-1.096561 -0.07245,-0.410035 -0.03148,-0.83666 0.0951,-1.233339 0.126581,-0.396679 0.337124,-0.764013 0.596908,-1.089419 0.51957,-0.650812 1.224274,-1.127127 1.945232,-1.543933 0.720959,-0.416806 1.472368,-0.786404 2.146731,-1.275018 0.674363,-0.488613 1.278792,-1.115045 1.576222,-1.892891 0.26477,-0.692432 0.268214,-1.471314 0.06917,-2.18542 -0.199043,-0.714106 -0.593006,-1.365235 -1.087072,-1.917922 -0.988132,-1.105376 -2.340026,-1.805809 -3.665655,-2.469864 -1.325629,-0.664055 -2.686221,-1.336956 -3.713675,-2.40588 -0.513728,-0.534461 -0.935955,-1.165844 -1.173426,-1.868106 -0.237471,-0.702263 -0.283282,-1.477747 -0.06925,-2.187503 0.206162,-0.683647 0.644311,-1.282844 1.180878,-1.753982 0.536567,-0.471138 1.169388,-0.821326 1.823191,-1.108411 1.307605,-0.574171 2.725382,-0.914206 3.941568,-1.662801 0.436596,-0.268736 0.846373,-0.59196 1.157913,-0.999118 0.311539,-0.407159 0.520483,-0.904187 0.527789,-1.416809 0.005,-0.352999 -0.08636,-0.7069 -0.261674,-1.013328 -0.175317,-0.306427 -0.434092,-0.564562 -0.740953,-0.739117 -0.306861,-0.174556 -0.660988,-0.265067 -1.013974,-0.259161 -0.352985,0.0059 -0.703886,0.108214 -1.004735,0.292939"
   id="path972"
   inkscape:path-effect="#path-effect974"
   inkscape:original-d="m 63.996125,70.377222 c -0.235994,-2.515816 -0.05872,-1.314124 0.166473,-2.169557 0.225197,-0.855433 0.498321,-1.767992 0.454039,-4.512308 -0.01901,-0.908062 -1.917519,-1.51134 -1.901157,-2.103502 0.01636,-0.592163 3.947587,-5.17321 3.588032,-6.03681 -0.778413,-1.869637 -6.526049,-4.569827 -6.507677,-6.388086 0.03675,-3.636518 6.198476,-2.335551 6.36019,-7.0346 0.161715,-4.699049 -9.676584,-9.398114 -9.639904,-13.034695 0.01834,-1.81829 3.505428,-3.370958 6.945637,-4.525194 1.720104,-0.577118 -0.07151,-1.554627 1.685702,-2.415927 1.757212,-0.861299 -2.936749,-1.606389 -3.021336,-1.718667"
   sodipodi:nodetypes="cscsssssssc" /><path
   style="fill:none;stroke:#0000ff;stroke-width:3;stroke-linecap:round;stroke-linejoin:miter;stroke-miterlimit:4;stroke-dasharray:none;stroke-opacity:1"
   d="m 71.996125,70.377222 c -0.06627,-0.725701 -0.0097,-1.462462 0.166473,-2.169557 0.188926,-0.758119 0.513019,-1.4783 0.686546,-2.240091 0.08676,-0.380896 0.135376,-0.773042 0.107671,-1.162711 -0.02771,-0.389669 -0.134061,-0.777655 -0.340178,-1.109506 -0.251382,-0.404728 -0.63495,-0.705788 -0.998086,-1.01422 -0.363136,-0.308432 -0.724072,-0.647742 -0.903071,-1.089282 -0.116228,-0.286703 -0.148539,-0.604345 -0.111244,-0.911455 0.0373,-0.30711 0.142688,-0.603916 0.290727,-0.875563 0.296077,-0.543293 0.75418,-0.979178 1.227739,-1.377388 0.473559,-0.39821 0.972919,-0.771116 1.386814,-1.231029 0.413895,-0.459913 0.743027,-1.024746 0.793996,-1.641375 0.03318,-0.401443 -0.05408,-0.808661 -0.224808,-1.173502 -0.170728,-0.364842 -0.422939,-0.68837 -0.717016,-0.963644 -0.588153,-0.550549 -1.330361,-0.903779 -2.069471,-1.224317 -0.73911,-0.320537 -1.496334,-0.621588 -2.150273,-1.092113 -0.326969,-0.235262 -0.626158,-0.512631 -0.863699,-0.837949 -0.237541,-0.325317 -0.412324,-0.699893 -0.48241,-1.096561 -0.07245,-0.410035 -0.03148,-0.83666 0.0951,-1.233339 0.126581,-0.396679 0.337124,-0.764013 0.596908,-1.089419 0.51957,-0.650812 1.224274,-1.127127 1.945232,-1.543933 0.720959,-0.416806 1.472368,-0.786404 2.146731,-1.275018 0.674363,-0.488613 1.278792,-1.115045 1.576222,-1.892891 0.26477,-0.692432 0.268214,-1.471314 0.06917,-2.18542 -0.199043,-0.714106 -0.593006,-1.365235 -1.087072,-1.917922 -0.988132,-1.105376 -2.340026,-1.805809 -3.665655,-2.469864 -1.325629,-0.664055 -2.686221,-1.336956 -3.713675,-2.40588 -0.513728,-0.534461 -0.935955,-1.165844 -1.173426,-1.868106 -0.237471,-0.702263 -0.283282,-1.477747 -0.06925,-2.187503 0.206162,-0.683647 0.644311,-1.282844 1.180878,-1.753982 0.536567,-0.471138 1.169388,-0.821326 1.823191,-1.108411 1.307605,-0.574171 2.725382,-0.914206 3.941568,-1.662801 0.436596,-0.268736 0.846373,-0.59196 1.157913,-0.999118 0.311539,-0.407159 0.520483,-0.904187 0.527789,-1.416809 0.005,-0.352999 -0.08636,-0.7069 -0.261674,-1.013328 -0.175317,-0.306427 -0.434092,-0.564562 -0.740953,-0.739117 -0.306861,-0.174556 -0.660988,-0.265067 -1.013974,-0.259161 -0.352985,0.0059 -0.703886,0.108214 -1.004735,0.292939"
   id="path976"
   inkscape:path-effect="#path-effect978"
   inkscape:original-d="m 71.996125,70.377222 c -0.235994,-2.515816 -0.05872,-1.314124 0.166473,-2.169557 0.225197,-0.855433 0.498321,-1.767992 0.454039,-4.512308 -0.01901,-0.908062 -1.917519,-1.51134 -1.901157,-2.103502 0.01636,-0.592163 3.947587,-5.17321 3.588032,-6.03681 -0.778413,-1.869637 -6.526049,-4.569827 -6.507677,-6.388086 0.03675,-3.636518 6.198476,-2.335551 6.36019,-7.0346 0.161715,-4.699049 -9.676584,-9.398114 -9.639904,-13.034695 0.01834,-1.81829 3.505428,-3.370958 6.945637,-4.525194 1.720104,-0.577118 -0.07151,-1.554627 1.685702,-2.415927 1.757212,-0.861299 -2.936749,-1.606389 -3.021336,-1.718667"
   sodipodi:nodetypes="cscsssssssc" /><path
   style="fill:none;stroke:#ffff00;stroke-width:3;stroke-linecap:round;stroke-linejoin:miter;stroke-miterlimit:4;stroke-dasharray:none;stroke-opacity:1"
   d="m 79.996125,70.377222 c -0.383016,-1.361251 -0.323849,-2.843174 0.166473,-4.169557 0.15133,-0.409367 0.342622,-0.804888 0.45896,-1.22554 0.116339,-0.420652 0.153249,-0.879994 -0.0049,-1.286768 -0.08654,-0.222566 -0.228143,-0.420532 -0.391488,-0.594726 -0.163346,-0.174194 -0.348682,-0.326134 -0.534998,-0.475506 -0.37263,-0.298743 -0.76416,-0.604567 -0.974671,-1.03327 -0.137352,-0.279715 -0.188039,-0.598434 -0.163938,-0.90912 0.0241,-0.310685 0.121215,-0.613448 0.264727,-0.890054 0.287025,-0.55321 0.749845,-0.993868 1.231351,-1.389567 0.481505,-0.3957 0.992739,-0.759993 1.420498,-1.213256 0.42776,-0.453263 0.773633,-1.014643 0.835394,-1.634813 0.03997,-0.401385 -0.04208,-0.810629 -0.209339,-1.17769 -0.167256,-0.36706 -0.417633,-0.692996 -0.710837,-0.970015 -0.586408,-0.554037 -1.330228,-0.907904 -2.071278,-1.226772 -0.74105,-0.318868 -1.500915,-0.616189 -2.158429,-1.083637 -0.328757,-0.233723 -0.629977,-0.509742 -0.869588,-0.834234 -0.23961,-0.324491 -0.416493,-0.698793 -0.488206,-1.095738 -0.07406,-0.409911 -0.03437,-0.836898 0.09132,-1.234029 0.12569,-0.397131 0.335714,-0.765003 0.595229,-1.09083 0.51903,-0.651653 1.2241,-1.128273 1.94558,-1.544819 0.721481,-0.416545 1.47362,-0.785387 2.148882,-1.273306 0.675262,-0.48792 1.280833,-1.113778 1.579183,-1.891616 0.26551,-0.692222 0.26958,-1.471223 0.07095,-2.185514 -0.198631,-0.714292 -0.592379,-1.365668 -1.086351,-1.918531 -0.987944,-1.105727 -2.340061,-1.806198 -3.665946,-2.470046 -1.325886,-0.663847 -2.686835,-1.336335 -3.714738,-2.405017 -0.513952,-0.534341 -0.936423,-1.165651 -1.174108,-1.867913 -0.237685,-0.702262 -0.283672,-1.477824 -0.06971,-2.187674 0.206074,-0.683683 0.64419,-1.282928 1.180749,-1.75409 0.536558,-0.471162 1.169393,-0.821352 1.823211,-1.108424 1.307636,-0.574144 2.725461,-0.914099 3.941677,-1.66268 0.436602,-0.268729 0.846382,-0.591951 1.157921,-0.999112 0.31154,-0.40716 0.520479,-0.904191 0.527781,-1.416815 0.005,-0.352998 -0.08636,-0.706897 -0.26168,-1.013323 -0.175317,-0.306425 -0.434092,-0.564558 -0.740952,-0.739114 -0.30686,-0.174555 -0.660986,-0.265067 -1.01397,-0.259162 -0.352984,0.0059 -0.703884,0.108211 -1.004734,0.292932"
   id="path980"
   inkscape:path-effect="#path-effect982"
   inkscape:original-d="m 79.996125,70.377222 c -0.235994,-2.515816 -0.05872,-3.314124 0.166473,-4.169557 0.225197,-0.855433 0.498321,0.232008 0.454039,-2.512308 -0.01901,-0.908062 -1.917519,-1.51134 -1.901157,-2.103502 0.01636,-0.592163 3.947587,-5.17321 3.588032,-6.03681 -0.778413,-1.869637 -6.526049,-4.569827 -6.507677,-6.388086 0.03675,-3.636518 6.198476,-2.335551 6.36019,-7.0346 0.161715,-4.699049 -9.676584,-9.398114 -9.639904,-13.034695 0.01834,-1.81829 3.505428,-3.370958 6.945637,-4.525194 1.720104,-0.577118 -0.07151,-1.554627 1.685702,-2.415927 1.757212,-0.861299 -2.936749,-1.606389 -3.021336,-1.718667"
   sodipodi:nodetypes="cscsssssssc" /><path
   style="fill:none;stroke:#00ff00;stroke-width:3;stroke-linecap:round;stroke-linejoin:miter;stroke-miterlimit:4;stroke-dasharray:none;stroke-opacity:1"
   d="m 87.996125,72.377222 c -0.292917,-1.374676 -0.235107,-2.822609 0.166473,-4.169557 0.223913,-0.751031 0.552464,-1.471158 0.719673,-2.236812 0.0836,-0.382827 0.126102,-0.777083 0.09191,-1.167438 -0.03419,-0.390355 -0.147264,-0.777408 -0.357542,-1.108058 -0.255686,-0.40205 -0.639535,-0.701875 -1.002182,-1.010917 -0.362648,-0.309041 -0.721812,-0.650281 -0.898975,-1.092585 -0.114984,-0.28707 -0.146229,-0.604626 -0.108169,-0.911517 0.03806,-0.306891 0.143931,-0.603351 0.292233,-0.874712 0.296605,-0.542722 0.754444,-0.978346 1.227547,-1.376712 0.473103,-0.398366 0.971773,-0.77178 1.384857,-1.232088 0.413085,-0.460307 0.741236,-1.025349 0.791564,-1.641781 0.03278,-0.401443 -0.0548,-0.808539 -0.225734,-1.173246 -0.170935,-0.364708 -0.423255,-0.688092 -0.717384,-0.963263 -0.588259,-0.55034 -1.330371,-0.903532 -2.069366,-1.22417 -0.738995,-0.320639 -1.496061,-0.621913 -2.149785,-1.092623 -0.326862,-0.235355 -0.625929,-0.512805 -0.863346,-0.838172 -0.237416,-0.325367 -0.412074,-0.699961 -0.482062,-1.096612 -0.07235,-0.410042 -0.03131,-0.836645 0.09533,-1.233297 0.126634,-0.396652 0.337209,-0.763953 0.597009,-1.089334 0.519602,-0.650761 1.224284,-1.127058 1.945212,-1.54388 0.720927,-0.416822 1.472291,-0.786466 2.1466,-1.275121 0.674309,-0.488655 1.27867,-1.115122 1.576044,-1.892968 0.264725,-0.692445 0.268131,-1.47132 0.06906,-2.185414 -0.199068,-0.714095 -0.593044,-1.365209 -1.087116,-1.917886 -0.988144,-1.105354 -2.340024,-1.805785 -3.665637,-2.469853 -1.325614,-0.664067 -2.686184,-1.336993 -3.713612,-2.405931 -0.513713,-0.534469 -0.935925,-1.165856 -1.173384,-1.868119 -0.237458,-0.702262 -0.283258,-1.477742 -0.06922,-2.187492 0.206167,-0.683644 0.644318,-1.282839 1.180886,-1.753976 0.536568,-0.471136 1.169388,-0.821324 1.823189,-1.10841 1.307603,-0.574172 2.725378,-0.914212 3.941562,-1.662808 0.436595,-0.268737 0.846373,-0.59196 1.157912,-0.999119 0.31154,-0.407158 0.520484,-0.904186 0.52779,-1.416808 0.005,-0.352999 -0.08636,-0.706901 -0.261674,-1.013328 -0.175316,-0.306427 -0.434092,-0.564562 -0.740953,-0.739118 -0.306861,-0.174556 -0.660988,-0.265067 -1.013974,-0.25916 -0.352985,0.0059 -0.703886,0.108214 -1.004735,0.292939"
   id="path984"
   inkscape:path-effect="#path-effect986"
   inkscape:original-d="m 87.996125,72.377222 c -0.235994,-2.515816 -0.05872,-3.314124 0.166473,-4.169557 0.225197,-0.855433 0.498321,-1.767992 0.454039,-4.512308 -0.01901,-0.908062 -1.917519,-1.51134 -1.901157,-2.103502 0.01636,-0.592163 3.947587,-5.17321 3.588032,-6.03681 -0.778413,-1.869637 -6.526049,-4.569827 -6.507677,-6.388086 0.03675,-3.636518 7.470027,-2.465631 6.36019,-7.0346 -1.164807,-4.795269 12.216585,-6.674274 -9.639904,-13.034695 -1.745956,-0.508088 3.505428,-3.370958 6.945637,-4.525194 1.720104,-0.577118 -0.07151,-1.554627 1.685702,-2.415927 1.757212,-0.861299 -2.936749,-1.606389 -3.021336,-1.718667"
   sodipodi:nodetypes="cscsssssssc" /><g
   id="paint_x5F_supports">
	<path
   fill="#ed6b21"
   d="M 88,70.564199 H 40 c -0.83,0 -1.5,0.67 -1.5,1.5 v 3.57 V 82.99 c 0,3.59 2.92,6.51 6.51,6.51 h 2.98 c 0.67,0.01 6.51,0.24 6.51,6.5 v 16 c 0,3.29 1.99,9.5 9.5,9.5 7.51,0 9.5,-6.21 9.5,-9.5 V 96 c 0,-6.26 5.84,-6.49 6.5,-6.5 h 3 c 3.59,0 6.5,-2.92 6.5,-6.5 v -7.365801 -3.57 c 0,-0.83 -0.67,-1.5 -1.5,-1.5 z M 86.5,83 c 0,1.93 -1.57,3.5 -3.5,3.5 h -3 c -3.29,0 -9.5,1.99 -9.5,9.5 v 15.99 c -0.01,0.67 -0.24,6.51 -6.5,6.51 -6.26,0 -6.49,-5.84 -6.5,-6.5 V 96 c 0,-7.51 -6.21,-9.5 -9.5,-9.5 h -2.99 c -1.94,0 -3.51,-1.57 -3.51,-3.51 V 73.5 h 45 z"
   id="path2"
   sodipodi:nodetypes="ccscsscssssscsscscsssscscssssccs" />
	<g
   id="g6">
		
	</g>
</g></svg>
