<?xml version="1.0" encoding="utf-8"?>
<!-- Generator: Adobe Illustrator 16.0.3, SVG Export Plug-In . SVG Version: 6.00 Build 0)  -->
<!DOCTYPE svg PUBLIC "-//W3C//DTD SVG 1.1//EN" "http://www.w3.org/Graphics/SVG/1.1/DTD/svg11.dtd">
<svg version="1.1" id="Layer_1" xmlns="http://www.w3.org/2000/svg" xmlns:xlink="http://www.w3.org/1999/xlink" x="0px" y="0px"
	 width="1280px" height="1280px" viewBox="0 0 1280 1280" enable-background="new 0 0 1280 1280" xml:space="preserve">
<g>
	<path fill="#ED6B21" d="M640,323.75c-44.164551,0-80,35.835449-80,80s35.835449,80,80,80c44.165039,0,80-35.835449,80-80
		S684.165039,323.75,640,323.75z"/>
	<path fill="#ED6B21" d="M483.75,561.25c0-44.164551-35.835449-80-80-80c-44.192383,0-80,35.835449-80,80s35.807617,80,80,80
		C447.914551,641.25,483.75,605.414551,483.75,561.25z"/>
	<path fill="#ED6B21" d="M508.75,743.75c-44.164551,0-80,35.834961-80,80s35.835449,80,80,80s80-35.834961,80-80
		S552.914551,743.75,508.75,743.75z"/>
	<path fill="#ED6B21" d="M20,20v1240h1240V20H20z M872.763672,748.69043C819.545898,732.542969,769.404297,717.314453,745,745
		c-31.685547,35.888672-24.917969,95.464844-18.456055,153.295898C735.874023,981.044922,744.794922,1060,640,1060
		c-231.941895,0-420-188.057617-420-420c0-231.941895,188.058105-420,420-420c231.942383,0,420,188.058105,420,420
		C1060,805.394531,961.97168,775.708008,872.763672,748.69043z"/>
	<path fill="#ED6B21" d="M876.25,481.25c-44.165039,0-80,35.835449-80,80s35.834961,80,80,80s80-35.835449,80-80
		S920.415039,481.25,876.25,481.25z"/>
</g>
</svg>
