<?xml version="1.0" encoding="utf-8"?>
<!-- Generator: Adobe Illustrator 16.0.3, SVG Export Plug-In . SVG Version: 6.00 Build 0)  -->
<!DOCTYPE svg PUBLIC "-//W3C//DTD SVG 1.1//EN" "http://www.w3.org/Graphics/SVG/1.1/DTD/svg11.dtd">
<svg version="1.1" id="Layer_1" xmlns="http://www.w3.org/2000/svg" xmlns:xlink="http://www.w3.org/1999/xlink" x="0px" y="0px"
	 width="1280px" height="1280px" viewBox="0 0 1280 1280" enable-background="new 0 0 1280 1280" xml:space="preserve">
<path fill="#ED6B21" d="M20,20v1240h1240V20H20z M359.999512,719.999023v-63.203125
	c0-97.577637,79.220215-176.797363,176.797363-176.797363h63.202148v-120L760.000977,520L599.999023,679.999023V559.999512
	h-63.202148c-53.20166,0-96.796387,43.202148-96.796387,96.796387v63.203125H560L400.000977,880L240,719.999023H359.999512z
	 M1000,1000H280.001465v-80.000977H1000V1000z M1000,799.999023c0,21.993164-18.008789,40-40.001953,40H800V280h159.998047
	C981.991211,280,1000,298.006348,1000,319.999512V799.999023z"/>
</svg>
