<?xml version="1.0" encoding="utf-8"?>
<!-- Generator: Adobe Illustrator 16.0.3, SVG Export Plug-In . SVG Version: 6.00 Build 0)  -->
<!DOCTYPE svg PUBLIC "-//W3C//DTD SVG 1.1//EN" "http://www.w3.org/Graphics/SVG/1.1/DTD/svg11.dtd">
<svg version="1.1" id="Layer_1" xmlns="http://www.w3.org/2000/svg" xmlns:xlink="http://www.w3.org/1999/xlink" x="0px" y="0px"
	 width="1280px" height="1280px" viewBox="0 0 1280 1280" enable-background="new 0 0 1280 1280" xml:space="preserve">
<path fill="#ED6B21" d="M20,20v1240h1240V20H20z M997.304688,849.926758c-1.586914,2.555664-3.837891,4.691406-6.494141,6.256836
	l-331.331055,191.658203c-11.992188,6.9375-26.971191,6.9375-38.943848,0L289.18457,856.183594
	c-8.946777-5.194336-11.86084-16.362305-6.494141-24.970703c1.589355-2.597656,3.839355-4.768555,6.494141-6.296875
	l45.421387-26.25293L639.997559,975.30957l305.393066-176.646484l45.419922,26.25293
	C999.739258,830.072266,1002.691406,841.27832,997.304688,849.926758z M997.304688,651.644531
	c-1.586914,2.591797-3.837891,4.762695-6.494141,6.291016L639.997559,860.869141L289.18457,657.935547
	c-8.946777-5.15625-11.86084-16.363281-6.494141-25.004395c1.589355-2.562012,3.839355-4.694824,6.494141-6.262207
	l45.421387-26.250488l305.391602,176.645996l305.393066-176.645996l45.419922,26.250488
	C999.739258,631.864258,1002.691406,643.03125,997.304688,651.644531z M997.304688,455.244141
	c-1.586914,2.59668-3.837891,4.731445-6.494141,6.260742L639.997559,664.433594L289.18457,461.504883
	c-8.946777-5.158203-11.86084-16.327148-6.494141-24.969238c1.589355-2.597656,3.839355-4.73291,6.494141-6.263184
	l331.351074-191.689453c11.972656-6.938477,26.95166-6.938477,38.943848,0h-0.074219l331.405273,191.689453
	C999.739258,435.431152,1002.691406,446.599609,997.304688,455.244141z"/>
</svg>
