<?xml version="1.0" encoding="utf-8"?>
<!-- Generator: Adobe Illustrator 16.0.3, SVG Export Plug-In . SVG Version: 6.00 Build 0)  -->
<!DOCTYPE svg PUBLIC "-//W3C//DTD SVG 1.1//EN" "http://www.w3.org/Graphics/SVG/1.1/DTD/svg11.dtd">
<svg version="1.1" id="Layer_1" xmlns="http://www.w3.org/2000/svg" xmlns:xlink="http://www.w3.org/1999/xlink" x="0px" y="0px"
	 width="1280px" height="1280px" viewBox="0 0 1280 1280" enable-background="new 0 0 1280 1280" xml:space="preserve">
<g>
	<path fill="#ED6B21" d="M990.811,430.272L659.405,238.583h0.074c-11.992-6.938-26.972-6.938-38.944,0L289.185,430.272
		c-2.655,1.53-4.905,3.665-6.494,6.263c-5.367,8.643-2.453,19.812,6.494,24.97l350.813,202.929l350.813-202.929
		c2.656-1.529,4.907-3.664,6.494-6.261C1002.691,446.6,999.739,435.432,990.811,430.272z"/>
	<path fill="#ED6B21" d="M289.185,856.184l331.351,191.658c11.973,6.938,26.952,6.938,38.944,0l331.331-191.658
		c2.656-1.565,4.907-3.701,6.494-6.257c5.387-8.648,2.435-19.854-6.494-25.011l-45.42-26.253L639.998,975.31L334.605,798.663
		l-45.421,26.253c-2.655,1.528-4.905,3.699-6.494,6.297C277.324,839.821,280.238,850.989,289.185,856.184z"/>
	<path fill="#ED6B21" d="M289.185,657.936l350.813,202.934l350.813-202.934c2.656-1.528,4.907-3.699,6.494-6.291
		c5.387-8.613,2.435-19.78-6.494-24.976l-45.42-26.251L639.998,777.064L334.605,600.418l-45.421,26.251
		c-2.655,1.567-4.905,3.7-6.494,6.263C277.324,641.572,280.238,652.779,289.185,657.936z"/>
</g>
</svg>
