<?xml version="1.0" encoding="UTF-8" standalone="no"?>
<svg xmlns="http://www.w3.org/2000/svg" xmlns:xlink="http://www.w3.org/1999/xlink" width="1024" height="1024" version="1.1">
  <clipPath id="a"><use xlink:href="#c"/></clipPath>
  <circle fill="#fff" r="512" cx="512" cy="512"/>
  <g transform="translate (241 148)">
	<g stroke="#000"><g id="b" fill="none" stroke-miterlimit="4" stroke-width="14"><g clip-path="url(#a)">
	  <path d="M-41.22 295.68v-70l60.95-35 60.95 35v70l-60.95 35z M 80.66 295.68v-70l60.95-35 60.95 35v70l-60.95 35z M202.55 295.68v-70l60.95-35 60.95 35v70l-60.95 35z"/>
	  <path d="M 19.73 190.69v-70l60.95-35 60.95 35v70l-60.95 35z M141.61 190.69v-70l60.95-35 60.95 35v70l-60.95 35z M263.50 190.69v-70l60.95-35 60.95 35v70l-60.95 35z M385.38 190.69v-70l60.95-35 60.95 35v70l-60.95 35z"/>
	  <path d="M 80.66  85.71v-70l60.95-35 60.95 35v70l-60.95 35z M202.55  85.71v-70l60.95-35 60.95 35v70l-60.95 35z M324.45  85.71v-70l60.95-35 60.95 35v70l-60.95 35z M446.33  85.71v-70l60.95-35 60.95 35v70l-60.95 35z"/>
	  <path d="M 19.73 400.66v-70l60.95-35 60.95 35v70l-60.95 35z M 80.66 505.65v-70l60.95-35 60.95 35v70l-60.95 35z"/></g>
	<path id="c" d="M85.95 514c-108.5-118.5-105.2-303.3 9.75-418.3 115-115 299.4-118.5 418.3-9.75z"/></g></g>
	<use stroke="#e62" transform="rotate(180 271 364)" xlink:href="#b"/>
  </g>
</svg>
