<?xml version="1.0" encoding="utf-8"?>
<!-- Generator: Adobe Illustrator 16.0.3, SVG Export Plug-In . SVG Version: 6.00 Build 0)  -->
<!DOCTYPE svg PUBLIC "-//W3C//DTD SVG 1.1//EN" "http://www.w3.org/Graphics/SVG/1.1/DTD/svg11.dtd">
<svg version="1.1" id="Layer_1" xmlns="http://www.w3.org/2000/svg" xmlns:xlink="http://www.w3.org/1999/xlink" x="0px" y="0px"
	 width="1280px" height="1280px" viewBox="0 0 1280 1280" enable-background="new 0 0 1280 1280" xml:space="preserve">
<path fill="#ED6B21" d="M940,370H490c-20.684,0-36.915,10.489-47.696,26.396L280,640l162.304,243.281
	C453.085,899.219,469.316,910,490,910h450c32.988,0,60-27.012,60-60V430C1000,397.012,972.988,370,940,370z M850,747.696
	L807.696,790L700,682.304L592.304,790L550,747.696L657.696,640L550,532.304L592.304,490L700,597.696L807.696,490L850,532.304
	L742.304,640L850,747.696z"/>
</svg>
