<?xml version="1.0" encoding="utf-8"?>
<!-- Generator: Adobe Illustrator 16.0.3, SVG Export Plug-In . SVG Version: 6.00 Build 0)  -->
<!DOCTYPE svg PUBLIC "-//W3C//DTD SVG 1.1//EN" "http://www.w3.org/Graphics/SVG/1.1/DTD/svg11.dtd">
<svg version="1.1" id="Layer_1" xmlns="http://www.w3.org/2000/svg" xmlns:xlink="http://www.w3.org/1999/xlink" x="0px" y="0px"
	 width="1280px" height="1280px" viewBox="0 0 1280 1280" enable-background="new 0 0 1280 1280" xml:space="preserve">
<g>
	<polygon fill="#ED6B21" points="747.696289,490 640,597.696289 532.303711,490 490,532.303711 597.696289,640 490,747.696289 
		532.303711,790 640,682.303711 747.696289,790 790,747.696289 682.303711,640 790,532.303711 	"/>
	<path fill="#ED6B21" d="M20,20v1240h1240V20H20z M940,850c0,32.988281-27.011719,60-60,60H430
		c-20.683105,0-36.915039-10.78125-47.696289-26.71875L220,640l162.303711-243.603516C393.084961,380.48877,409.316895,370,430,370
		h450c32.988281,0,60,27.01123,60,60V850z"/>
</g>
</svg>
