<?xml version="1.0" encoding="utf-8"?>
<!-- Generator: Adobe Illustrator 16.0.3, SVG Export Plug-In . SVG Version: 6.00 Build 0)  -->
<!DOCTYPE svg PUBLIC "-//W3C//DTD SVG 1.1//EN" "http://www.w3.org/Graphics/SVG/1.1/DTD/svg11.dtd">
<svg version="1.1" id="Layer_1" xmlns="http://www.w3.org/2000/svg" xmlns:xlink="http://www.w3.org/1999/xlink" x="0px" y="0px"
	 width="1280px" height="1280px" viewBox="0 0 1280 1280" enable-background="new 0 0 1280 1280" xml:space="preserve">
<path fill="#ED6B21" d="M880,370H430c-20.684,0-36.915,10.489-47.696,26.396L220,640l162.304,243.281
	C393.085,899.219,409.316,910,430,910h450c32.988,0,60-27.012,60-60V430C940,397.012,912.988,370,880,370z M790,747.696L747.696,790
	L640,682.304L532.304,790L490,747.696L597.696,640L490,532.304L532.304,490L640,597.696L747.696,490L790,532.304L682.304,640
	L790,747.696z"/>
</svg>
