<?xml version="1.0" encoding="utf-8"?>
<!-- Generator: Adobe Illustrator 16.0.3, SVG Export Plug-In . SVG Version: 6.00 Build 0)  -->
<!DOCTYPE svg PUBLIC "-//W3C//DTD SVG 1.1//EN" "http://www.w3.org/Graphics/SVG/1.1/DTD/svg11.dtd">
<svg version="1.1" id="Layer_1" xmlns="http://www.w3.org/2000/svg" xmlns:xlink="http://www.w3.org/1999/xlink" x="0px" y="0px"
	 width="1280px" height="1280px" viewBox="0 0 1280 1280" enable-background="new 0 0 1280 1280" xml:space="preserve">
<path fill="#ED6B21" d="M20,20v1240h1240V20H20z M816,835.523438v-90.192383c111.759766-28.144531,176-79.189453,176-111.330566
	c0-46.665039-133.761719-131.999512-352-131.999512c-218.237305,0-352,85.334473-352,131.999512
	c0,36.524902,81.404297,95.476074,220.001465,120.141113V634.000488l175.997559,175.998535l-175.997559,176V843.860352
	C329.356445,815.71582,200,732.570313,200,634.000488c0-121.429688,197.119141-219.999512,440-219.999512
	c242.857422,0,440,98.569824,440,219.999512C1080,724.193359,971.289063,801.664063,816,835.523438z"/>
</svg>
