<?xml version="1.0" encoding="utf-8"?>
<!-- Generator: Adobe Illustrator 16.0.3, SVG Export Plug-In . SVG Version: 6.00 Build 0)  -->
<!DOCTYPE svg PUBLIC "-//W3C//DTD SVG 1.1//EN" "http://www.w3.org/Graphics/SVG/1.1/DTD/svg11.dtd">
<svg version="1.1" id="Layer_1" xmlns="http://www.w3.org/2000/svg" xmlns:xlink="http://www.w3.org/1999/xlink" x="0px" y="0px"
	 width="1280px" height="1280px" viewBox="0 0 1280 1280" enable-background="new 0 0 1280 1280" xml:space="preserve">
<path fill="#ED6B21" d="M640,414.001c-242.881,0-440,98.569-440,219.999c0,98.57,129.356,181.716,308.002,209.86v142.139
	l175.997-176L508.002,634v120.142C369.404,729.477,288,670.525,288,634c0-46.664,133.763-131.999,352-131.999
	c218.238,0,352,85.335,352,131.999c0,32.142-64.24,83.187-176,111.331v90.192c155.289-33.859,264-111.33,264-201.523
	C1080,512.57,882.857,414.001,640,414.001z"/>
</svg>
