<?xml version="1.0" encoding="utf-8"?>
<!-- Generator: Adobe Illustrator 16.0.3, SVG Export Plug-In . SVG Version: 6.00 Build 0)  -->
<!DOCTYPE svg PUBLIC "-//W3C//DTD SVG 1.1//EN" "http://www.w3.org/Graphics/SVG/1.1/DTD/svg11.dtd">
<svg version="1.1" id="Layer_1" xmlns="http://www.w3.org/2000/svg" xmlns:xlink="http://www.w3.org/1999/xlink" x="0px" y="0px"
	 width="1280px" height="1280px" viewBox="0 0 1280 1280" enable-background="new 0 0 1280 1280" xml:space="preserve">
<g>
	<rect x="359.999" y="280" fill="#ED6B21" width="80.001" height="80"/>
	<polygon fill="#ED6B21" points="640.002,719.997 764.444,719.997 713.937,669.489 869.49,513.936 919.999,564.443 919.999,440.001 
		795.556,440.001 846.064,490.51 690.512,646.062 640.002,595.554 	"/>
	<rect x="519.999" y="280" fill="#ED6B21" width="80.001" height="80"/>
	<rect x="200" y="280" fill="#ED6B21" width="79.999" height="80"/>
	<rect x="200" y="440.002" fill="#ED6B21" width="79.999" height="79.998"/>
	<rect x="680.001" y="280" fill="#ED6B21" width="79.998" height="80"/>
	<rect x="200" y="600.001" fill="#ED6B21" width="79.999" height="80.001"/>
	<rect x="200" y="760" fill="#ED6B21" width="400" height="240"/>
	<rect x="680.001" y="920" fill="#ED6B21" width="79.998" height="80"/>
	<rect x="840" y="280" fill="#ED6B21" width="79.999" height="80"/>
	<rect x="999.999" y="920" fill="#ED6B21" width="80.001" height="80"/>
	<rect x="999.999" y="280" fill="#ED6B21" width="80.001" height="80"/>
	<rect x="999.999" y="760" fill="#ED6B21" width="80.001" height="80.001"/>
	<rect x="840" y="920" fill="#ED6B21" width="79.999" height="80"/>
	<rect x="999.999" y="440.002" fill="#ED6B21" width="80.001" height="79.998"/>
	<rect x="999.999" y="600.001" fill="#ED6B21" width="80.001" height="80.001"/>
</g>
</svg>
