<?xml version="1.0" encoding="utf-8"?>
<!-- Generator: Adobe Illustrator 16.0.3, SVG Export Plug-In . SVG Version: 6.00 Build 0)  -->
<!DOCTYPE svg PUBLIC "-//W3C//DTD SVG 1.1//EN" "http://www.w3.org/Graphics/SVG/1.1/DTD/svg11.dtd">
<svg version="1.1" id="Layer_1" xmlns="http://www.w3.org/2000/svg" xmlns:xlink="http://www.w3.org/1999/xlink" x="0px" y="0px"
	 width="1280px" height="1280px" viewBox="0 0 1280 1280" enable-background="new 0 0 1280 1280" xml:space="preserve">
<path fill="#ED6B21" d="M20,20v1240h1240V20H20z M680.000977,280h79.998047v80h-79.998047V280z M359.999023,280h80.001465v80
	h-80.001465V280z M200,280h79.998535v80H200V280z M200,440.001953h79.998535V520H200V440.001953z M200,600.000977h79.998535
	v80.000977H200V600.000977z M599.999512,1000H200V760h399.999512V1000z M599.999512,360h-80.000488v-80h80.000488V360z
	 M759.999023,1000h-79.998047v-80h79.998047V1000z M919.999023,1000H840v-80h79.999023V1000z M919.999023,564.443359
	l-50.508789-50.507813L713.936523,669.489258l50.507813,50.507813H640.001465V595.553711l50.510254,50.507813l155.552734-155.551758
	l-50.508789-50.508789h124.443359V564.443359z M919.999023,360H840v-80h79.999023V360z M1080,1000h-80.000977v-80H1080V1000z
	 M1080,840.000977h-80.000977V760H1080V840.000977z M1080,680.001953h-80.000977v-80.000977H1080V680.001953z M1080,520h-80.000977
	v-79.998047H1080V520z M1080,360h-80.000977v-80H1080V360z"/>
</svg>
