<?xml version="1.0" encoding="utf-8"?>
<!-- Generator: Adobe Illustrator 16.0.3, SVG Export Plug-In . SVG Version: 6.00 Build 0)  -->
<!DOCTYPE svg PUBLIC "-//W3C//DTD SVG 1.1//EN" "http://www.w3.org/Graphics/SVG/1.1/DTD/svg11.dtd">
<svg version="1.1" id="Layer_1" xmlns="http://www.w3.org/2000/svg" xmlns:xlink="http://www.w3.org/1999/xlink" x="0px" y="0px"
	 width="1280px" height="1280px" viewBox="0 0 1280 1280" enable-background="new 0 0 1280 1280" xml:space="preserve">
<path fill="#ED6B21" d="M20,20v1240h1240V20H20z M405.972656,993.410156c-4.217773,4.220703-9.925293,6.588867-15.876465,6.588867
	H288.086426c-27.199707,0-40.836426-32.908203-21.601563-52.254883l91.52002-91.746094l92.996094,92.269531L405.972656,993.410156z
	 M683.512695,868.65332c-13.358398,15.118164-34.271484,21.09375-53.606934,15.118164l-60.117676-18.282227l-71.55127,71.550781
	L363.054199,801.686523l71.550293-71.717773l-17.016113-60.119141c-4.710449-19.335938,0-40.257813,15.118164-53.619629
	l58.359375-48.656738L733.605469,810.125L683.512695,868.65332z M1003.226563,497.119629L764.302734,777.106445
	L525.378906,538.181641l280.043945-238.847656c30.585938-27.077148,76.880859-25.487793,105.708008,3.341797l88.72168,88.762695
	C1028.680664,420.266602,1030.228516,466.461914,1003.226563,497.119629z"/>
</svg>
