<?xml version="1.0" encoding="utf-8"?>
<!-- Generator: Adobe Illustrator 16.0.3, SVG Export Plug-In . SVG Version: 6.00 Build 0)  -->
<!DOCTYPE svg PUBLIC "-//W3C//DTD SVG 1.1//EN" "http://www.w3.org/Graphics/SVG/1.1/DTD/svg11.dtd">
<svg version="1.1" id="Layer_1" xmlns="http://www.w3.org/2000/svg" xmlns:xlink="http://www.w3.org/1999/xlink" x="0px" y="0px"
	 width="1280px" height="1280px" viewBox="0 0 1280 1280" enable-background="new 0 0 1280 1280" xml:space="preserve">
<g>
	<path fill="#ED6B21" d="M911.131,302.676c-28.827-28.83-75.122-30.419-105.708-3.342L525.379,538.182l238.924,238.925
		l238.924-279.987c27.002-30.657,25.454-76.853-3.374-105.681L911.131,302.676z"/>
	<path fill="#ED6B21" d="M498.236,937.04l71.552-71.551l60.118,18.282c19.335,5.976,40.248,0,53.606-15.118l50.093-58.528
		L491.066,567.573l-58.359,48.657c-15.119,13.361-19.829,34.283-15.119,53.619l17.017,60.119l-71.55,71.718L498.236,937.04z"/>
	<path fill="#ED6B21" d="M266.485,947.744c-19.235,19.347-5.598,52.255,21.602,52.255h102.009c5.951,0,11.659-2.368,15.877-6.589
		l45.028-45.143l-92.996-92.27L266.485,947.744z"/>
</g>
</svg>
