<?xml version="1.0" encoding="utf-8"?>
<!-- Generator: Adobe Illustrator 16.0.3, SVG Export Plug-In . SVG Version: 6.00 Build 0)  -->
<!DOCTYPE svg PUBLIC "-//W3C//DTD SVG 1.1//EN" "http://www.w3.org/Graphics/SVG/1.1/DTD/svg11.dtd">
<svg version="1.1" id="Layer_1" xmlns="http://www.w3.org/2000/svg" xmlns:xlink="http://www.w3.org/1999/xlink" x="0px" y="0px"
	 width="1280px" height="1280px" viewBox="0 0 1280 1280" enable-background="new 0 0 1280 1280" xml:space="preserve">
<g>
	<path fill="#ED6B21" d="M547.578125,362.332031c-102.513672,0-185.246094,82.732422-185.246094,185.246094
		c0,102.511719,82.732422,185.246094,185.246094,185.246094c102.511719,0,185.246094-82.734375,185.246094-185.246094
		C732.824219,445.064453,650.089844,362.332031,547.578125,362.332031z"/>
	<path fill="#ED6B21" d="M20,20v1240h1240V20H20z M938.652344,1000L732.824219,794.572266v-32.523438l-11.095703-11.537109
		c-46.955078,40.361328-107.900391,64.644531-174.150391,64.644531C399.798828,815.15625,280,695.355469,280,547.578125
		C280,399.798828,399.798828,280,547.578125,280c147.777344,0,267.578125,119.798828,267.578125,267.578125
		c0,66.25-24.283203,127.195313-64.644531,174.150391l11.537109,11.095703h32.523438L1000,938.652344L938.652344,1000z"/>
</g>
</svg>
