<?xml version="1.0" encoding="utf-8"?>
<!-- Generator: Adobe Illustrator 16.0.3, SVG Export Plug-In . SVG Version: 6.00 Build 0)  -->
<!DOCTYPE svg PUBLIC "-//W3C//DTD SVG 1.1//EN" "http://www.w3.org/Graphics/SVG/1.1/DTD/svg11.dtd">
<svg version="1.1" id="Layer_1" xmlns="http://www.w3.org/2000/svg" xmlns:xlink="http://www.w3.org/1999/xlink" x="0px" y="0px"
	 width="1280px" height="1280px" viewBox="0 0 1280 1280" enable-background="new 0 0 1280 1280" xml:space="preserve">
<path fill="#ED6B21" d="M762.049,732.824l-11.537-11.096c40.361-46.955,64.645-107.9,64.645-174.15
	C815.156,399.799,695.355,280,547.578,280C399.799,280,280,399.799,280,547.578c0,147.777,119.799,267.578,267.578,267.578
	c66.25,0,127.195-24.283,174.15-64.645l11.096,11.537v32.523L938.652,1000L1000,938.652L794.572,732.824H762.049z M547.578,732.824
	c-102.514,0-185.246-82.734-185.246-185.246c0-102.514,82.732-185.246,185.246-185.246c102.512,0,185.246,82.732,185.246,185.246
	C732.824,650.09,650.09,732.824,547.578,732.824z"/>
</svg>
