<?xml version="1.0" encoding="utf-8"?>
<!-- Generator: Adobe Illustrator 16.0.3, SVG Export Plug-In . SVG Version: 6.00 Build 0)  -->
<!DOCTYPE svg PUBLIC "-//W3C//DTD SVG 1.1//EN" "http://www.w3.org/Graphics/SVG/1.1/DTD/svg11.dtd">
<svg version="1.1" id="Layer_1" xmlns="http://www.w3.org/2000/svg" xmlns:xlink="http://www.w3.org/1999/xlink" x="0px" y="0px"
	 width="1280px" height="1280px" viewBox="0 0 1280 1280" enable-background="new 0 0 1280 1280" xml:space="preserve">
<path fill="#ED6B21" d="M995.859,535.938l-87.469-151.875l-103.359,41.73l0.352,0.387c-18.703-14.414-39.234-26.648-61.523-36h0.352
	L727.617,280H552.346L536.49,390.531h0.387c-22.359,9.352-42.855,21.586-61.594,36l0.352-0.352l-103.641-42.117l-87.855,151.875
	l87.855,69.152l0.352-0.738c-1.477,11.883-2.531,23.414-2.531,35.648s1.055,24.469,2.883,36.352l-0.352-0.703l-75.586,59.414
	l-11.883,9.352l87.469,151.172l103.676-41.379l-0.738-1.441c19.09,14.766,39.586,27,62.297,36.352h-1.09L552.697,1000h174.568
	c0,0,1.125-6.469,2.18-15.117l13.711-95.414h-0.422c22.359-9.352,43.242-21.586,62.297-36.352l-0.703,1.441l103.711,41.379
	l87.469-151.172c0,0-5.063-4.324-11.883-9.352l-76.008-59.766l-0.352,0.703c1.477-11.883,2.883-24.117,2.883-36.352
	s-1.055-23.766-2.531-35.648l0.422,0.738L995.859,535.938z M639.814,766c-69.469,0-126-56.531-126-126s56.531-126,126-126
	c69.451,0,125.982,56.531,125.982,126S709.266,766,639.814,766z"/>
</svg>
