<?xml version="1.0" encoding="utf-8"?>
<!-- Generator: Adobe Illustrator 16.0.3, SVG Export Plug-In . SVG Version: 6.00 Build 0)  -->
<!DOCTYPE svg PUBLIC "-//W3C//DTD SVG 1.1//EN" "http://www.w3.org/Graphics/SVG/1.1/DTD/svg11.dtd">
<svg version="1.1" id="Layer_1" xmlns="http://www.w3.org/2000/svg" xmlns:xlink="http://www.w3.org/1999/xlink" x="0px" y="0px"
	 width="1280px" height="1280px" viewBox="0 0 1280 1280" enable-background="new 0 0 1280 1280" xml:space="preserve">
<g>
	<path fill="#ED6B21" d="M639.814453,514c-69.46875,0-126,56.53125-126,126s56.53125,126,126,126
		c69.451172,0,125.982422-56.53125,125.982422-126S709.265625,514,639.814453,514z"/>
	<path fill="#ED6B21" d="M20,20v1240h1240V20H20z M910.148438,640c0,12.234375-1.40625,24.46875-2.882813,36.351563
		l0.351563-0.703125L983.625,735.414063c6.820313,5.027344,11.882813,9.351563,11.882813,9.351563L908.039063,895.9375
		l-103.710938-41.378906l0.703125-1.441406c-19.054688,14.765625-39.9375,27-62.296875,36.351563h0.421875l-13.710938,95.414063
		C728.390625,993.53125,727.265625,1000,727.265625,1000H552.697266l-16.207031-110.882813h1.089844
		c-22.710938-9.351563-43.207031-21.585938-62.296875-36.351563l0.738281,1.441406l-103.675781,41.378906l-87.46875-151.171875
		l11.882813-9.351563l75.585938-59.414063l0.351563,0.703125c-1.828125-11.882813-2.882813-24.117188-2.882813-36.351563
		s1.054688-23.765625,2.53125-35.648438l-0.351563,0.738281L284.138672,535.9375l87.855469-151.875l103.640625,42.117188
		l-0.351563,0.351563c18.738281-14.414063,39.234375-26.648438,61.59375-36h-0.386719L552.345703,280h175.271484
		l16.59375,110.179688h-0.351563c22.289063,9.351563,42.820313,21.585938,61.523438,36l-0.351563-0.386719L908.390625,384.0625
		l87.46875,151.875l-87.820313,69.152344l-0.421875-0.738281C909.09375,616.234375,910.148438,627.765625,910.148438,640z"/>
</g>
</svg>
