<?xml version="1.0" encoding="utf-8"?>
<!-- Generator: Adobe Illustrator 16.0.3, SVG Export Plug-In . SVG Version: 6.00 Build 0)  -->
<!DOCTYPE svg PUBLIC "-//W3C//DTD SVG 1.1//EN" "http://www.w3.org/Graphics/SVG/1.1/DTD/svg11.dtd">
<svg version="1.1" id="Layer_1" xmlns="http://www.w3.org/2000/svg" xmlns:xlink="http://www.w3.org/1999/xlink" x="0px" y="0px"
	 width="1280px" height="1280px" viewBox="0 0 1280 1280" enable-background="new 0 0 1280 1280" xml:space="preserve">
<g>
	<path fill="#ED6B21" d="M374.736,418.946c24.438,0,44.211-19.772,44.211-44.21c0-24.436-19.773-44.21-44.211-44.21
		c-24.415,0-44.211,19.774-44.211,44.21C330.525,399.174,350.321,418.946,374.736,418.946z"/>
	<path fill="#ED6B21" d="M374.736,949.474c24.438,0,44.211-19.774,44.211-44.212c0-24.436-19.773-44.21-44.211-44.21
		c-24.415,0-44.211,19.774-44.211,44.21C330.525,929.699,350.321,949.474,374.736,949.474z"/>
	<path fill="#ED6B21" d="M242.106,750.526c12.218,0,22.104-9.887,22.104-22.106c0-12.218-9.886-22.104-22.104-22.104
		c-12.22,0-22.106,9.886-22.106,22.104C220,740.64,229.886,750.526,242.106,750.526z"/>
	<path fill="#ED6B21" d="M507.367,374.736c0,24.438,19.775,44.21,44.213,44.21c24.436,0,44.209-19.772,44.209-44.21
		c0-24.436-19.773-44.21-44.209-44.21C527.143,330.526,507.367,350.3,507.367,374.736z"/>
	<path fill="#ED6B21" d="M242.106,573.684c12.218,0,22.104-9.888,22.104-22.105s-9.886-22.104-22.104-22.104
		c-12.22,0-22.106,9.886-22.106,22.104S229.886,573.684,242.106,573.684z"/>
	<path fill="#ED6B21" d="M374.736,595.788c24.438,0,44.211-19.772,44.211-44.21c0-24.436-19.773-44.21-44.211-44.21
		c-24.415,0-44.211,19.774-44.211,44.21C330.525,576.016,350.321,595.788,374.736,595.788z"/>
	<path fill="#ED6B21" d="M374.736,772.632c24.438,0,44.211-19.774,44.211-44.212c0-24.436-19.773-44.21-44.211-44.21
		c-24.415,0-44.211,19.774-44.211,44.21C330.525,752.857,350.321,772.632,374.736,772.632z"/>
	<path fill="#ED6B21" d="M595.789,905.262c0-24.436-19.773-44.21-44.209-44.21c-24.438,0-44.213,19.774-44.213,44.21
		c0,24.438,19.775,44.212,44.213,44.212C576.016,949.474,595.789,929.699,595.789,905.262z"/>
	<path fill="#ED6B21" d="M573.684,242.104c0-12.218-9.887-22.104-22.104-22.104c-12.221,0-22.106,9.886-22.106,22.104
		c0,12.22,9.886,22.106,22.106,22.106C563.797,264.21,573.684,254.324,573.684,242.104z"/>
	<path fill="#ED6B21" d="M640,242.104v795.791c219.756,0,397.895-178.18,397.895-397.895S859.756,242.104,640,242.104z"/>
	<path fill="#ED6B21" d="M529.474,1037.895c0,12.217,9.886,22.105,22.106,22.105c12.217,0,22.104-9.889,22.104-22.105
		c0-12.219-9.887-22.106-22.104-22.106C539.359,1015.788,529.474,1025.676,529.474,1037.895z"/>
	<path fill="#ED6B21" d="M551.58,794.736c36.611,0,66.314-29.703,66.314-66.316c0-36.611-29.703-66.315-66.314-66.315
		c-36.613,0-66.316,29.704-66.316,66.315C485.264,765.033,514.967,794.736,551.58,794.736z"/>
	<path fill="#ED6B21" d="M485.264,551.578c0,36.613,29.703,66.316,66.316,66.316c36.611,0,66.314-29.703,66.314-66.316
		c0-36.611-29.703-66.316-66.314-66.316C514.967,485.262,485.264,514.967,485.264,551.578z"/>
</g>
</svg>
