<?xml version="1.0" encoding="utf-8"?>
<!-- Generator: Adobe Illustrator 16.0.3, SVG Export Plug-In . SVG Version: 6.00 Build 0)  -->
<!DOCTYPE svg PUBLIC "-//W3C//DTD SVG 1.1//EN" "http://www.w3.org/Graphics/SVG/1.1/DTD/svg11.dtd">
<svg version="1.1" id="Layer_1" xmlns="http://www.w3.org/2000/svg" xmlns:xlink="http://www.w3.org/1999/xlink" x="0px" y="0px"
	 width="1280px" height="1280px" viewBox="0 0 1280 1280" enable-background="new 0 0 1280 1280" xml:space="preserve">
<path fill="#ED6B21" d="M20,20v1240h1240V20H20z M551.57959,220c12.217773,0,22.104004,9.88623,22.104004,22.104004
	c0,12.219727-9.88623,22.105957-22.104004,22.105957c-12.219727,0-22.105957-9.88623-22.105957-22.105957
	C529.473633,229.88623,539.359863,220,551.57959,220z M551.57959,330.525879c24.435547,0,44.209961,19.774414,44.209961,44.209961
	c0,24.437988-19.774414,44.210449-44.209961,44.210449c-24.4375,0-44.211914-19.772461-44.211914-44.210449
	C507.367676,350.300293,527.14209,330.525879,551.57959,330.525879z M242.105957,750.526367
	C229.88623,750.526367,220,740.639648,220,728.419922c0-12.217773,9.88623-22.103516,22.105957-22.103516
	c12.217773,0,22.104004,9.885742,22.104004,22.103516C264.209961,740.639648,254.32373,750.526367,242.105957,750.526367z
	 M242.105957,573.684082C229.88623,573.684082,220,563.795898,220,551.578125s9.88623-22.104004,22.105957-22.104004
	c12.217773,0,22.104004,9.88623,22.104004,22.104004S254.32373,573.684082,242.105957,573.684082z M374.73584,949.473633
	c-24.414551,0-44.209961-19.774414-44.209961-44.211914c0-24.435547,19.79541-44.209961,44.209961-44.209961
	c24.4375,0,44.211914,19.774414,44.211914,44.209961C418.947754,929.699219,399.17334,949.473633,374.73584,949.473633z
	 M374.73584,772.631836c-24.414551,0-44.209961-19.774414-44.209961-44.211914c0-24.435547,19.79541-44.209961,44.209961-44.209961
	c24.4375,0,44.211914,19.774414,44.211914,44.209961C418.947754,752.857422,399.17334,772.631836,374.73584,772.631836z
	 M374.73584,595.788086c-24.414551,0-44.209961-19.772461-44.209961-44.209961c0-24.435547,19.79541-44.209961,44.209961-44.209961
	c24.4375,0,44.211914,19.774414,44.211914,44.209961C418.947754,576.015625,399.17334,595.788086,374.73584,595.788086z
	 M374.73584,418.946289c-24.414551,0-44.209961-19.772461-44.209961-44.210449c0-24.435547,19.79541-44.209961,44.209961-44.209961
	c24.4375,0,44.211914,19.774414,44.211914,44.209961C418.947754,399.173828,399.17334,418.946289,374.73584,418.946289z
	 M551.57959,1060c-12.219727,0-22.105957-9.888672-22.105957-22.105469c0-12.21875,9.88623-22.106445,22.105957-22.106445
	c12.217773,0,22.104004,9.887695,22.104004,22.106445C573.683594,1050.111328,563.797363,1060,551.57959,1060z
	 M551.57959,949.473633c-24.4375,0-44.211914-19.774414-44.211914-44.211914c0-24.435547,19.774414-44.209961,44.211914-44.209961
	c24.435547,0,44.209961,19.774414,44.209961,44.209961C595.789551,929.699219,576.015137,949.473633,551.57959,949.473633z
	 M551.57959,794.736328c-36.612793,0-66.315918-29.703125-66.315918-66.316406c0-36.611328,29.703125-66.31543,66.315918-66.31543
	c36.611328,0,66.314453,29.704102,66.314453,66.31543C617.894043,765.033203,588.190918,794.736328,551.57959,794.736328z
	 M551.57959,617.894043c-36.612793,0-66.315918-29.703125-66.315918-66.315918c0-36.611328,29.703125-66.315918,66.315918-66.315918
	c36.611328,0,66.314453,29.70459,66.314453,66.315918C617.894043,588.190918,588.190918,617.894043,551.57959,617.894043z
	 M639.999512,1037.894531V242.104004c219.756348,0,397.89502,178.181641,397.89502,397.895996
	C1037.894531,859.714844,859.755859,1037.894531,639.999512,1037.894531z"/>
</svg>
