<?xml version="1.0" encoding="utf-8"?>
<!-- Generator: Adobe Illustrator 16.0.3, SVG Export Plug-In . SVG Version: 6.00 Build 0)  -->
<!DOCTYPE svg PUBLIC "-//W3C//DTD SVG 1.1//EN" "http://www.w3.org/Graphics/SVG/1.1/DTD/svg11.dtd">
<svg version="1.1" id="Layer_1" xmlns="http://www.w3.org/2000/svg" xmlns:xlink="http://www.w3.org/1999/xlink" x="0px" y="0px"
	 width="1280px" height="1280px" viewBox="0 0 1280 1280" enable-background="new 0 0 1280 1280" xml:space="preserve">
<g>
	<path fill="#ED6B21" d="M639.999,490.609c-42.699,0-77.318,34.619-77.318,77.318s34.619,77.318,77.318,77.318
		c42.698,0,77.318-34.619,77.318-77.318S682.697,490.609,639.999,490.609z"/>
	<path fill="#ED6B21" d="M393.982,321.911c-135.891,135.854-135.891,356.179-0.02,492.053L639.999,1060l246.036-246.036
		c135.871-135.874,135.871-356.198,0-492.053C750.161,186.039,529.854,186.02,393.982,321.911z M639.999,722.563
		c-85.396,0-154.636-69.238-154.636-154.635s69.239-154.635,154.636-154.635s154.635,69.238,154.635,154.635
		S725.396,722.563,639.999,722.563z"/>
</g>
</svg>
