<?xml version="1.0" encoding="utf-8"?>
<!-- Generator: Adobe Illustrator 16.0.3, SVG Export Plug-In . SVG Version: 6.00 Build 0)  -->
<!DOCTYPE svg PUBLIC "-//W3C//DTD SVG 1.1//EN" "http://www.w3.org/Graphics/SVG/1.1/DTD/svg11.dtd">
<svg version="1.1" id="Layer_1" xmlns="http://www.w3.org/2000/svg" xmlns:xlink="http://www.w3.org/1999/xlink" x="0px" y="0px"
	 width="1280px" height="1280px" viewBox="0 0 1280 1280" enable-background="new 0 0 1280 1280" xml:space="preserve">
<g>
	<path fill="#ED6B21" d="M639.999023,413.292969c-85.396484,0-154.635254,69.238281-154.635254,154.634766
		S554.602539,722.5625,639.999023,722.5625s154.634766-69.238281,154.634766-154.634766
		S725.395508,413.292969,639.999023,413.292969z M639.999023,645.246094c-42.699219,0-77.318359-34.619141-77.318359-77.318359
		s34.619141-77.318848,77.318359-77.318848c42.698242,0,77.318359,34.619629,77.318359,77.318848
		S682.697266,645.246094,639.999023,645.246094z"/>
	<path fill="#ED6B21" d="M20,20v1240h1240V20H20z M886.035156,813.963867L639.999023,1060L393.963379,813.963867
		c-135.87207-135.874023-135.87207-356.198242,0.019043-492.052734c135.87207-135.891113,356.178711-135.87207,492.052734,0
		C1021.90625,457.765625,1021.90625,678.089844,886.035156,813.963867z"/>
</g>
</svg>
