<?xml version="1.0" encoding="utf-8"?>
<!-- Generator: Adobe Illustrator 16.0.3, SVG Export Plug-In . SVG Version: 6.00 Build 0)  -->
<!DOCTYPE svg PUBLIC "-//W3C//DTD SVG 1.1//EN" "http://www.w3.org/Graphics/SVG/1.1/DTD/svg11.dtd">
<svg version="1.1" id="Layer_1" xmlns="http://www.w3.org/2000/svg" xmlns:xlink="http://www.w3.org/1999/xlink" x="0px" y="0px"
	 width="1280px" height="1280px" viewBox="0 0 1280 1280" enable-background="new 0 0 1280 1280" xml:space="preserve">
<g>
	<path fill="#ED6B21" d="M842.499023,594.999512H730.000977V696.25c0,18.710938-15.040039,33.750977-33.750977,33.750977H594.999512
		V797.5c0,12.382813,10.127441,22.5,22.500977,22.5h224.998535C854.933594,820,865,809.931641,865,797.5V617.500488
		C865,605.126953,854.883789,594.999512,842.499023,594.999512z"/>
	<path fill="#ED6B21" d="M684.999023,662.5v-180c0-12.421875-10.06543-22.5-22.499023-22.5H437.499512
		c-12.422363,0-22.5,10.078125-22.5,22.5v180c0,12.383789,10.126953,22.499023,22.5,22.499023H662.5
		C674.883789,684.999023,684.999023,674.883789,684.999023,662.5z"/>
	<path fill="#ED6B21" d="M20,20v1240h1240V20H20z M999.999023,437.499512C999.999023,449.872559,989.883789,460,977.5,460H955v360
		h22.5c12.43457,0,22.499023,10.068359,22.499023,22.499023V932.5c0,12.432617-10.064453,22.5-22.499023,22.5h-89.999023
		C875.067383,955,865,944.932617,865,932.5v-22.499023H414.999512V932.5c0,12.381836-10.072754,22.5-22.499512,22.5h-90
		c-12.42334,0-22.500977-10.118164-22.500977-22.5v-90.000977C279.999023,830.117188,290.07666,820,302.5,820H325V460h-22.5
		c-12.42334,0-22.500977-10.127441-22.500977-22.500488v-90C279.999023,335.072266,290.07666,325,302.5,325h90
		c12.426758,0,22.499512,10.072266,22.499512,22.499512v22.5H865v-22.5C865,335.072266,875.117188,325,887.500977,325H977.5
		c12.383789,0,22.499023,10.072266,22.499023,22.499512V437.499512z"/>
</g>
</svg>
