<?xml version="1.0" encoding="utf-8"?>
<!-- Generator: Adobe Illustrator 16.0.3, SVG Export Plug-In . SVG Version: 6.00 Build 0)  -->
<!DOCTYPE svg PUBLIC "-//W3C//DTD SVG 1.1//EN" "http://www.w3.org/Graphics/SVG/1.1/DTD/svg11.dtd">
<svg version="1.1" id="Layer_1" xmlns="http://www.w3.org/2000/svg" xmlns:xlink="http://www.w3.org/1999/xlink" x="0px" y="0px"
	 width="1280px" height="1280px" viewBox="0 0 1280 1280" enable-background="new 0 0 1280 1280" xml:space="preserve">
<g>
	<rect x="360" y="440" fill="#ED6B21" width="320" height="200"/>
	<path fill="#ED6B21" d="M20,20v1240h1240V20H20z M360,740c0,11-8.949707,20-20,20h-80c-11.044922,0-20-9-20-20v-80
		c0-11,8.955078-20,20-20h20V440h-20c-11.044922,0-20-8.949707-20-20v-80c0-11.044922,8.955078-20,20-20h80
		c11.050293,0,20,8.955078,20,20v20h320v-20c0-11.044922,9-20,20-20h80c11,0,20,8.955078,20,20v80c0,11.050293-9,20-20,20h-20v200
		h20c11,0,20,9,20,20v80c0,11.044922-8.952148,20-20,20h-80c-11.044922,0-20-8.955078-20-20v-20H360V740z M1040,620
		c0,10.999512-9,20-20,20h-20v200h20c11.047852,0,20,8.955078,20,20v80c0,11.044922-8.952148,20-20,20h-80
		c-11.044922,0-20-8.955078-20-20v-20H600v20c0,11-9.000488,20-20,20h-80c-10.999512,0-20-9-20-20v-80c0-11,9.000488-20,20-20h20
		v-80h80v80h320V640h-83.625C830.25,623,817,609.5,800,603.425781V560h120v-20c0-10.999512,9-20,20-20h80c11,0,20,9.000488,20,20
		V620z"/>
</g>
</svg>
