<?xml version="1.0" encoding="utf-8"?>
<!-- Generator: Adobe Illustrator 16.0.3, SVG Export Plug-In . SVG Version: 6.00 Build 0)  -->
<!DOCTYPE svg PUBLIC "-//W3C//DTD SVG 1.1//EN" "http://www.w3.org/Graphics/SVG/1.1/DTD/svg11.dtd">
<svg version="1.1" id="Layer_1" xmlns="http://www.w3.org/2000/svg" xmlns:xlink="http://www.w3.org/1999/xlink" x="0px" y="0px"
	 width="1280px" height="1280px" viewBox="0 0 1280 1280" enable-background="new 0 0 1280 1280" xml:space="preserve">
<path fill="#ED6B21" d="M977.5,325h-89.999C875.117,325,865,335.072,865,347.5V370H415v-22.5c0-12.427-10.073-22.5-22.5-22.5h-90
	c-12.423,0-22.501,10.072-22.501,22.5v90c0,12.373,10.078,22.5,22.501,22.5H325v360h-22.5c-12.423,0-22.501,10.117-22.501,22.499
	V932.5c0,12.382,10.078,22.5,22.501,22.5h90c12.427,0,22.5-10.118,22.5-22.5v-22.499h450V932.5c0,12.433,10.067,22.5,22.501,22.5
	H977.5c12.435,0,22.499-10.067,22.499-22.5v-90.001c0-12.431-10.064-22.499-22.499-22.499H955V460h22.5
	c12.384,0,22.499-10.127,22.499-22.5v-90C999.999,335.072,989.884,325,977.5,325z M415,662.5v-180c0-12.422,10.077-22.5,22.5-22.5
	h225c12.434,0,22.499,10.078,22.499,22.5v180c0,12.384-10.115,22.499-22.499,22.499h-225C425.127,684.999,415,674.884,415,662.5z
	 M865,797.5c0,12.432-10.066,22.5-22.501,22.5H617.5c-12.373,0-22.5-10.117-22.5-22.5v-67.499h101.25
	c18.711,0,33.751-15.04,33.751-33.751V595h112.498C854.884,595,865,605.127,865,617.5V797.5z"/>
</svg>
