<?xml version="1.0" encoding="utf-8"?>
<!-- Generator: Adobe Illustrator 16.0.3, SVG Export Plug-In . SVG Version: 6.00 Build 0)  -->
<!DOCTYPE svg PUBLIC "-//W3C//DTD SVG 1.1//EN" "http://www.w3.org/Graphics/SVG/1.1/DTD/svg11.dtd">
<svg version="1.1" id="Layer_1" xmlns="http://www.w3.org/2000/svg" xmlns:xlink="http://www.w3.org/1999/xlink" x="0px" y="0px"
	 width="1280px" height="1280px" viewBox="0 0 1280 1280" enable-background="new 0 0 1280 1280" xml:space="preserve">
<g>
	<path fill="#ED6B21" d="M260,640c-11.045,0-20,9-20,20v80c0,11,8.955,20,20,20h80c11.051,0,20-9,20-20v-20h320v20
		c0,11.045,8.955,20,20,20h80c11.048,0,20-8.955,20-20v-80c0-11-9-20-20-20h-20V440h20c11,0,20-8.949,20-20v-80c0-11.045-9-20-20-20
		h-80c-11,0-20,8.955-20,20v20H360v-20c0-11.045-8.949-20-20-20h-80c-11.045,0-20,8.955-20,20v80c0,11.051,8.955,20,20,20h20v200
		H260z M360,440h320v200H360V440z"/>
	<path fill="#ED6B21" d="M1020,520h-80c-11,0-20,9-20,20v20H800v43.426C817,609.5,830.25,623,836.375,640H920v200H600v-80h-80v80
		h-20c-11,0-20,9-20,20v80c0,11,9,20,20,20h80c11,0,20-9,20-20v-20h320v20c0,11.045,8.955,20,20,20h80c11.048,0,20-8.955,20-20v-80
		c0-11.045-8.952-20-20-20h-20V640h20c11,0,20-9,20-20v-80C1040,529,1031,520,1020,520z"/>
</g>
</svg>
