<?xml version="1.0" encoding="utf-8"?>
<!-- Generator: Adobe Illustrator 16.0.0, SVG Export Plug-In . SVG Version: 6.00 Build 0)  -->
<!DOCTYPE svg PUBLIC "-//W3C//DTD SVG 1.1//EN" "http://www.w3.org/Graphics/SVG/1.1/DTD/svg11.dtd">
<svg version="1.1" id="Ebene_1" xmlns="http://www.w3.org/2000/svg" xmlns:xlink="http://www.w3.org/1999/xlink" x="0px" y="0px"
	 width="841.89px" height="595.275px" viewBox="0 0 841.89 595.275" enable-background="new 0 0 841.89 595.275"
	 xml:space="preserve">
<g>
	<path fill="none" d="M553.142,232.284l-20.403-0.036l-0.102,67.479l20.402,0.031c20.403,0.03,30.318-14.173,30.345-33.693
		C583.415,246.314,573.542,232.315,553.142,232.284z"/>
	<path fill="#255F5B" d="M553.38,212.219c0,0-198.092-0.513-198.205-0.513c3.294,0,5.217,0.001,5.248,0.001
		c18.652,0,31.334,7.956,36.154,20.279c0.051,0.131,0.095,0.267,0.145,0.399h83.814c3.025,2.283,4.885,5.709,4.88,10.169
		c-0.016,9.068-7.56,13.667-16.966,13.655l-11.344-0.018l-0.026,18.446l11.272,0.017c10.443,0.018,18.943,4.87,18.93,14.093
		c-0.016,9.452-7.56,13.973-16.968,13.959c-8.299-0.009-16.385-3.791-21.978-10.333l-11.153,13.588
		c7.314,9.851,19.272,15.633,33.797,15.65c18.328,0.031,35.702-10.165,35.736-31.375c0.015-11.606-6.405-20.223-16.565-24.696
		c8.998-4.674,14.475-13.044,14.49-24.417c0.005-3.099-0.385-6.018-1.118-8.74h9.919l-0.132,86.872l39.904,0.063
		c30.296,0.049,50.315-20.792,50.363-53.224C603.627,233.664,583.673,212.268,553.38,212.219z M553.039,299.758l-20.402-0.031
		l0.102-67.479l20.403,0.036c20.4,0.031,30.273,14.03,30.242,33.781C583.357,285.585,573.442,299.788,553.039,299.758z"/>
	<path fill="#1B1A20" d="M366.512,276.67c20.307-1.933,32.408-13.796,32.434-31.197c0.007-4.78-0.75-9.165-2.224-13.087
		c-0.05-0.132-0.093-0.269-0.145-0.399c-4.82-12.323-17.502-20.279-36.154-20.279c-0.031,0-1.954,0-5.248-0.001
		c-21.939-0.005-105.341-0.023-105.341-0.023v0.071c-32,0.248-54.551,25.835-54.599,57.286
		c-0.048,31.653,22.781,52.465,55.117,52.51c19.211,0.031,34.996-6.361,44.32-20.033l-17.09-12.354
		c-6.316,9.165-15.775,14.411-27.409,14.394c-18.53-0.026-34.34-13.056-34.382-34.182c0.031-20.224,14.266-37.467,33.859-37.467
		c0.047-0.021,0.104-0.031,0.153-0.053v0.044l110.058,0.27c11.171-0.04,17.43,4.503,17.417,13.275
		c-0.011,8.926-5.983,13.154-17.457,13.137l-44.311-0.062l-0.093,60.792h21.056l0.07-42.382l6.19,0.009l30.782,42.373h25.536
		L366.512,276.67z"/>
</g>
</svg>
